<?xml version="1.0" encoding="UTF-8" standalone="no"?>
<!-- Created with Inkscape (http://www.inkscape.org/) -->

<svg
   xmlns:dc="http://purl.org/dc/elements/1.1/"
   xmlns:cc="http://creativecommons.org/ns#"
   xmlns:rdf="http://www.w3.org/1999/02/22-rdf-syntax-ns#"
   xmlns:svg="http://www.w3.org/2000/svg"
   xmlns="http://www.w3.org/2000/svg"
   xmlns:sodipodi="http://sodipodi.sourceforge.net/DTD/sodipodi-0.dtd"
   xmlns:inkscape="http://www.inkscape.org/namespaces/inkscape"
   width="210mm"
   height="297mm"
   viewBox="0 0 210 297"
   version="1.1"
   id="svg5872"
   inkscape:version="0.92.1 r15371"
   sodipodi:docname="LaserEyesCut.svg">
  <defs
     id="defs5866" />
  <sodipodi:namedview
     id="base"
     pagecolor="#ffffff"
     bordercolor="#666666"
     borderopacity="1.0"
     inkscape:pageopacity="0.0"
     inkscape:pageshadow="2"
     inkscape:zoom="3.959798"
     inkscape:cx="413.18705"
     inkscape:cy="849.41256"
     inkscape:document-units="mm"
     inkscape:current-layer="layer1"
     showgrid="false"
     inkscape:window-width="1920"
     inkscape:window-height="1017"
     inkscape:window-x="-8"
     inkscape:window-y="-8"
     inkscape:window-maximized="1" />
  <metadata
     id="metadata5869">
    <rdf:RDF>
      <cc:Work
         rdf:about="">
        <dc:format>image/svg+xml</dc:format>
        <dc:type
           rdf:resource="http://purl.org/dc/dcmitype/StillImage" />
        <dc:title></dc:title>
      </cc:Work>
    </rdf:RDF>
  </metadata>
  <g
     inkscape:label="Layer 1"
     inkscape:groupmode="layer"
     id="layer1">
    <path
       style="color:#000000;font-style:normal;font-variant:normal;font-weight:normal;font-stretch:normal;font-size:medium;line-height:normal;font-family:sans-serif;font-variant-ligatures:normal;font-variant-position:normal;font-variant-caps:normal;font-variant-numeric:normal;font-variant-alternates:normal;font-feature-settings:normal;text-indent:0;text-align:start;text-decoration:none;text-decoration-line:none;text-decoration-style:solid;text-decoration-color:#000000;letter-spacing:normal;word-spacing:normal;text-transform:none;writing-mode:lr-tb;direction:ltr;text-orientation:mixed;dominant-baseline:auto;baseline-shift:baseline;text-anchor:start;white-space:normal;shape-padding:0;clip-rule:nonzero;display:inline;overflow:visible;visibility:visible;opacity:1;isolation:auto;mix-blend-mode:normal;color-interpolation:sRGB;color-interpolation-filters:linearRGB;solid-color:#000000;solid-opacity:1;vector-effect:none;fill:#000000;fill-opacity:1;fill-rule:nonzero;stroke:none;stroke-width:0.01;stroke-linecap:butt;stroke-linejoin:miter;stroke-miterlimit:4;stroke-dasharray:none;stroke-dashoffset:0;stroke-opacity:1;color-rendering:auto;image-rendering:auto;shape-rendering:auto;text-rendering:auto;enable-background:accumulate"
       d="m 84.052734,59.396484 0.002,0.002 c -2.378122,0.0038 -4.633986,0.525149 -6.669922,1.449218 L 76.925781,60.050781 76.125,59.763672 l -2.330078,1.345703 0.785156,1.363281 c -3.670508,2.653146 -6.190306,6.798243 -6.666016,11.542969 h -0.921874 l -0.648438,0.550781 v 2.691406 h 1.568359 c 0.468135,4.751171 2.985049,8.903804 6.65625,11.5625 l -0.449218,0.78125 0.15039,0.835938 2.332031,1.347656 0.769532,-1.335937 c 2.046769,0.931183 4.316204,1.455078 6.708984,1.455078 2.375355,0 4.630794,-0.516735 6.666016,-1.435547 l 0.433594,0.751953 0.800781,0.289063 2.330078,-1.345704 -0.759766,-1.316406 c 0.778288,-0.560023 1.506986,-1.185665 2.173828,-1.871094 l 1.484375,0.857422 0.0078,-0.0059 c 0,0 0.383518,-0.221513 0.740234,-0.617187 0.356717,-0.395675 0.688234,-0.96639 0.576172,-1.664063 l -0.002,-0.0078 -3.304688,-1.908203 -1.326171,2.292969 0.332031,0.191406 c -0.14262,0.226467 -0.314474,0.39896 -0.63086,0.669922 -2.560783,2.193152 -5.881729,3.515625 -9.521484,3.515625 -8.101267,0 -14.65039,-6.549154 -14.65039,-14.65039 0,-0.253178 0.0064,-0.503962 0.01953,-0.753907 0.391798,-7.749392 6.782765,-13.898437 14.630859,-13.898437 8.101245,0 14.652344,6.551109 14.652344,14.652344 v 0.605468 h 0.0078 v 0.337891 l -0.484375,1.201172 -11.453125,-0.0059 -1.179687,-0.0078 v -1.589844 h -3.242188 v 3.021485 h 2.691407 l 0.259765,-0.306641 1.466797,0.0078 12.214844,0.0059 0.671875,-1.66211 h 1.427733 l 0.64844,-0.550781 v -2.691406 h -1.50977 C 99.774997,69.252796 97.234152,65.095672 93.541016,62.443359 l 0.445312,-0.771484 -0.15039,-0.837891 -2.332032,-1.345703 -0.771484,1.337891 c -2.031923,-0.914725 -4.282066,-1.429688 -6.652344,-1.429688 z m 0.02734,0.03125 c 2.370645,0 4.621046,0.51509 6.652344,1.431641 l 0.01367,0.0059 0.769531,-1.332031 2.291016,1.322266 0.146484,0.810547 -0.453125,0.785156 0.01172,0.0078 c 3.696237,2.649304 6.237959,6.809595 6.710941,11.574219 v 0.01367 h 1.50781 v 2.646484 l -0.62891,0.53125 h -1.437498 l -0.671874,1.664063 -12.19336,-0.0059 -1.480469,-0.0078 -0.259765,0.306641 h -2.646485 v -2.958985 h 3.177735 v 1.591797 l 1.21289,0.0059 11.47461,0.0059 0.496094,-1.22461 v -0.376953 h -0.0078 v -0.574218 c 0,-8.118486 -6.567051,-14.683594 -14.685547,-14.683594 -7.864806,0 -14.269468,6.161666 -14.662109,13.927734 -0.01312,0.250555 -0.01953,0.502177 -0.01953,0.75586 0,8.118483 6.563127,14.68164 14.68164,14.68164 3.647505,0 6.976632,-1.323576 9.542969,-3.521484 0.322758,-0.27642 0.502032,-0.454986 0.648437,-0.691406 l 0.0078,-0.01367 -0.333985,-0.19336 1.292969,-2.238281 3.259766,1.882813 c 0.106599,0.681937 -0.21267,1.242609 -0.564453,1.632812 -0.349987,0.38821 -0.720065,0.601705 -0.726563,0.605469 L 95.71875,86.9375 l -0.0078,0.0078 c -0.67142,0.69121 -1.404597,1.321107 -2.189454,1.884766 l -0.01172,0.0098 0.757812,1.3125 -2.291016,1.322265 -0.77539,-0.279297 -0.441406,-0.765624 -0.01367,0.0059 c -2.034585,0.920637 -4.290308,1.4375 -6.666016,1.4375 -2.393103,0 -4.662891,-0.524026 -6.708984,-1.457031 l -0.01367,-0.0059 -0.767578,1.330078 -2.291016,-1.322265 -0.146484,-0.810547 0.458984,-0.794922 -0.01172,-0.0078 C 70.924682,86.148531 68.403027,81.994202 67.939453,77.240234 l -0.002,-0.01563 H 66.375 v -2.644531 l 0.628906,-0.53125 h 0.935547 l 0.002,-0.01563 c 0.471156,-4.747531 2.995683,-8.89431 6.669922,-11.544922 l 0.01172,-0.0078 -0.785156,-1.359375 2.291015,-1.322266 0.775391,0.279297 0.466797,0.808594 0.01367,-0.0078 c 2.042705,-0.929268 4.307283,-1.451172 6.695312,-1.451172 z"
       id="path6469"
       inkscape:connector-curvature="0" />
    <path
       style="color:#000000;font-style:normal;font-variant:normal;font-weight:normal;font-stretch:normal;font-size:medium;line-height:normal;font-family:sans-serif;font-variant-ligatures:normal;font-variant-position:normal;font-variant-caps:normal;font-variant-numeric:normal;font-variant-alternates:normal;font-feature-settings:normal;text-indent:0;text-align:start;text-decoration:none;text-decoration-line:none;text-decoration-style:solid;text-decoration-color:#000000;letter-spacing:normal;word-spacing:normal;text-transform:none;writing-mode:lr-tb;direction:ltr;text-orientation:mixed;dominant-baseline:auto;baseline-shift:baseline;text-anchor:start;white-space:normal;shape-padding:0;clip-rule:nonzero;display:inline;overflow:visible;visibility:visible;opacity:1;isolation:auto;mix-blend-mode:normal;color-interpolation:sRGB;color-interpolation-filters:linearRGB;solid-color:#000000;solid-opacity:1;vector-effect:none;fill:#000000;fill-opacity:1;fill-rule:nonzero;stroke:none;stroke-width:0.01;stroke-linecap:butt;stroke-linejoin:miter;stroke-miterlimit:4;stroke-dasharray:none;stroke-dashoffset:0;stroke-opacity:1;color-rendering:auto;image-rendering:auto;shape-rendering:auto;text-rendering:auto;enable-background:accumulate"
       d="m 78.742188,63.195312 -0.01563,0.0098 -2.792968,1.611328 0.810547,1.400391 c -2.428422,1.91705 -4.062611,4.711604 -4.515625,7.798828 h -1.605469 v 3.242187 h 1.570312 c 0.04191,0.339316 0.09427,0.678819 0.166016,1.019532 0.600943,2.854453 2.165904,5.262006 4.279297,6.960937 l -0.705078,1.21875 2.808594,1.619141 0.669921,-1.160156 c 2.239143,0.978427 4.789236,1.29848 7.357422,0.757812 0.69825,-0.147008 1.368468,-0.353423 2.009766,-0.609375 l 0.583984,1.011719 2.808594,-1.619141 -0.572266,-0.990234 c 1.236749,-0.938008 2.27322,-2.099143 3.066407,-3.412109 l 4.929687,2.572265 0.0078,-0.0039 c 0,0 1.364524,-0.844279 1.140624,-2.238281 l -0.002,-0.0098 -0.006,-0.002 c 0,0 -2.947972,-1.568583 -5.328127,-2.701172 -0.326052,-0.155141 -0.626215,-0.141549 -0.890625,-0.0332 -0.237406,-8.05e-4 -0.38853,0.08895 -0.486328,0.15625 -0.216219,0.148843 -0.323391,0.295974 -0.474609,0.509766 l -0.0293,0.04492 -0.02734,0.04687 c -1.362891,2.716875 -3.89671,4.808436 -7.107422,5.484375 -5.595307,1.177967 -11.060314,-2.385152 -12.238281,-7.980468 -1.177957,-5.595328 2.385153,-11.062268 7.980469,-12.240235 5.595335,-1.177966 11.062288,2.387219 12.240234,7.982422 -8.7e-5,-4.31e-4 0.0026,0.01063 0.0039,0.02734 0.0013,0.01671 0.0021,0.03988 0.0039,0.06836 0.0037,0.05696 0.0094,0.137073 0.01367,0.228516 0.0086,0.182886 0.01528,0.41676 0.01563,0.638672 9.1e-5,0.05945 2.86e-4,0.114538 0,0.171875 l -5.789062,-0.0039 -3,-1.742188 v -0.970703 h -3.242188 v 2.873047 h 3.074219 l 2.701172,1.564453 6.453125,0.0059 v 0.753906 h 2.873047 v -3.242187 h -1.242188 l -0.002,-0.02539 c -0.01708,-0.158518 -0.01242,-0.138888 -0.01172,-0.242187 8.03e-4,-0.104412 -0.01329,-0.267331 -0.05859,-0.482422 -0.638024,-3.03061 -2.363424,-5.55827 -4.677735,-7.267578 l 0.681641,-1.181641 -2.806641,-1.621094 -0.714843,1.236329 c -0.66637,-0.258913 -1.357365,-0.462822 -2.066407,-0.601563 -1.550629,-0.303411 -3.185226,-0.308338 -4.826172,0.03711 -0.113228,0.02384 -0.223014,0.05337 -0.333984,0.08008 l -0.0098,-0.0059 -0.265624,0.07031 c -0.557865,0.14732 -1.096668,0.334224 -1.615235,0.552734 z m -0.01367,0.04492 0.789062,1.365235 0.01367,-0.0059 c 0.521886,-0.220725 1.063195,-0.40828 1.625,-0.55664 l 0.255859,-0.06641 0.0098,0.0039 0.0039,-0.002 c 0.112611,-0.02705 0.224393,-0.05618 0.337891,-0.08008 1.636694,-0.344553 3.267922,-0.339719 4.814453,-0.03711 0.711814,0.139283 1.405517,0.342814 2.074219,0.603516 l 0.01367,0.0059 0.710937,-1.230469 2.75,1.587891 -0.677734,1.175781 0.01172,0.0078 c 2.314977,1.704984 4.038189,4.231208 4.675781,7.259765 0.0449,0.21319 0.05742,0.375335 0.05664,0.476563 -6.96e-4,0.102341 -0.0054,0.08723 0.01172,0.246094 l 0.0059,0.05469 h 1.238281 v 3.175781 h -2.806641 v -0.753906 l -6.476562,-0.0039 -2.701172,-1.566406 h -3.050782 v -2.808594 h 3.175782 v 0.958984 l 3.023437,1.753907 5.830078,0.0059 v -0.01563 c 3.2e-4,-0.06418 0.0021,-0.123788 0.002,-0.189453 -3.5e-4,-0.222649 -0.009,-0.457391 -0.01758,-0.640625 -0.0043,-0.09162 -0.008,-0.171332 -0.01172,-0.228516 -0.0018,-0.02859 -0.0045,-0.05139 -0.0059,-0.06836 -0.0014,-0.01697 -0.0026,-0.02464 -0.0039,-0.03125 -1.181494,-5.612057 -6.665159,-9.189326 -12.277344,-8.007813 -5.612164,1.181514 -9.187362,6.665171 -8.005859,12.277344 1.181513,5.612163 6.663238,9.187373 12.275391,8.005859 3.220408,-0.67798 5.763789,-2.774794 7.130859,-5.5 l 0.02539,-0.04492 0.02734,-0.04492 c 0.151102,-0.213628 0.254596,-0.355877 0.466797,-0.501954 0.09744,-0.06705 0.2403,-0.153339 0.47461,-0.15039 h 0.0039 l 0.002,-0.002 c 0.25745,-0.105494 0.546667,-0.118376 0.865234,0.0332 2.374539,1.129917 5.305229,2.687415 5.316409,2.693359 0.21321,1.360908 -1.106548,2.187472 -1.119143,2.195313 l -4.935547,-2.576172 -0.0078,0.01172 c -0.794492,1.318836 -1.835643,2.485688 -3.078126,3.425781 l -0.01172,0.0098 0.568359,0.984374 -2.751953,1.587891 -0.580078,-1.005859 -0.01367,0.0039 c -0.643535,0.257701 -1.316435,0.463711 -2.017578,0.611328 -2.566471,0.540307 -5.117095,0.220545 -7.353516,-0.759766 l -0.01172,-0.0059 -0.667969,1.15625 -2.751953,-1.587891 0.699218,-1.21289 -0.0098,-0.0078 c -2.113307,-1.694963 -3.676943,-4.101246 -4.277344,-6.953125 -0.07248,-0.344212 -0.125914,-0.688157 -0.167969,-1.03125 l -0.002,-0.01563 H 70.65625 v -3.175781 h 1.599609 l 0.002,-0.01367 c 0.449543,-3.089324 2.083829,-5.887555 4.515626,-7.802734 l 0.0098,-0.0098 -0.804687,-1.394531 z"
       id="path5467"
       inkscape:connector-curvature="0" />
    <path
       style="color:#000000;font-style:normal;font-variant:normal;font-weight:normal;font-stretch:normal;font-size:medium;line-height:normal;font-family:sans-serif;font-variant-ligatures:normal;font-variant-position:normal;font-variant-caps:normal;font-variant-numeric:normal;font-variant-alternates:normal;font-feature-settings:normal;text-indent:0;text-align:start;text-decoration:none;text-decoration-line:none;text-decoration-style:solid;text-decoration-color:#000000;letter-spacing:normal;word-spacing:normal;text-transform:none;writing-mode:lr-tb;direction:ltr;text-orientation:mixed;dominant-baseline:auto;baseline-shift:baseline;text-anchor:start;white-space:normal;shape-padding:0;clip-rule:nonzero;display:inline;overflow:visible;visibility:visible;opacity:1;isolation:auto;mix-blend-mode:normal;color-interpolation:sRGB;color-interpolation-filters:linearRGB;solid-color:#000000;solid-opacity:1;vector-effect:none;fill:#000000;fill-opacity:1;fill-rule:nonzero;stroke:none;stroke-width:0.01;stroke-linecap:butt;stroke-linejoin:miter;stroke-miterlimit:4;stroke-dasharray:none;stroke-dashoffset:0;stroke-opacity:1;color-rendering:auto;image-rendering:auto;shape-rendering:auto;text-rendering:auto;enable-background:accumulate"
       d="m 126.35742,59.396484 c -2.37028,0 -4.62041,0.514961 -6.65234,1.429688 l -0.44531,-0.773438 -0.80079,-0.289062 -2.33203,1.345703 0.77149,1.333984 c -3.69263,2.651877 -6.23143,6.810336 -6.70899,11.572266 h -0.86328 l -0.65039,0.550781 v 2.691406 h 2.07813 l 0.67187,1.664063 12.21289,-0.0078 1.4668,-0.0078 0.25976,0.308594 h 2.69141 v -3.023438 h -3.24023 v 1.591797 l -1.18164,0.0059 -11.45118,0.0059 -0.48437,-1.199219 v -0.337891 h 0.008 V 75.652344 C 111.70703,67.551109 118.25616,61 126.35742,61 c 8.10125,0 14.65039,6.551107 14.65039,14.652344 0,8.101236 -6.54914,14.648437 -14.65039,14.648437 -3.63975,0 -6.95875,-1.322473 -9.51953,-3.515625 -0.3164,-0.270972 -0.48824,-0.443446 -0.63086,-0.669922 l 0.33008,-0.189453 -1.32422,-2.294922 -3.30469,1.908203 -0.002,0.0078 c -0.11206,0.697673 0.2175,1.268388 0.57422,1.664063 0.35671,0.395674 0.74219,0.61914 0.74219,0.61914 l 0.008,0.0039 1.48437,-0.857422 c 0.66683,0.685426 1.39359,1.311074 2.17188,1.871094 l -0.4336,0.753906 0.1504,0.837891 2.33203,1.345703 0.75976,-1.314453 c 2.03447,0.918002 4.28787,1.435547 6.66211,1.435547 2.39197,0 4.66275,-0.524489 6.70899,-1.455078 l 0.44726,0.771484 0.79883,0.28711 2.33203,-1.345704 -0.77539,-1.345703 c 3.67143,-2.659143 6.19264,-6.808725 6.66016,-11.560547 h 0.91797 l 0.64843,-0.548828 v -2.691406 h -1.56836 c -0.47511,-4.745935 -2.99848,-8.889402 -6.66992,-11.542969 l 0.46289,-0.800781 -0.15039,-0.83789 -2.33203,-1.345704 -0.7832,1.357422 c -2.03908,-0.925397 -4.2998,-1.446882 -6.68164,-1.449218 v -0.002 z m -0.0156,0.0332 h 0.0156 c 2.3881,0 4.65426,0.521863 6.69727,1.451171 l 0.0137,0.0059 0.78125,-1.353516 2.29101,1.322266 0.14649,0.8125 -0.4707,0.814453 0.0117,0.0078 c 3.67392,2.650633 6.19882,6.797671 6.66993,11.544922 l 0.002,0.01367 h 1.56445 v 2.644531 l -0.6289,0.533203 h -0.9336 l -0.002,0.01367 c -0.46359,4.754098 -2.98503,8.908317 -6.66016,11.564454 l -0.0117,0.0078 0.77344,1.339844 -2.29101,1.322265 -0.77539,-0.279297 -0.45313,-0.785156 -0.0137,0.0059 c -2.04613,0.933044 -4.31778,1.457031 -6.71094,1.457031 -2.37547,0 -4.62965,-0.517043 -6.66406,-1.4375 l -0.0137,-0.0059 -0.75586,1.3125 -2.29102,-1.324219 -0.14648,-0.810547 0.44336,-0.767578 -0.0117,-0.0078 c -0.78486,-0.563659 -1.51805,-1.193556 -2.18945,-1.884765 l -0.008,-0.0098 -1.48828,0.857422 c -0.007,-0.0038 -0.37658,-0.217259 -0.72656,-0.605469 -0.35216,-0.390619 -0.67404,-0.949886 -0.56641,-1.632812 l 3.26172,-1.882813 1.29297,2.238281 -0.33398,0.19336 0.008,0.01563 c 0.1464,0.23643 0.32567,0.413023 0.64844,0.689453 2.56633,2.197908 5.89351,3.523437 9.54101,3.523437 8.11849,0 14.6836,-6.563157 14.6836,-14.68164 0,-8.118484 -6.5651,-14.685547 -14.6836,-14.685547 -8.11851,0 -14.68359,6.567061 -14.68359,14.685547 v 0.572265 h -0.008 v 0.376953 l 0.49609,1.226563 11.47266,-0.0059 1.21289,-0.0078 v -1.589844 h 3.17773 v 2.957032 h -2.64453 l -0.25977,-0.306641 -1.48242,0.0078 -12.1914,0.0059 -0.67188,-1.664063 h -2.06641 v -2.644531 l 0.62891,-0.53125 h 0.87695 l 0.002,-0.01563 c 0.47298,-4.764703 3.0146,-8.922961 6.71093,-11.572265 l 0.0117,-0.0098 -0.76757,-1.330078 2.29101,-1.322266 0.77539,0.279297 0.45313,0.787109 0.0137,-0.0059 c 2.0267,-0.914474 4.27199,-1.427361 6.63672,-1.429687 z"
       id="path6465"
       inkscape:connector-curvature="0" />
    <path
       style="color:#000000;font-style:normal;font-variant:normal;font-weight:normal;font-stretch:normal;font-size:medium;line-height:normal;font-family:sans-serif;font-variant-ligatures:normal;font-variant-position:normal;font-variant-caps:normal;font-variant-numeric:normal;font-variant-alternates:normal;font-feature-settings:normal;text-indent:0;text-align:start;text-decoration:none;text-decoration-line:none;text-decoration-style:solid;text-decoration-color:#000000;letter-spacing:normal;word-spacing:normal;text-transform:none;writing-mode:lr-tb;direction:ltr;text-orientation:mixed;dominant-baseline:auto;baseline-shift:baseline;text-anchor:start;white-space:normal;shape-padding:0;clip-rule:nonzero;display:inline;overflow:visible;visibility:visible;opacity:1;isolation:auto;mix-blend-mode:normal;color-interpolation:sRGB;color-interpolation-filters:linearRGB;solid-color:#000000;solid-opacity:1;vector-effect:none;fill:#000000;fill-opacity:1;fill-rule:nonzero;stroke:none;stroke-width:0.01;stroke-linecap:butt;stroke-linejoin:miter;stroke-miterlimit:4;stroke-dasharray:none;stroke-dashoffset:0;stroke-opacity:1;color-rendering:auto;image-rendering:auto;shape-rendering:auto;text-rendering:auto;enable-background:accumulate"
       d="m 121.07422,63.195312 -0.0137,0.0098 -2.79297,1.611328 0.68164,1.179688 c -2.3153,1.709328 -4.03954,4.238062 -4.67774,7.269531 -0.0453,0.215105 -0.0593,0.378034 -0.0586,0.482422 7.9e-4,0.103271 0.005,0.08362 -0.0117,0.242187 l -0.002,0.02539 h -1.24219 v 3.242187 h 2.87109 v -0.753906 l 6.45508,-0.0059 2.69922,-1.564453 h 3.07617 v -2.873047 h -3.24218 v 0.970703 l -3,1.742188 -5.78907,0.0039 c -2.3e-4,-0.05735 -0.002,-0.112383 -0.002,-0.171875 3.9e-4,-0.221914 0.009,-0.455794 0.0176,-0.638672 0.004,-0.09144 0.01,-0.171557 0.0137,-0.228516 0.002,-0.02848 0.003,-0.05165 0.004,-0.06836 0.001,-0.01671 0.002,-0.02776 0.002,-0.02734 1.17796,-5.595213 6.64685,-9.160388 12.24219,-7.982422 5.59531,1.177967 9.15842,6.644918 7.98047,12.240235 -1.17797,5.595316 -6.64298,9.158435 -12.23828,7.980468 -3.21072,-0.675939 -5.74454,-2.7675 -7.10743,-5.484375 l -0.0273,-0.04687 -0.0293,-0.04492 c -0.15122,-0.213792 -0.25838,-0.360923 -0.47461,-0.509766 -0.0989,-0.06811 -0.25168,-0.15977 -0.49414,-0.15625 -0.26315,-0.106411 -0.56086,-0.120949 -0.88476,0.0332 -2.38017,1.132589 -5.32617,2.701172 -5.32618,2.701172 l -0.008,0.0039 v 0.0078 c -0.2239,1.394001 1.14063,2.238281 1.14063,2.238281 l 0.008,0.0039 4.92773,-2.572265 c 0.79319,1.312969 1.83162,2.4741 3.06836,3.412109 l -0.57226,0.990234 2.80664,1.619141 0.58594,-1.011719 c 0.64078,0.255636 1.31213,0.462497 2.00976,0.609375 2.56811,0.540648 5.11834,0.220536 7.35742,-0.757812 l 0.66993,1.162109 2.80664,-1.621094 -0.70313,-1.21875 c 2.11339,-1.698931 3.6764,-4.106484 4.27734,-6.960937 0.0718,-0.340717 0.12602,-0.680227 0.16797,-1.019532 h 1.57032 v -3.242187 h -1.60743 c -0.45301,-3.087083 -2.08543,-5.881778 -4.51367,-7.798828 l 0.8086,-1.400391 -2.80664,-1.61914 -0.78907,1.36914 c -0.52,-0.219254 -1.05979,-0.406982 -1.61914,-0.554687 l -0.26367,-0.06836 -0.008,0.0039 c -0.11159,-0.02683 -0.22208,-0.05611 -0.33594,-0.08008 -1.64095,-0.345468 -3.27554,-0.340531 -4.82617,-0.03711 -0.70926,0.138781 -1.39985,0.34254 -2.06641,0.601563 z m -0.0117,0.04492 0.71094,1.230469 0.0137,-0.0059 c 0.66891,-0.260814 1.3622,-0.464194 2.07422,-0.603516 1.54653,-0.302619 3.17776,-0.307463 4.81445,0.03711 0.1135,0.0239 0.22333,0.05303 0.33594,0.08008 l 0.006,0.002 0.01,-0.0039 0.25391,0.06641 c 0.56186,0.148368 1.10482,0.335891 1.62695,0.55664 l 0.0137,0.0059 0.7871,-1.365235 2.75196,1.589844 -0.80469,1.392578 0.01,0.0098 c 2.43161,1.915178 4.06608,4.713549 4.51562,7.802734 l 0.002,0.01367 h 1.59961 v 3.175781 h -1.56445 l -0.002,0.01563 c -0.0421,0.343087 -0.0974,0.68704 -0.16992,1.03125 -0.60041,2.851879 -2.16209,5.258162 -4.2754,6.953125 l -0.0117,0.0078 0.70117,1.21289 -2.75196,1.587891 -0.66796,-1.15625 -0.0117,0.0059 c -2.23636,0.980231 -4.78713,1.300053 -7.35352,0.759766 -0.70114,-0.147617 -1.37404,-0.353627 -2.01758,-0.611328 l -0.0137,-0.0039 -0.58203,1.005859 -2.75195,-1.587891 0.57031,-0.984374 -0.0117,-0.0098 c -1.24247,-0.940093 -2.28559,-2.106945 -3.08008,-3.425781 l -0.006,-0.01172 -4.93554,2.576172 c -0.0126,-0.0079 -1.33236,-0.834409 -1.11914,-2.195313 0.0112,-0.0059 2.9399,-1.563443 5.31445,-2.693359 0.31856,-0.151609 0.60777,-0.138717 0.86523,-0.0332 l 0.004,0.002 h 0.002 c 0.23427,-0.0034 0.37911,0.0833 0.47656,0.15039 0.21222,0.146077 0.3157,0.288326 0.4668,0.501954 h -0.002 l 0.0293,0.04492 0.0254,0.04492 c 1.36707,2.725206 3.91045,4.82202 7.13086,5.5 5.61215,1.181514 11.09387,-2.393696 12.27539,-8.005859 1.1815,-5.612163 -2.3937,-11.09583 -8.00586,-12.277344 -5.61219,-1.181513 -11.0978,2.395746 -12.2793,8.007813 -0.001,0.0066 -6e-4,0.01428 -0.002,0.03125 -0.001,0.01697 -0.004,0.03977 -0.006,0.06836 -0.004,0.05719 -0.007,0.136903 -0.0117,0.228516 -0.009,0.183224 -0.0172,0.417979 -0.0176,0.640625 0,0.06566 -2.6e-4,0.125259 0,0.189453 v 0.01563 l 5.83008,-0.0059 3.02344,-1.753907 v -0.958984 h 3.17773 v 2.808594 h -3.05078 l -2.70117,1.566406 -6.47656,0.0039 v 0.753906 h -2.8086 v -3.175781 h 1.23828 l 0.006,-0.05469 c 0.0169,-0.158875 0.0125,-0.143725 0.0117,-0.246094 -6.9e-4,-0.101252 0.0137,-0.263367 0.0586,-0.476563 0.63757,-3.028447 2.36094,-5.554781 4.67579,-7.259765 l 0.0117,-0.0078 -0.67773,-1.175781 z"
       id="path5653"
       inkscape:connector-curvature="0" />
    <path
       style="color:#000000;font-style:normal;font-variant:normal;font-weight:normal;font-stretch:normal;font-size:medium;line-height:normal;font-family:sans-serif;font-variant-ligatures:normal;font-variant-position:normal;font-variant-caps:normal;font-variant-numeric:normal;font-variant-alternates:normal;font-feature-settings:normal;text-indent:0;text-align:start;text-decoration:none;text-decoration-line:none;text-decoration-style:solid;text-decoration-color:#000000;letter-spacing:normal;word-spacing:normal;text-transform:none;writing-mode:lr-tb;direction:ltr;text-orientation:mixed;dominant-baseline:auto;baseline-shift:baseline;text-anchor:start;white-space:normal;shape-padding:0;clip-rule:nonzero;display:inline;overflow:visible;visibility:visible;opacity:1;isolation:auto;mix-blend-mode:normal;color-interpolation:sRGB;color-interpolation-filters:linearRGB;solid-color:#000000;solid-opacity:1;vector-effect:none;fill:#000000;fill-opacity:1;fill-rule:nonzero;stroke:none;stroke-width:0.12250231;stroke-linecap:butt;stroke-linejoin:miter;stroke-miterlimit:4;stroke-dasharray:none;stroke-dashoffset:0;stroke-opacity:1;color-rendering:auto;image-rendering:auto;shape-rendering:auto;text-rendering:auto;enable-background:accumulate"
       d="m 145.94141,46.976562 v 0.0625 9.9375 h 10 v -10 z m 0.12304,0.123047 h 9.75391 v 9.75586 h -9.75391 z"
       id="rect5864"
       inkscape:connector-curvature="0" />
  </g>
</svg>
