  0
SECTION
  2
HEADER
  9
$ACADVER
  1
AC1014
  9
$HANDSEED
  5
FFFF
  9
$MEASUREMENT
 70
     1
  0
ENDSEC
  0
SECTION
  2
TABLES
  0
TABLE
  2
VPORT
  5
8
330
0
100
AcDbSymbolTable
 70
     4
  0
VPORT
  5
2E
330
8
100
AcDbSymbolTableRecord
100
AcDbViewportTableRecord
  2
*ACTIVE
 70
     0
 10
0.0
 20
0.0
 11
1.0
 21
1.0
 12
210.0
 22
148.5
 13
0.0
 23
0.0
 14
10.0
 24
10.0
 15
10.0
 25
10.0
 16
0.0
 26
0.0
 36
1.0
 17
0.0
 27
0.0
 37
0.0
 40
341.0
 41
1.24
 42
50.0
 43
0.0
 44
0.0
 50
0.0
 51
0.0
 71
     0
 72
   100
 73
     1
 74
     3
 75
     0
 76
     0
 77
     0
 78
     0
  0
ENDTAB
  0
TABLE
  2
LTYPE
  5
5
330
0
100
AcDbSymbolTable
 70
     1
  0
LTYPE
  5
14
330
5
100
AcDbSymbolTableRecord
100
AcDbLinetypeTableRecord
  2
BYBLOCK
 70
     0
  3

 72
    65
 73
     0
 40
0.0
  0
LTYPE
  5
15
330
5
100
AcDbSymbolTableRecord
100
AcDbLinetypeTableRecord
  2
BYLAYER
 70
     0
  3

 72
    65
 73
     0
 40
0.0
  0
LTYPE
  5
16
330
5
100
AcDbSymbolTableRecord
100
AcDbLinetypeTableRecord
  2
CONTINUOUS
 70
     0
  3
Solid line
 72
    65
 73
     0
 40
0.0
  0
ENDTAB
  0
TABLE
  2
LAYER
  5
2
100
AcDbSymbolTable
 70
2
  0
LAYER
  5
50
100
AcDbSymbolTableRecord
100
AcDbLayerTableRecord
  2
0
 70
0
  6
CONTINUOUS
  0
LAYER
  5
51
100
AcDbSymbolTableRecord
100
AcDbLayerTableRecord
  2
Layer_1
 70
0
  6
CONTINUOUS
  0
ENDTAB
  0
TABLE
  2
STYLE
  5
3
330
0
100
AcDbSymbolTable
 70
     1
  0
STYLE
  5
11
330
3
100
AcDbSymbolTableRecord
100
AcDbTextStyleTableRecord
  2
STANDARD
 70
     0
 40
0.0
 41
1.0
 50
0.0
 71
     0
 42
2.5
  3
txt
  4

  0
ENDTAB
  0
TABLE
  2
VIEW
  5
6
330
0
100
AcDbSymbolTable
 70
     0
  0
ENDTAB
  0
TABLE
  2
UCS
  5
7
330
0
100
AcDbSymbolTable
 70
     0
  0
ENDTAB
  0
TABLE
  2
APPID
  5
9
330
0
100
AcDbSymbolTable
 70
     2
  0
APPID
  5
12
330
9
100
AcDbSymbolTableRecord
100
AcDbRegAppTableRecord
  2
ACAD
 70
     0
  0
ENDTAB
  0
TABLE
  2
DIMSTYLE
  5
A
330
0
100
AcDbSymbolTable
 70
     1
  0
DIMSTYLE
105
27
330
A
100
AcDbSymbolTableRecord
100
AcDbDimStyleTableRecord
  2
ISO-25
 70
     0
  3

  4

  5

  6

  7

 40
1.0
 41
2.5
 42
0.625
 43
3.75
 44
1.25
 45
0.0
 46
0.0
 47
0.0
 48
0.0
140
2.5
141
2.5
142
0.0
143
0.03937007874016
144
1.0
145
0.0
146
1.0
147
0.625
 71
     0
 72
     0
 73
     0
 74
     0
 75
     0
 76
     0
 77
     1
 78
     8
170
     0
171
     3
172
     1
173
     0
174
     0
175
     0
176
     0
177
     0
178
     0
270
     2
271
     2
272
     2
273
     2
274
     3
340
11
275
     0
280
     0
281
     0
282
     0
283
     0
284
     8
285
     0
286
     0
287
     3
288
     0
  0
ENDTAB
  0
TABLE
  2
BLOCK_RECORD
  5
1
330
0
100
AcDbSymbolTable
 70
     1
  0
BLOCK_RECORD
  5
1F
330
1
100
AcDbSymbolTableRecord
100
AcDbBlockTableRecord
  2
*MODEL_SPACE
  0
BLOCK_RECORD
  5
1B
330
1
100
AcDbSymbolTableRecord
100
AcDbBlockTableRecord
  2
*PAPER_SPACE
  0
ENDTAB
  0
ENDSEC
  0
SECTION
  2
BLOCKS
  0
BLOCK
  5
20
330
1F
100
AcDbEntity
  8
0
100
AcDbBlockBegin
  2
*MODEL_SPACE
 70
     0
 10
0.0
 20
0.0
 30
0.0
  3
*MODEL_SPACE
  1

  0
ENDBLK
  5
21
330
1F
100
AcDbEntity
  8
0
100
AcDbBlockEnd
  0
BLOCK
  5
1C
330
1B
100
AcDbEntity
 67
     1
  8
0
100
AcDbBlockBegin
  2
*PAPER_SPACE
  1

  0
ENDBLK
  5
1D
330
1B
100
AcDbEntity
 67
     1
  8
0
100
AcDbBlockEnd
  0
ENDSEC
  0
SECTION
  2
ENTITIES
  0
SPLINE
  5
100
100
AcDbEntity
  8
Layer_1
 62
7
100
AcDbSpline
 70
0
 71
3
 72
10
 73
6
 74
4
 40
0.000000
 40
0.000000
 40
0.000000
 40
0.000000
 40
0.622322
 40
1.229680
 40
1.827163
 40
1.827163
 40
1.827163
 40
1.827163
 10
22.246409
 20
62.861675
 30
0.0
 10
22.038915
 20
62.852754
 30
0.0
 10
21.628915
 20
62.835127
 30
0.0
 10
21.030069
 20
62.703404
 30
0.0
 10
20.657527
 20
62.552279
 30
0.0
 10
20.472783
 20
62.477336
 30
0.0
 11
22.246409
 21
62.861675
 31
0.0
 11
21.625713
 21
62.816722
 31
0.0
 11
21.032510
 21
62.686361
 31
0.0
 11
20.472783
 21
62.477336
 31
0.0
  0
LWPOLYLINE
  5
101
100
AcDbEntity
  8
Layer_1
 62
7
100
AcDbPolyline
 90
5
 70
0
 10
20.472783
 20
62.477336
 30
0.0
 10
20.350410
 20
62.689127
 30
0.0
 10
20.142038
 20
62.764051
 30
0.0
 10
19.530596
 20
62.411023
 30
0.0
 10
19.738421
 20
62.051155
 30
0.0
  0
SPLINE
  5
102
100
AcDbEntity
  8
Layer_1
 62
7
100
AcDbSpline
 70
0
 71
3
 72
10
 73
6
 74
4
 40
0.000000
 40
0.000000
 40
0.000000
 40
0.000000
 40
1.193924
 40
2.395109
 40
3.627041
 40
3.627041
 40
3.627041
 40
3.627041
 10
19.738421
 20
62.051155
 30
0.0
 10
19.434711
 20
61.791426
 30
0.0
 10
18.825445
 20
61.270388
 30
0.0
 10
18.197677
 20
60.200300
 30
0.0
 10
18.047793
 20
59.399158
 30
0.0
 10
17.971904
 20
58.993525
 30
0.0
 11
19.738421
 21
62.051155
 31
0.0
 11
18.875678
 21
61.225851
 31
0.0
 11
18.269105
 21
60.189069
 31
0.0
 11
17.971904
 21
58.993525
 31
0.0
  0
LWPOLYLINE
  5
103
100
AcDbEntity
  8
Layer_1
 62
7
100
AcDbPolyline
 90
5
 70
0
 10
17.971904
 20
58.993525
 30
0.0
 10
17.726617
 20
58.993525
 30
0.0
 10
17.557484
 20
58.850509
 30
0.0
 10
17.557484
 20
58.144450
 30
0.0
 10
17.971359
 20
58.144450
 30
0.0
  0
SPLINE
  5
104
100
AcDbEntity
  8
Layer_1
 62
7
100
AcDbSpline
 70
0
 71
3
 72
10
 73
6
 74
4
 40
0.000000
 40
0.000000
 40
0.000000
 40
0.000000
 40
1.233237
 40
2.435491
 40
3.630406
 40
3.630406
 40
3.630406
 40
3.630406
 10
17.971359
 20
58.144450
 30
0.0
 10
18.046653
 20
57.738258
 30
0.0
 10
18.195349
 20
56.936078
 30
0.0
 10
18.822283
 20
55.864095
 30
0.0
 10
19.431566
 20
55.342004
 30
0.0
 10
19.735275
 20
55.081758
 30
0.0
 11
17.971359
 21
58.144450
 31
0.0
 11
18.266953
 21
56.947162
 31
0.0
 11
18.872679
 21
55.908649
 31
0.0
 11
19.735275
 21
55.081758
 31
0.0
  0
LWPOLYLINE
  5
105
100
AcDbEntity
  8
Layer_1
 62
7
100
AcDbPolyline
 90
5
 70
0
 10
19.735275
 20
55.081758
 30
0.0
 10
19.615093
 20
54.873523
 30
0.0
 10
19.654469
 20
54.655443
 30
0.0
 10
20.265913
 20
54.302414
 30
0.0
 10
20.469364
 20
54.654898
 30
0.0
  0
SPLINE
  5
106
100
AcDbEntity
  8
Layer_1
 62
7
100
AcDbSpline
 70
0
 71
3
 72
13
 73
9
 74
7
 40
0.000000
 40
0.000000
 40
0.000000
 40
0.000000
 40
0.598711
 40
1.207312
 40
1.830930
 40
2.450095
 40
3.054447
 40
3.649011
 40
3.649011
 40
3.649011
 40
3.649011
 10
20.469364
 20
54.654898
 30
0.0
 10
20.654426
 20
54.579322
 30
0.0
 10
21.027608
 20
54.426923
 30
0.0
 10
21.627635
 20
54.299622
 30
0.0
 10
22.244925
 20
54.253482
 30
0.0
 10
22.860794
 20
54.299203
 30
0.0
 10
23.456747
 20
54.424770
 30
0.0
 10
23.827721
 20
54.575133
 30
0.0
 10
24.011693
 20
54.649701
 30
0.0
 11
20.469364
 21
54.654898
 31
0.0
 11
21.030078
 21
54.445006
 31
0.0
 11
21.624428
 21
54.314074
 31
0.0
 11
22.246409
 21
54.268916
 31
0.0
 11
22.863971
 21
54.313455
 31
0.0
 11
23.454360
 21
54.442613
 31
0.0
 11
24.011693
 21
54.649701
 31
0.0
  0
LWPOLYLINE
  5
107
100
AcDbEntity
  8
Layer_1
 62
7
100
AcDbPolyline
 90
5
 70
0
 10
24.011693
 20
54.649701
 30
0.0
 10
24.127501
 20
54.448986
 30
0.0
 10
24.335874
 20
54.373923
 30
0.0
 10
24.947318
 20
54.726952
 30
0.0
 10
24.746602
 20
55.074649
 30
0.0
  0
SPLINE
  5
108
100
AcDbEntity
  8
Layer_1
 62
7
100
AcDbSpline
 70
0
 71
3
 72
10
 73
6
 74
4
 40
0.000000
 40
0.000000
 40
0.000000
 40
0.000000
 40
0.255620
 40
0.510880
 40
0.766025
 40
0.766025
 40
0.766025
 40
0.766025
 10
24.746602
 20
55.074649
 30
0.0
 10
24.814948
 20
55.125557
 30
0.0
 10
24.951543
 20
55.227302
 30
0.0
 10
25.145357
 20
55.393995
 30
0.0
 10
25.266104
 20
55.513901
 30
0.0
 10
25.326463
 20
55.573841
 30
0.0
 11
24.746602
 21
55.074649
 31
0.0
 11
24.949802
 21
55.229733
 31
0.0
 11
25.143287
 21
55.396231
 31
0.0
 11
25.326463
 21
55.573841
 31
0.0
  0
LWPOLYLINE
  5
109
100
AcDbEntity
  8
Layer_1
 62
7
100
AcDbPolyline
 90
2
 70
0
 10
25.326463
 20
55.573841
 30
0.0
 10
25.719690
 20
55.346873
 30
0.0
  0
SPLINE
  5
10a
100
AcDbEntity
  8
Layer_1
 62
7
100
AcDbSpline
 70
0
 71
3
 72
10
 73
6
 74
4
 40
0.000000
 40
0.000000
 40
0.000000
 40
0.000000
 40
0.126750
 40
0.401172
 40
0.725536
 40
0.725536
 40
0.725536
 40
0.725536
 10
25.719690
 20
55.346873
 30
0.0
 10
25.754331
 20
55.370719
 30
0.0
 10
25.863971
 20
55.446191
 30
0.0
 10
26.042179
 20
55.629625
 30
0.0
 10
26.057555
 20
55.835110
 30
0.0
 10
26.065884
 20
55.946422
 30
0.0
 11
25.719690
 21
55.346873
 31
0.0
 11
25.822504
 21
55.421000
 31
0.0
 11
26.002251
 21
55.628361
 31
0.0
 11
26.065884
 21
55.946422
 31
0.0
  0
LWPOLYLINE
  5
10b
100
AcDbEntity
  8
Layer_1
 62
7
100
AcDbPolyline
 90
4
 70
0
 10
26.065884
 20
55.946422
 30
0.0
 10
25.196709
 20
56.448347
 30
0.0
 10
24.850515
 20
55.848663
 30
0.0
 10
24.938978
 20
55.797662
 30
0.0
  0
SPLINE
  5
10c
100
AcDbEntity
  8
Layer_1
 62
7
100
AcDbSpline
 70
0
 71
3
 72
25
 73
21
 74
19
 40
0.000000
 40
0.000000
 40
0.000000
 40
0.000000
 40
0.072175
 40
0.151486
 40
0.250221
 40
1.143917
 40
2.051172
 40
2.989453
 40
5.019350
 40
6.987235
 40
9.017103
 40
9.084018
 40
9.150670
 40
9.217083
 40
11.174362
 40
13.082074
 40
15.051656
 40
17.081690
 40
19.049901
 40
21.079934
 40
21.079934
 40
21.079934
 40
21.079934
 10
24.938978
 20
55.797662
 30
0.0
 10
24.925401
 20
55.777744
 30
0.0
 10
24.896903
 20
55.735940
 30
0.0
 10
24.837755
 20
55.676639
 30
0.0
 10
24.569545
 20
55.440989
 30
0.0
 10
24.039319
 20
55.082732
 30
0.0
 10
23.176432
 20
54.758995
 30
0.0
 10
21.883844
 20
54.601835
 30
0.0
 10
20.212106
 20
55.048575
 30
0.0
 10
18.729744
 20
56.529625
 30
0.0
 10
18.360289
 20
57.911170
 30
0.0
 10
18.366311
 20
58.632120
 30
0.0
 10
18.367949
 20
58.698772
 30
0.0
 10
18.397932
 20
59.394756
 30
0.0
 10
18.809487
 20
60.709860
 30
0.0
 10
20.275308
 20
62.104317
 30
0.0
 10
22.269863
 20
62.625203
 30
0.0
 10
24.266091
 20
62.082587
 30
0.0
 10
25.811397
 20
60.597965
 30
0.0
 10
26.020899
 20
59.249801
 30
0.0
 10
26.127270
 20
58.565296
 30
0.0
 11
24.938978
 21
55.797662
 31
0.0
 11
24.896585
 21
55.739249
 31
0.0
 11
24.841856
 21
55.681847
 31
0.0
 11
24.768206
 21
55.616089
 31
0.0
 11
24.027183
 21
55.116511
 31
0.0
 11
23.177944
 21
54.797286
 31
0.0
 11
22.246409
 21
54.684976
 31
0.0
 11
20.286702
 21
55.214155
 31
0.0
 11
18.895166
 21
56.605628
 31
0.0
 11
18.365953
 21
58.565296
 31
0.0
 11
18.366493
 21
58.632209
 31
0.0
 11
18.368156
 21
58.698840
 31
0.0
 11
18.371007
 21
58.765192
 31
0.0
 11
18.959931
 21
60.631769
 31
0.0
 11
20.340872
 21
61.947963
 31
0.0
 11
22.246404
 21
62.446162
 31
0.0
 11
24.206215
 21
61.916842
 31
0.0
 11
25.597950
 21
60.525106
 31
0.0
 11
26.127270
 21
58.565296
 31
0.0
  0
LWPOLYLINE
  5
10d
100
AcDbEntity
  8
Layer_1
 62
7
100
AcDbPolyline
 90
19
 70
0
 10
26.127270
 20
58.565296
 30
0.0
 10
26.127270
 20
58.409290
 30
0.0
 10
26.129386
 20
58.409290
 30
0.0
 10
26.129386
 20
58.314813
 30
0.0
 10
25.999632
 20
57.993775
 30
0.0
 10
22.966748
 20
57.995363
 30
0.0
 10
22.649949
 20
57.997215
 30
0.0
 10
22.649949
 20
58.418064
 30
0.0
 10
21.800877
 20
58.418064
 30
0.0
 10
21.800877
 20
57.626960
 30
0.0
 10
22.506936
 20
57.626960
 30
0.0
 10
22.575572
 20
57.708173
 30
0.0
 10
22.965655
 20
57.706057
 30
0.0
 10
26.194334
 20
57.704469
 30
0.0
 10
26.372216
 20
58.144596
 30
0.0
 10
26.751224
 20
58.144596
 30
0.0
 10
26.920354
 20
58.287608
 30
0.0
 10
26.920354
 20
58.993681
 30
0.0
 10
26.521235
 20
58.993681
 30
0.0
  0
SPLINE
  5
10e
100
AcDbEntity
  8
Layer_1
 62
7
100
AcDbSpline
 70
0
 71
3
 72
10
 73
6
 74
4
 40
0.000000
 40
0.000000
 40
0.000000
 40
0.000000
 40
1.236268
 40
2.441698
 40
3.639989
 40
3.639989
 40
3.639989
 40
3.639989
 10
26.521235
 20
58.993681
 30
0.0
 10
26.444936
 20
59.400731
 30
0.0
 10
26.294239
 20
60.204677
 30
0.0
 10
25.662391
 20
61.277765
 30
0.0
 10
25.049468
 20
61.798995
 30
0.0
 10
24.743917
 20
62.058836
 30
0.0
 11
26.521235
 21
58.993681
 31
0.0
 11
26.222314
 21
60.193265
 31
0.0
 11
25.611943
 21
61.232741
 31
0.0
 11
24.743917
 21
62.058836
 31
0.0
  0
LWPOLYLINE
  5
10f
100
AcDbEntity
  8
Layer_1
 62
7
100
AcDbPolyline
 90
5
 70
0
 10
24.743917
 20
62.058836
 30
0.0
 10
24.862733
 20
62.264611
 30
0.0
 10
24.823493
 20
62.482691
 30
0.0
 10
24.211911
 20
62.835719
 30
0.0
 10
24.008187
 20
62.482826
 30
0.0
  0
LWPOLYLINE
  5
110
100
AcDbEntity
  8
Layer_1
 62
7
100
AcDbPolyline
 90
2
 70
0
 10
22.246322
 20
62.861833
 30
0.0
 10
22.246409
 20
62.861675
 30
0.0
  0
SPLINE
  5
111
100
AcDbEntity
  8
Layer_1
 62
7
100
AcDbSpline
 70
0
 71
3
 72
10
 73
6
 74
4
 40
0.000000
 40
0.000000
 40
0.000000
 40
0.000000
 40
0.593322
 40
1.196415
 40
1.814279
 40
1.814279
 40
1.814279
 40
1.814279
 10
24.008187
 20
62.482826
 30
0.0
 10
23.824527
 20
62.556738
 30
0.0
 10
23.454183
 20
62.705781
 30
0.0
 10
22.859418
 20
62.835657
 30
0.0
 10
22.452329
 20
62.853038
 30
0.0
 10
22.246322
 20
62.861833
 30
0.0
 11
24.008187
 21
62.482826
 31
0.0
 11
23.451829
 21
62.688972
 31
0.0
 11
22.862594
 21
62.817515
 31
0.0
 11
22.246322
 21
62.861833
 31
0.0
  0
LWPOLYLINE
  5
112
100
AcDbEntity
  8
Layer_1
 62
7
100
AcDbPolyline
 90
3
 70
0
 10
20.832100
 20
61.854816
 30
0.0
 10
20.096783
 20
61.430279
 30
0.0
 10
20.310215
 20
61.060704
 30
0.0
  0
SPLINE
  5
113
100
AcDbEntity
  8
Layer_1
 62
7
100
AcDbSpline
 70
0
 71
3
 72
10
 73
6
 74
4
 40
0.000000
 40
0.000000
 40
0.000000
 40
0.000000
 40
0.812920
 40
1.622916
 40
2.440017
 40
2.440017
 40
2.440017
 40
2.440017
 10
20.310215
 20
61.060704
 30
0.0
 10
20.109953
 20
60.876756
 30
0.0
 10
19.710150
 20
60.509521
 30
0.0
 10
19.293279
 20
59.791301
 30
0.0
 10
19.173834
 20
59.260223
 30
0.0
 10
19.113851
 20
58.993525
 30
0.0
 11
20.310215
 21
61.060704
 31
0.0
 11
19.740174
 21
60.481142
 31
0.0
 11
19.333783
 21
59.780470
 31
0.0
 11
19.113851
 21
58.993525
 31
0.0
  0
LWPOLYLINE
  5
114
100
AcDbEntity
  8
Layer_1
 62
7
100
AcDbPolyline
 90
4
 70
0
 10
19.113851
 20
58.993525
 30
0.0
 10
18.689996
 20
58.993525
 30
0.0
 10
18.689996
 20
58.144450
 30
0.0
 10
19.104688
 20
58.144450
 30
0.0
  0
SPLINE
  5
115
100
AcDbEntity
  8
Layer_1
 62
7
100
AcDbSpline
 70
0
 71
3
 72
13
 73
9
 74
7
 40
0.000000
 40
0.000000
 40
0.000000
 40
0.000000
 40
0.091769
 40
0.184029
 40
0.276892
 40
1.029765
 40
1.759331
 40
2.478088
 40
2.478088
 40
2.478088
 40
2.478088
 10
19.104688
 20
58.144450
 30
0.0
 10
19.108615
 20
58.114112
 30
0.0
 10
19.116489
 20
58.053274
 30
0.0
 10
19.131332
 20
57.962158
 30
0.0
 10
19.190753
 20
57.655164
 30
0.0
 10
19.361328
 20
57.153741
 30
0.0
 10
19.746744
 20
56.518436
 30
0.0
 10
20.104687
 20
56.191426
 30
0.0
 10
20.282322
 20
56.029141
 30
0.0
 11
19.104688
 21
58.144450
 31
0.0
 11
19.116963
 21
58.053506
 31
0.0
 11
19.131748
 21
57.962438
 31
0.0
 11
19.149400
 21
57.871268
 31
0.0
 11
19.389398
 21
57.157672
 31
0.0
 11
19.775115
 21
56.538408
 31
0.0
 11
20.282322
 21
56.029141
 31
0.0
  0
LWPOLYLINE
  5
116
100
AcDbEntity
  8
Layer_1
 62
7
100
AcDbPolyline
 90
4
 70
0
 10
20.282322
 20
56.029141
 30
0.0
 10
20.096783
 20
55.707834
 30
0.0
 10
20.832100
 20
55.283296
 30
0.0
 10
21.009027
 20
55.589700
 30
0.0
  0
SPLINE
  5
117
100
AcDbEntity
  8
Layer_1
 62
7
100
AcDbSpline
 70
0
 71
3
 72
13
 73
9
 74
7
 40
0.000000
 40
0.000000
 40
0.000000
 40
0.000000
 40
0.648660
 40
1.307587
 40
1.986625
 40
2.175223
 40
2.361629
 40
2.546126
 40
2.546126
 40
2.546126
 40
2.546126
 10
21.009027
 20
55.589700
 30
0.0
 10
21.212449
 20
55.514246
 30
0.0
 10
21.622514
 20
55.362144
 30
0.0
 10
22.288475
 20
55.296970
 30
0.0
 10
22.798301
 20
55.347802
 30
0.0
 10
23.139903
 20
55.430563
 30
0.0
 10
23.318692
 20
55.484194
 30
0.0
 10
23.434241
 20
55.528265
 30
0.0
 10
23.491718
 20
55.550187
 30
0.0
 11
21.009027
 21
55.589700
 31
0.0
 11
21.626250
 21
55.390213
 31
0.0
 11
22.281327
 21
55.319081
 31
0.0
 11
22.956842
 21
55.388164
 31
0.0
 11
23.140183
 21
55.432379
 31
0.0
 11
23.318551
 21
55.486528
 31
0.0
 11
23.491718
 21
55.550187
 31
0.0
  0
LWPOLYLINE
  5
118
100
AcDbEntity
  8
Layer_1
 62
7
100
AcDbPolyline
 90
4
 70
0
 10
23.491718
 20
55.550187
 30
0.0
 10
23.645811
 20
55.283296
 30
0.0
 10
24.381131
 20
55.707834
 30
0.0
 10
24.230456
 20
55.968707
 30
0.0
  0
SPLINE
  5
119
100
AcDbEntity
  8
Layer_1
 62
7
100
AcDbSpline
 70
0
 71
3
 72
10
 73
6
 74
4
 40
0.000000
 40
0.000000
 40
0.000000
 40
0.000000
 40
0.410779
 40
0.819253
 40
1.226877
 40
1.226877
 40
1.226877
 40
1.226877
 10
24.230456
 20
55.968707
 30
0.0
 10
24.336483
 20
56.055545
 30
0.0
 10
24.547943
 20
56.228733
 30
0.0
 10
24.822477
 20
56.534795
 30
0.0
 10
24.971659
 20
56.762547
 30
0.0
 10
25.046172
 20
56.876305
 30
0.0
 11
24.230456
 21
55.968707
 31
0.0
 11
24.541464
 21
56.237061
 31
0.0
 11
24.814292
 21
56.541061
 31
0.0
 11
25.046172
 21
56.876305
 31
0.0
  0
SPLINE
  5
11a
100
AcDbEntity
  8
Layer_1
 62
7
100
AcDbSpline
 70
0
 71
3
 72
16
 73
12
 74
10
 40
0.000000
 40
0.000000
 40
0.000000
 40
0.000000
 40
0.115431
 40
0.371532
 40
0.690862
 40
0.945604
 40
1.551423
 40
2.270868
 40
2.357819
 40
2.435388
 40
2.509895
 40
2.509895
 40
2.509895
 40
2.509895
 10
26.350959
 20
56.194992
 30
0.0
 10
26.382131
 20
56.218151
 30
0.0
 10
26.482461
 20
56.292689
 30
0.0
 10
26.618036
 20
56.464235
 30
0.0
 10
26.735503
 20
56.812687
 30
0.0
 10
26.280952
 20
56.931940
 30
0.0
 10
25.869728
 20
57.203501
 30
0.0
 10
25.439516
 20
57.421499
 30
0.0
 10
25.163333
 20
57.528099
 30
0.0
 10
25.081587
 20
57.529967
 30
0.0
 10
25.033224
 20
57.514025
 30
0.0
 10
25.009530
 20
57.506214
 30
0.0
 11
26.350959
 21
56.194992
 31
0.0
 11
26.441827
 21
56.266178
 31
0.0
 11
26.599388
 21
56.468074
 31
0.0
 11
26.651077
 21
56.783193
 31
0.0
 11
26.425629
 21
56.901795
 31
0.0
 11
25.887014
 21
57.179124
 31
0.0
 11
25.241828
 21
57.497457
 31
0.0
 11
25.159043
 21
57.524048
 31
0.0
 11
25.081488
 21
57.525534
 31
0.0
 11
25.009530
 21
57.506214
 31
0.0
  0
LWPOLYLINE
  5
11b
100
AcDbEntity
  8
Layer_1
 62
7
100
AcDbPolyline
 90
2
 70
0
 10
25.046172
 20
56.876305
 30
0.0
 10
26.350959
 20
56.194992
 30
0.0
  0
SPLINE
  5
11c
100
AcDbEntity
  8
Layer_1
 62
7
100
AcDbSpline
 70
0
 71
3
 72
13
 73
9
 74
7
 40
0.000000
 40
0.000000
 40
0.000000
 40
0.000000
 40
0.055816
 40
0.100576
 40
0.136539
 40
0.199149
 40
0.257019
 40
0.320439
 40
0.320439
 40
0.320439
 40
0.320439
 10
25.009530
 20
57.506214
 30
0.0
 10
24.990833
 20
57.505237
 30
0.0
 10
24.957143
 20
57.503475
 30
0.0
 10
24.914136
 20
57.486676
 30
0.0
 10
24.873601
 20
57.461323
 30
0.0
 10
24.832683
 20
57.428520
 30
0.0
 10
24.792371
 20
57.382054
 30
0.0
 10
24.769051
 20
57.349021
 30
0.0
 10
24.756858
 20
57.331748
 30
0.0
 11
25.009530
 21
57.506214
 31
0.0
 11
24.954059
 21
57.500013
 31
0.0
 11
24.912164
 21
57.484257
 31
0.0
 11
24.881416
 21
57.465606
 31
0.0
 11
24.832821
 21
57.426127
 31
0.0
 11
24.794331
 21
57.382913
 31
0.0
 11
24.756858
 21
57.331748
 31
0.0
  0
LWPOLYLINE
  5
11d
100
AcDbEntity
  8
Layer_1
 62
7
100
AcDbPolyline
 90
3
 70
0
 10
24.756858
 20
57.331748
 30
0.0
 10
24.749211
 20
57.319842
 30
0.0
 10
24.742385
 20
57.307539
 30
0.0
  0
SPLINE
  5
11e
100
AcDbEntity
  8
Layer_1
 62
7
100
AcDbSpline
 70
0
 71
3
 72
25
 73
21
 74
19
 40
0.000000
 40
0.000000
 40
0.000000
 40
0.000000
 40
0.801827
 40
1.611997
 40
2.452198
 40
3.884855
 40
5.272930
 40
6.705574
 40
8.138269
 40
9.526399
 40
10.959057
 40
12.391863
 40
13.780196
 40
15.212921
 40
15.256122
 40
15.351804
 40
15.468975
 40
15.485818
 40
15.502150
 40
15.518743
 40
15.518743
 40
15.518743
 40
15.518743
 10
24.742385
 20
57.307539
 30
0.0
 10
24.601894
 20
57.077942
 30
0.0
 10
24.319450
 20
56.616361
 30
0.0
 10
23.654284
 20
56.110195
 30
0.0
 10
22.683114
 20
55.740216
 30
0.0
 10
21.401288
 20
55.808762
 30
0.0
 10
20.161837
 20
56.618718
 30
0.0
 10
19.488446
 20
57.942653
 30
0.0
 10
19.570397
 20
59.425742
 30
0.0
 10
20.380330
 20
60.666883
 30
0.0
 10
21.701996
 20
61.339842
 30
0.0
 10
23.194423
 20
61.258180
 30
0.0
 10
24.401771
 20
60.447220
 30
0.0
 10
24.942343
 20
59.559844
 30
0.0
 10
24.978847
 20
59.037032
 30
0.0
 10
24.982490
 20
58.951761
 30
0.0
 10
24.984300
 20
58.875200
 30
0.0
 10
24.984253
 20
58.825084
 30
0.0
 10
24.984195
 20
58.808495
 30
0.0
 10
24.984139
 20
58.797520
 30
0.0
 10
24.984111
 20
58.791989
 30
0.0
 11
24.742385
 21
57.307539
 31
0.0
 11
24.282607
 21
56.650628
 31
0.0
 11
23.645029
 21
56.150760
 31
0.0
 11
22.858829
 21
55.854402
 31
0.0
 11
21.428415
 21
55.934536
 31
0.0
 11
20.265732
 21
56.692771
 31
0.0
 11
19.615660
 21
57.969436
 31
0.0
 11
19.695795
 21
59.399889
 31
0.0
 11
20.454030
 21
60.562637
 31
0.0
 11
21.730694
 21
61.212744
 31
0.0
 11
23.161254
 21
61.132568
 31
0.0
 11
24.324200
 21
60.374262
 31
0.0
 11
24.974409
 21
59.097575
 31
0.0
 11
24.977507
 21
59.054485
 31
0.0
 11
24.981911
 21
58.958905
 31
0.0
 11
24.984251
 21
58.841757
 31
0.0
 11
24.984245
 21
58.824914
 31
0.0
 11
24.984191
 21
58.808582
 31
0.0
 11
24.984111
 21
58.791989
 31
0.0
  0
LWPOLYLINE
  5
11f
100
AcDbEntity
  8
Layer_1
 62
7
100
AcDbPolyline
 90
14
 70
0
 10
24.984111
 20
58.791989
 30
0.0
 10
23.446884
 20
58.793312
 30
0.0
 10
22.650039
 20
59.255724
 30
0.0
 10
22.650039
 20
59.510991
 30
0.0
 10
21.800962
 20
59.510991
 30
0.0
 10
21.800962
 20
58.759540
 30
0.0
 10
22.611346
 20
58.759540
 30
0.0
 10
23.325883
 20
58.345256
 30
0.0
 10
25.036477
 20
58.343933
 30
0.0
 10
25.036477
 20
58.144448
 30
0.0
 10
25.787928
 20
58.144448
 30
0.0
 10
25.787928
 20
58.993525
 30
0.0
 10
25.459784
 20
58.993525
 30
0.0
 10
25.458726
 20
59.004055
 30
0.0
  0
SPLINE
  5
120
100
AcDbEntity
  8
Layer_1
 62
7
100
AcDbSpline
 70
0
 71
3
 72
16
 73
12
 74
10
 40
0.000000
 40
0.000000
 40
0.000000
 40
0.000000
 40
0.029486
 40
0.045192
 40
0.064686
 40
0.097177
 40
0.140038
 40
0.192973
 40
0.991307
 40
1.764360
 40
2.526506
 40
2.526506
 40
2.526506
 40
2.526506
 10
25.458726
 20
59.004055
 30
0.0
 10
25.457607
 20
59.013824
 30
0.0
 10
25.455892
 20
59.028796
 30
0.0
 10
25.455080
 20
59.050361
 30
0.0
 10
25.455954
 20
59.072920
 30
0.0
 10
25.454472
 20
59.104542
 30
0.0
 10
25.449554
 20
59.147055
 30
0.0
 10
25.393872
 20
59.439971
 30
0.0
 10
25.210615
 20
59.955498
 30
0.0
 10
24.788676
 20
60.621625
 30
0.0
 10
24.396213
 20
60.953963
 30
0.0
 10
24.201376
 20
61.118952
 30
0.0
 11
25.458726
 21
59.004055
 31
0.0
 11
25.455858
 21
59.033402
 31
0.0
 11
25.455306
 21
59.049098
 31
0.0
 11
25.455577
 21
59.068590
 31
0.0
 11
25.454316
 21
59.101056
 31
0.0
 11
25.449482
 21
59.143643
 31
0.0
 11
25.440126
 21
59.195746
 31
0.0
 11
25.180185
 21
59.950575
 31
0.0
 11
24.757576
 21
60.597887
 31
0.0
 11
24.201376
 21
61.118952
 31
0.0
  0
LWPOLYLINE
  5
121
100
AcDbEntity
  8
Layer_1
 62
7
100
AcDbPolyline
 90
4
 70
0
 10
24.201376
 20
61.118952
 30
0.0
 10
24.381171
 20
61.430279
 30
0.0
 10
23.645851
 20
61.854816
 30
0.0
 10
23.457576
 20
61.528860
 30
0.0
  0
SPLINE
  5
122
100
AcDbEntity
  8
Layer_1
 62
7
100
AcDbSpline
 70
0
 71
3
 72
16
 73
12
 74
10
 40
0.000000
 40
0.000000
 40
0.000000
 40
0.000000
 40
0.190383
 40
0.381367
 40
0.573082
 40
0.992890
 40
1.419566
 40
1.856159
 40
1.886883
 40
1.917485
 40
1.948058
 40
1.948058
 40
1.948058
 40
1.948058
 10
23.457576
 20
61.528860
 30
0.0
 10
23.398053
 20
61.550918
 30
0.0
 10
23.278819
 20
61.595103
 30
0.0
 10
23.095078
 20
61.648001
 30
0.0
 10
22.834187
 20
61.707511
 30
0.0
 10
22.489760
 20
61.751648
 30
0.0
 10
22.060998
 20
61.748903
 30
0.0
 10
21.764604
 20
61.708265
 30
0.0
 10
21.602581
 20
61.672248
 30
0.0
 10
21.572840
 20
61.664906
 30
0.0
 10
21.553029
 20
61.660074
 30
0.0
 10
21.543128
 20
61.657659
 30
0.0
 11
23.457576
 21
61.528860
 31
0.0
 11
23.278249
 21
61.592795
 31
0.0
 11
23.094886
 21
61.646204
 31
0.0
 11
22.907939
 21
61.688695
 31
0.0
 11
22.491537
 21
61.742059
 31
0.0
 11
22.064866
 21
61.739789
 31
0.0
 11
21.632547
 21
61.678852
 31
0.0
 11
21.602569
 21
61.672123
 31
0.0
 11
21.572827
 21
61.664918
 31
0.0
 11
21.543128
 21
61.657659
 31
0.0
  0
LWPOLYLINE
  5
123
100
AcDbEntity
  8
Layer_1
 62
7
100
AcDbPolyline
 90
3
 70
0
 10
21.543128
 20
61.657659
 30
0.0
 10
21.540482
 20
61.658717
 30
0.0
 10
21.471709
 20
61.640673
 30
0.0
  0
SPLINE
  5
124
100
AcDbEntity
  8
Layer_1
 62
7
100
AcDbSpline
 70
0
 71
3
 72
10
 73
6
 74
4
 40
0.000000
 40
0.000000
 40
0.000000
 40
0.000000
 40
0.153193
 40
0.305033
 40
0.455685
 40
0.455685
 40
0.455685
 40
0.455685
 10
21.471709
 20
61.640673
 30
0.0
 10
21.422526
 20
61.626917
 30
0.0
 10
21.324593
 20
61.599526
 30
0.0
 10
21.180811
 20
61.550198
 30
0.0
 10
21.087401
 20
61.512202
 30
0.0
 10
21.040880
 20
61.493279
 30
0.0
 11
21.471709
 21
61.640673
 31
0.0
 11
21.324584
 21
61.597985
 31
0.0
 11
21.180949
 21
61.548746
 31
0.0
 11
21.040880
 21
61.493279
 31
0.0
  0
LWPOLYLINE
  5
125
100
AcDbEntity
  8
Layer_1
 62
7
100
AcDbPolyline
 90
2
 70
0
 10
21.040880
 20
61.493279
 30
0.0
 10
20.832100
 20
61.854816
 30
0.0
  0
SPLINE
  5
126
100
AcDbEntity
  8
Layer_1
 62
7
100
AcDbSpline
 70
0
 71
3
 72
10
 73
6
 74
4
 40
0.000000
 40
0.000000
 40
0.000000
 40
0.000000
 40
0.617864
 40
1.220957
 40
1.814281
 40
1.814281
 40
1.814281
 40
1.814281
 10
33.432200
 20
62.861675
 30
0.0
 10
33.226192
 20
62.852879
 30
0.0
 10
32.819103
 20
62.835498
 30
0.0
 10
32.224337
 20
62.705622
 30
0.0
 10
31.853992
 20
62.556580
 30
0.0
 10
31.670331
 20
62.482667
 30
0.0
 11
33.432200
 21
62.861675
 31
0.0
 11
32.815927
 21
62.817356
 31
0.0
 11
32.226692
 21
62.688814
 31
0.0
 11
31.670331
 21
62.482667
 31
0.0
  0
LWPOLYLINE
  5
127
100
AcDbEntity
  8
Layer_1
 62
7
100
AcDbPolyline
 90
5
 70
0
 10
31.670331
 20
62.482667
 30
0.0
 10
31.551242
 20
62.688989
 30
0.0
 10
31.342732
 20
62.764051
 30
0.0
 10
30.731291
 20
62.411023
 30
0.0
 10
30.934739
 20
62.058678
 30
0.0
  0
SPLINE
  5
128
100
AcDbEntity
  8
Layer_1
 62
7
100
AcDbSpline
 70
0
 71
3
 72
10
 73
6
 74
4
 40
0.000000
 40
0.000000
 40
0.000000
 40
0.000000
 40
1.198322
 40
2.403777
 40
3.640060
 40
3.640060
 40
3.640060
 40
3.640060
 10
30.934739
 20
62.058678
 30
0.0
 10
30.629175
 20
61.798838
 30
0.0
 10
30.016226
 20
61.277612
 30
0.0
 10
29.384303
 20
60.204539
 30
0.0
 10
29.233592
 20
59.400579
 30
0.0
 10
29.157284
 20
58.993525
 30
0.0
 11
30.934739
 21
62.058678
 31
0.0
 11
30.066667
 21
61.232588
 31
0.0
 11
29.456236
 21
60.193118
 31
0.0
 11
29.157284
 21
58.993525
 31
0.0
  0
LWPOLYLINE
  5
129
100
AcDbEntity
  8
Layer_1
 62
7
100
AcDbPolyline
 90
19
 70
0
 10
29.157284
 20
58.993525
 30
0.0
 10
28.927311
 20
58.993525
 30
0.0
 10
28.758179
 20
58.850509
 30
0.0
 10
28.758179
 20
58.144450
 30
0.0
 10
29.306319
 20
58.144450
 30
0.0
 10
29.484201
 20
57.704324
 30
0.0
 10
32.712877
 20
57.705911
 30
0.0
 10
33.102960
 20
57.708028
 30
0.0
 10
33.171596
 20
57.626811
 30
0.0
 10
33.877657
 20
57.626811
 30
0.0
 10
33.877657
 20
58.417908
 30
0.0
 10
33.028580
 20
58.417908
 30
0.0
 10
33.028580
 20
57.997061
 30
0.0
 10
32.711919
 20
57.995209
 30
0.0
 10
29.679037
 20
57.993622
 30
0.0
 10
29.549283
 20
58.314519
 30
0.0
 10
29.549283
 20
58.409134
 30
0.0
 10
29.551400
 20
58.409134
 30
0.0
 10
29.551400
 20
58.565140
 30
0.0
  0
SPLINE
  5
12a
100
AcDbEntity
  8
Layer_1
 62
7
100
AcDbSpline
 70
0
 71
3
 72
22
 73
18
 74
16
 40
0.000000
 40
0.000000
 40
0.000000
 40
0.000000
 40
2.030033
 40
3.998244
 40
6.028281
 40
8.058213
 40
10.026284
 40
12.056289
 40
14.086158
 40
16.054042
 40
18.083937
 40
19.022218
 40
19.929472
 40
20.823168
 40
20.921905
 40
21.001215
 40
21.073391
 40
21.073391
 40
21.073391
 40
21.073391
 10
29.551400
 20
58.565140
 30
0.0
 10
29.657763
 20
59.249647
 30
0.0
 10
29.867251
 20
60.597814
 30
0.0
 10
31.412662
 20
62.082412
 30
0.0
 10
33.428675
 20
62.630610
 30
0.0
 10
35.465773
 20
62.082433
 30
0.0
 10
36.948967
 20
60.597765
 30
0.0
 10
37.497473
 20
58.565137
 30
0.0
 10
36.948764
 20
56.532867
 30
0.0
 10
35.466617
 20
55.047469
 30
0.0
 10
33.794827
 20
54.601792
 30
0.0
 10
32.502247
 20
54.758822
 30
0.0
 10
31.639359
 20
55.082582
 30
0.0
 10
31.109132
 20
55.440833
 30
0.0
 10
30.840922
 20
55.676484
 30
0.0
 10
30.781774
 20
55.735785
 30
0.0
 10
30.753277
 20
55.777590
 30
0.0
 10
30.739699
 20
55.797509
 30
0.0
 11
29.551400
 21
58.565140
 31
0.0
 11
30.080719
 21
60.524950
 31
0.0
 11
31.472454
 21
61.916686
 31
0.0
 11
33.432268
 21
62.446006
 31
0.0
 11
35.391973
 21
61.916686
 31
0.0
 11
36.783511
 21
60.524950
 31
0.0
 11
37.312724
 21
58.565140
 31
0.0
 11
36.783511
 21
56.605472
 31
0.0
 11
35.391973
 21
55.214001
 31
0.0
 11
33.432268
 21
54.684822
 31
0.0
 11
32.500733
 21
54.797132
 31
0.0
 11
31.651495
 21
55.116356
 31
0.0
 11
30.910472
 21
55.615933
 31
0.0
 11
30.836820
 21
55.681693
 31
0.0
 11
30.782091
 21
55.739094
 31
0.0
 11
30.739699
 21
55.797509
 31
0.0
  0
LWPOLYLINE
  5
12b
100
AcDbEntity
  8
Layer_1
 62
7
100
AcDbPolyline
 90
4
 70
0
 10
30.739699
 20
55.797509
 30
0.0
 10
30.828155
 20
55.848512
 30
0.0
 10
30.481966
 20
56.448196
 30
0.0
 10
29.612791
 20
55.946271
 30
0.0
  0
SPLINE
  5
12c
100
AcDbEntity
  8
Layer_1
 62
7
100
AcDbSpline
 70
0
 71
3
 72
10
 73
6
 74
4
 40
0.000000
 40
0.000000
 40
0.000000
 40
0.000000
 40
0.324364
 40
0.598784
 40
0.725534
 40
0.725534
 40
0.725534
 40
0.725534
 10
29.612791
 20
55.946271
 30
0.0
 10
29.621120
 20
55.834959
 30
0.0
 10
29.636495
 20
55.629475
 30
0.0
 10
29.814702
 20
55.446040
 30
0.0
 10
29.924342
 20
55.370568
 30
0.0
 10
29.958982
 20
55.346722
 30
0.0
 11
29.612791
 21
55.946271
 31
0.0
 11
29.676424
 21
55.628210
 31
0.0
 11
29.856169
 21
55.420850
 31
0.0
 11
29.958982
 21
55.346722
 31
0.0
  0
LWPOLYLINE
  5
12d
100
AcDbEntity
  8
Layer_1
 62
7
100
AcDbPolyline
 90
2
 70
0
 10
29.958982
 20
55.346722
 30
0.0
 10
30.352212
 20
55.573690
 30
0.0
  0
SPLINE
  5
12e
100
AcDbEntity
  8
Layer_1
 62
7
100
AcDbSpline
 70
0
 71
3
 72
10
 73
6
 74
4
 40
0.000000
 40
0.000000
 40
0.000000
 40
0.000000
 40
0.255143
 40
0.510403
 40
0.766023
 40
0.766023
 40
0.766023
 40
0.766023
 10
30.352212
 20
55.573690
 30
0.0
 10
30.412571
 20
55.513750
 30
0.0
 10
30.533316
 20
55.393844
 30
0.0
 10
30.727130
 20
55.227151
 30
0.0
 10
30.863724
 20
55.125406
 30
0.0
 10
30.932070
 20
55.074498
 30
0.0
 11
30.352212
 21
55.573690
 31
0.0
 11
30.535386
 21
55.396080
 31
0.0
 11
30.728870
 21
55.229582
 31
0.0
 11
30.932070
 21
55.074498
 31
0.0
  0
LWPOLYLINE
  5
12f
100
AcDbEntity
  8
Layer_1
 62
7
100
AcDbPolyline
 90
5
 70
0
 10
30.932070
 20
55.074498
 30
0.0
 10
30.815854
 20
54.873372
 30
0.0
 10
30.855229
 20
54.655292
 30
0.0
 10
31.466674
 20
54.302264
 30
0.0
 10
31.667114
 20
54.649413
 30
0.0
  0
SPLINE
  5
130
100
AcDbEntity
  8
Layer_1
 62
7
100
AcDbSpline
 70
0
 71
3
 72
13
 73
9
 74
7
 40
0.000000
 40
0.000000
 40
0.000000
 40
0.000000
 40
0.594507
 40
1.198808
 40
1.817919
 40
2.441576
 40
3.050235
 40
3.648980
 40
3.648980
 40
3.648980
 40
3.648980
 10
31.667114
 20
54.649413
 30
0.0
 10
31.851074
 20
54.574863
 30
0.0
 10
32.222023
 20
54.424536
 30
0.0
 10
32.817934
 20
54.299035
 30
0.0
 10
33.433781
 20
54.253336
 30
0.0
 10
34.051085
 20
54.299470
 30
0.0
 10
34.651159
 20
54.426759
 30
0.0
 10
35.024371
 20
54.579166
 30
0.0
 10
35.209446
 20
54.654744
 30
0.0
 11
31.667114
 21
54.649413
 31
0.0
 11
32.224407
 21
54.442381
 31
0.0
 11
32.814757
 21
54.313279
 31
0.0
 11
33.432266
 21
54.268765
 31
0.0
 11
34.054286
 21
54.313920
 31
0.0
 11
34.648696
 21
54.444849
 31
0.0
 11
35.209446
 21
54.654744
 31
0.0
  0
LWPOLYLINE
  5
131
100
AcDbEntity
  8
Layer_1
 62
7
100
AcDbPolyline
 90
5
 70
0
 10
35.209446
 20
54.654744
 30
0.0
 10
35.328262
 20
54.448835
 30
0.0
 10
35.536635
 20
54.373770
 30
0.0
 10
36.148079
 20
54.726801
 30
0.0
 10
35.943257
 20
55.081607
 30
0.0
  0
SPLINE
  5
132
100
AcDbEntity
  8
Layer_1
 62
7
100
AcDbSpline
 70
0
 71
3
 72
10
 73
6
 74
4
 40
0.000000
 40
0.000000
 40
0.000000
 40
0.000000
 40
1.194950
 40
2.397225
 40
3.630485
 40
3.630485
 40
3.630485
 40
3.630485
 10
35.943257
 20
55.081607
 30
0.0
 10
36.246985
 20
55.341849
 30
0.0
 10
36.856302
 20
55.863928
 30
0.0
 10
37.483307
 20
56.935904
 30
0.0
 10
37.632016
 20
57.738097
 30
0.0
 10
37.707316
 20
58.144297
 30
0.0
 11
35.943257
 21
55.081607
 31
0.0
 11
36.805913
 21
55.908487
 31
0.0
 11
37.411694
 21
56.946993
 31
0.0
 11
37.707316
 21
58.144297
 31
0.0
  0
LWPOLYLINE
  5
133
100
AcDbEntity
  8
Layer_1
 62
7
100
AcDbPolyline
 90
5
 70
0
 10
37.707316
 20
58.144297
 30
0.0
 10
37.952056
 20
58.144297
 30
0.0
 10
38.121188
 20
58.287315
 30
0.0
 10
38.121188
 20
58.993374
 30
0.0
 10
37.706766
 20
58.993374
 30
0.0
  0
SPLINE
  5
134
100
AcDbEntity
  8
Layer_1
 62
7
100
AcDbSpline
 70
0
 71
3
 72
10
 73
6
 74
4
 40
0.000000
 40
0.000000
 40
0.000000
 40
0.000000
 40
1.231857
 40
2.432972
 40
3.626831
 40
3.626831
 40
3.626831
 40
3.626831
 10
37.706766
 20
58.993374
 30
0.0
 10
37.630883
 20
59.398983
 30
0.0
 10
37.481012
 20
60.200078
 30
0.0
 10
36.853288
 20
61.270107
 30
0.0
 10
36.244075
 20
61.791136
 30
0.0
 10
35.940391
 20
62.050862
 30
0.0
 11
37.706766
 21
58.993374
 31
0.0
 11
37.409588
 21
60.188848
 31
0.0
 11
36.803063
 21
61.225575
 31
0.0
 11
35.940391
 21
62.050862
 31
0.0
  0
LWPOLYLINE
  5
135
100
AcDbEntity
  8
Layer_1
 62
7
100
AcDbPolyline
 90
5
 70
0
 10
35.940391
 20
62.050862
 30
0.0
 10
36.063584
 20
62.264293
 30
0.0
 10
36.024341
 20
62.482373
 30
0.0
 10
35.412762
 20
62.835402
 30
0.0
 10
35.206030
 20
62.477177
 30
0.0
  0
LWPOLYLINE
  5
136
100
AcDbEntity
  8
Layer_1
 62
7
100
AcDbPolyline
 90
2
 70
0
 10
33.432202
 20
62.861513
 30
0.0
 10
33.432200
 20
62.861675
 30
0.0
  0
SPLINE
  5
137
100
AcDbEntity
  8
Layer_1
 62
7
100
AcDbSpline
 70
0
 71
3
 72
10
 73
6
 74
4
 40
0.000000
 40
0.000000
 40
0.000000
 40
0.000000
 40
0.597563
 40
1.204993
 40
1.827358
 40
1.827358
 40
1.827358
 40
1.827358
 10
35.206030
 20
62.477177
 30
0.0
 10
35.021257
 20
62.552122
 30
0.0
 10
34.648662
 20
62.703250
 30
0.0
 10
34.049748
 20
62.834966
 30
0.0
 10
33.639711
 20
62.852593
 30
0.0
 10
33.432202
 20
62.861513
 30
0.0
 11
35.206030
 21
62.477177
 31
0.0
 11
34.646219
 21
62.686207
 31
0.0
 11
34.052941
 21
62.816564
 31
0.0
 11
33.432202
 21
62.861513
 31
0.0
  0
LWPOLYLINE
  5
138
100
AcDbEntity
  8
Layer_1
 62
7
100
AcDbPolyline
 90
3
 70
0
 10
32.032795
 20
61.854816
 30
0.0
 10
31.297478
 20
61.430141
 30
0.0
 10
31.477273
 20
61.118814
 30
0.0
  0
SPLINE
  5
139
100
AcDbEntity
  8
Layer_1
 62
7
100
AcDbSpline
 70
0
 71
3
 72
16
 73
12
 74
10
 40
0.000000
 40
0.000000
 40
0.000000
 40
0.000000
 40
0.762116
 40
1.535123
 40
2.333412
 40
2.386348
 40
2.429208
 40
2.461699
 40
2.481191
 40
2.496897
 40
2.526386
 40
2.526386
 40
2.526386
 40
2.526386
 10
31.477273
 20
61.118814
 30
0.0
 10
31.282442
 20
60.953834
 30
0.0
 10
30.889997
 20
60.621516
 30
0.0
 10
30.468040
 20
59.955452
 30
0.0
 10
30.284767
 20
59.439961
 30
0.0
 10
30.229098
 20
59.147054
 30
0.0
 10
30.224197
 20
59.104540
 30
0.0
 10
30.222692
 20
59.072921
 30
0.0
 10
30.223578
 20
59.050362
 30
0.0
 10
30.222727
 20
59.028797
 30
0.0
 10
30.221031
 20
59.013823
 30
0.0
 10
30.219925
 20
59.004052
 30
0.0
 11
31.477273
 21
61.118814
 31
0.0
 11
30.921087
 21
60.597778
 31
0.0
 11
30.498470
 21
59.950527
 31
0.0
 11
30.238525
 21
59.195746
 31
0.0
 11
30.229175
 21
59.143642
 31
0.0
 11
30.224346
 21
59.101056
 31
0.0
 11
30.223074
 21
59.068590
 31
0.0
 11
30.223344
 21
59.049099
 31
0.0
 11
30.222775
 21
59.033403
 31
0.0
 11
30.219925
 21
59.004052
 31
0.0
  0
LWPOLYLINE
  5
13a
100
AcDbEntity
  8
Layer_1
 62
7
100
AcDbPolyline
 90
14
 70
0
 10
30.219925
 20
59.004052
 30
0.0
 10
30.218867
 20
58.993522
 30
0.0
 10
29.890723
 20
58.993522
 30
0.0
 10
29.890723
 20
58.144448
 30
0.0
 10
30.642174
 20
58.144448
 30
0.0
 10
30.642174
 20
58.343933
 30
0.0
 10
32.352768
 20
58.345256
 30
0.0
 10
33.067305
 20
58.759538
 30
0.0
 10
33.877689
 20
58.759538
 30
0.0
 10
33.877689
 20
59.510986
 30
0.0
 10
33.028612
 20
59.510986
 30
0.0
 10
33.028612
 20
59.255716
 30
0.0
 10
32.231767
 20
58.793306
 30
0.0
 10
30.694543
 20
58.791984
 30
0.0
  0
SPLINE
  5
13b
100
AcDbEntity
  8
Layer_1
 62
7
100
AcDbSpline
 70
0
 71
3
 72
25
 73
21
 74
19
 40
0.000000
 40
0.000000
 40
0.000000
 40
0.000000
 40
0.016594
 40
0.032924
 40
0.049768
 40
0.166936
 40
0.262614
 40
0.305819
 40
1.738546
 40
3.126880
 40
4.559685
 40
5.992343
 40
7.380473
 40
8.813168
 40
10.245810
 40
11.633885
 40
13.066542
 40
13.906743
 40
14.716912
 40
15.518738
 40
15.518738
 40
15.518738
 40
15.518738
 10
30.694543
 20
58.791984
 30
0.0
 10
30.694519
 20
58.797515
 30
0.0
 10
30.694473
 20
58.808489
 30
0.0
 10
30.694420
 20
58.825079
 30
0.0
 10
30.694310
 20
58.875193
 30
0.0
 10
30.696195
 20
58.951752
 30
0.0
 10
30.699813
 20
59.037021
 30
0.0
 10
30.736256
 20
59.559840
 30
0.0
 10
31.276907
 20
60.447211
 30
0.0
 10
32.484224
 20
61.258176
 30
0.0
 10
33.976660
 20
61.339837
 30
0.0
 10
35.298323
 20
60.666877
 30
0.0
 10
36.108257
 20
59.425736
 30
0.0
 10
36.190208
 20
57.942648
 30
0.0
 10
35.516817
 20
56.618713
 30
0.0
 10
34.277365
 20
55.808759
 30
0.0
 10
32.995540
 20
55.740213
 30
0.0
 10
32.024370
 20
56.110192
 30
0.0
 10
31.359204
 20
56.616356
 30
0.0
 10
31.076760
 20
57.077937
 30
0.0
 10
30.936269
 20
57.307533
 30
0.0
 11
30.694543
 21
58.791984
 31
0.0
 11
30.694476
 21
58.808578
 31
0.0
 11
30.694424
 21
58.824907
 31
0.0
 11
30.694402
 21
58.841752
 31
0.0
 11
30.696753
 21
58.958896
 31
0.0
 11
30.701152
 21
59.054472
 31
0.0
 11
30.704245
 21
59.097567
 31
0.0
 11
31.354455
 21
60.374255
 31
0.0
 11
32.517400
 21
61.132563
 31
0.0
 11
33.947960
 21
61.212738
 31
0.0
 11
35.224624
 21
60.562631
 31
0.0
 11
35.982859
 21
59.399882
 31
0.0
 11
36.062994
 21
57.969431
 31
0.0
 11
35.412922
 21
56.692767
 31
0.0
 11
34.250239
 21
55.934533
 31
0.0
 11
32.819824
 21
55.854399
 31
0.0
 11
32.033625
 21
56.150756
 31
0.0
 11
31.396046
 21
56.650624
 31
0.0
 11
30.936269
 21
57.307533
 31
0.0
  0
SPLINE
  5
13c
100
AcDbEntity
  8
Layer_1
 62
7
100
AcDbSpline
 70
0
 71
3
 72
13
 73
9
 74
7
 40
0.000000
 40
0.000000
 40
0.000000
 40
0.000000
 40
0.063420
 40
0.121291
 40
0.183902
 40
0.219879
 40
0.264647
 40
0.320457
 40
0.320457
 40
0.320457
 40
0.320457
 10
30.921796
 20
57.331743
 30
0.0
 10
30.909602
 20
57.349015
 30
0.0
 10
30.886282
 20
57.382048
 30
0.0
 10
30.845972
 20
57.428518
 30
0.0
 10
30.805039
 20
57.461309
 30
0.0
 10
30.764521
 20
57.486701
 30
0.0
 10
30.721517
 20
57.503542
 30
0.0
 10
30.687822
 20
57.505257
 30
0.0
 10
30.669124
 20
57.506209
 30
0.0
 11
30.921796
 21
57.331743
 31
0.0
 11
30.884323
 21
57.382907
 31
0.0
 11
30.845832
 21
57.426122
 31
0.0
 11
30.797235
 21
57.465601
 31
0.0
 11
30.766488
 21
57.484282
 31
0.0
 11
30.724594
 21
57.500063
 31
0.0
 11
30.669124
 21
57.506209
 31
0.0
  0
LWPOLYLINE
  5
13d
100
AcDbEntity
  8
Layer_1
 62
7
100
AcDbPolyline
 90
3
 70
0
 10
30.936269
 20
57.307533
 30
0.0
 10
30.929575
 20
57.319837
 30
0.0
 10
30.921796
 20
57.331743
 30
0.0
  0
SPLINE
  5
13e
100
AcDbEntity
  8
Layer_1
 62
7
100
AcDbSpline
 70
0
 71
3
 72
16
 73
12
 74
10
 40
0.000000
 40
0.000000
 40
0.000000
 40
0.000000
 40
0.074510
 40
0.152079
 40
0.239030
 40
0.958475
 40
1.564293
 40
1.819034
 40
2.138364
 40
2.394464
 40
2.509894
 40
2.509894
 40
2.509894
 40
2.509894
 10
30.669124
 20
57.506209
 30
0.0
 10
30.645429
 20
57.514021
 30
0.0
 10
30.597067
 20
57.529966
 30
0.0
 10
30.515319
 20
57.528100
 30
0.0
 10
30.239143
 20
57.421477
 30
0.0
 10
29.808923
 20
57.203502
 30
0.0
 10
29.397701
 20
56.931935
 30
0.0
 10
28.943152
 20
56.812681
 30
0.0
 10
29.060618
 20
56.464230
 30
0.0
 10
29.196191
 20
56.292684
 30
0.0
 10
29.296521
 20
56.218145
 30
0.0
 10
29.327692
 20
56.194987
 30
0.0
 11
30.669124
 21
57.506209
 31
0.0
 11
30.597164
 21
57.525533
 31
0.0
 11
30.519609
 21
57.524047
 31
0.0
 11
30.436825
 21
57.497451
 31
0.0
 11
29.791639
 21
57.179118
 31
0.0
 11
29.253025
 21
56.901790
 31
0.0
 11
29.027578
 21
56.783187
 31
0.0
 11
29.079265
 21
56.468069
 31
0.0
 11
29.236825
 21
56.266172
 31
0.0
 11
29.327692
 21
56.194987
 31
0.0
  0
LWPOLYLINE
  5
13f
100
AcDbEntity
  8
Layer_1
 62
7
100
AcDbPolyline
 90
2
 70
0
 10
29.327692
 20
56.194987
 30
0.0
 10
30.632479
 20
56.876300
 30
0.0
  0
SPLINE
  5
140
100
AcDbEntity
  8
Layer_1
 62
7
100
AcDbSpline
 70
0
 71
3
 72
10
 73
6
 74
4
 40
0.000000
 40
0.000000
 40
0.000000
 40
0.000000
 40
0.407624
 40
0.816098
 40
1.226876
 40
1.226876
 40
1.226876
 40
1.226876
 10
30.632479
 20
56.876300
 30
0.0
 10
30.706993
 20
56.762542
 30
0.0
 10
30.856174
 20
56.534790
 30
0.0
 10
31.130709
 20
56.228728
 30
0.0
 10
31.342168
 20
56.055540
 30
0.0
 10
31.448195
 20
55.968702
 30
0.0
 11
30.632479
 21
56.876300
 31
0.0
 11
30.864360
 21
56.541056
 31
0.0
 11
31.137188
 21
56.237056
 31
0.0
 11
31.448195
 21
55.968702
 31
0.0
  0
LWPOLYLINE
  5
141
100
AcDbEntity
  8
Layer_1
 62
7
100
AcDbPolyline
 90
4
 70
0
 10
31.448195
 20
55.968702
 30
0.0
 10
31.297523
 20
55.707828
 30
0.0
 10
32.032840
 20
55.283291
 30
0.0
 10
32.186933
 20
55.550182
 30
0.0
  0
SPLINE
  5
142
100
AcDbEntity
  8
Layer_1
 62
7
100
AcDbSpline
 70
0
 71
3
 72
13
 73
9
 74
7
 40
0.000000
 40
0.000000
 40
0.000000
 40
0.000000
 40
0.184498
 40
0.370903
 40
0.559501
 40
1.238532
 40
1.897468
 40
2.546123
 40
2.546123
 40
2.546123
 40
2.546123
 10
32.186933
 20
55.550182
 30
0.0
 10
32.244410
 20
55.528259
 30
0.0
 10
32.359959
 20
55.484188
 30
0.0
 10
32.538748
 20
55.430558
 30
0.0
 10
32.880348
 20
55.347796
 30
0.0
 10
33.390176
 20
55.296972
 30
0.0
 10
34.056134
 20
55.362151
 30
0.0
 10
34.466202
 20
55.514245
 30
0.0
 10
34.669624
 20
55.589694
 30
0.0
 11
32.186933
 21
55.550182
 31
0.0
 11
32.360100
 21
55.486523
 31
0.0
 11
32.538468
 21
55.432374
 31
0.0
 11
32.721809
 21
55.388159
 31
0.0
 11
33.397318
 21
55.319083
 31
0.0
 11
34.052403
 21
55.390218
 31
0.0
 11
34.669624
 21
55.589694
 31
0.0
  0
LWPOLYLINE
  5
143
100
AcDbEntity
  8
Layer_1
 62
7
100
AcDbPolyline
 90
4
 70
0
 10
34.669624
 20
55.589694
 30
0.0
 10
34.846551
 20
55.283153
 30
0.0
 10
35.581870
 20
55.707828
 30
0.0
 10
35.396331
 20
56.029136
 30
0.0
  0
SPLINE
  5
144
100
AcDbEntity
  8
Layer_1
 62
7
100
AcDbSpline
 70
0
 71
3
 72
13
 73
9
 74
7
 40
0.000000
 40
0.000000
 40
0.000000
 40
0.000000
 40
0.718757
 40
1.448323
 40
2.201196
 40
2.294058
 40
2.386318
 40
2.478085
 40
2.478085
 40
2.478085
 40
2.478085
 10
35.396331
 20
56.029136
 30
0.0
 10
35.573967
 20
56.191420
 30
0.0
 10
35.931910
 20
56.518430
 30
0.0
 10
36.317325
 20
57.153736
 30
0.0
 10
36.487903
 20
57.655158
 30
0.0
 10
36.547321
 20
57.962152
 30
0.0
 10
36.562155
 20
58.053268
 30
0.0
 10
36.570034
 20
58.114105
 30
0.0
 10
36.573963
 20
58.144442
 30
0.0
 11
35.396331
 21
56.029136
 31
0.0
 11
35.903539
 21
56.538402
 31
0.0
 11
36.289256
 21
57.157667
 31
0.0
 11
36.529253
 21
57.871263
 31
0.0
 11
36.546904
 21
57.962432
 31
0.0
 11
36.561683
 21
58.053500
 31
0.0
 11
36.573963
 21
58.144442
 31
0.0
  0
LWPOLYLINE
  5
145
100
AcDbEntity
  8
Layer_1
 62
7
100
AcDbPolyline
 90
4
 70
0
 10
36.573963
 20
58.144442
 30
0.0
 10
36.988655
 20
58.144442
 30
0.0
 10
36.988655
 20
58.993525
 30
0.0
 10
36.564808
 20
58.993525
 30
0.0
  0
SPLINE
  5
146
100
AcDbEntity
  8
Layer_1
 62
7
100
AcDbSpline
 70
0
 71
3
 72
10
 73
6
 74
4
 40
0.000000
 40
0.000000
 40
0.000000
 40
0.000000
 40
0.817078
 40
1.627056
 40
2.439942
 40
2.439942
 40
2.439942
 40
2.439942
 10
36.564808
 20
58.993525
 30
0.0
 10
36.504830
 20
59.260216
 30
0.0
 10
36.385394
 20
59.791280
 30
0.0
 10
35.968592
 20
60.509508
 30
0.0
 10
35.568821
 20
60.876752
 30
0.0
 10
35.368577
 20
61.060704
 30
0.0
 11
36.564808
 21
58.993525
 31
0.0
 11
36.344900
 21
59.780454
 31
0.0
 11
35.938562
 21
60.481134
 31
0.0
 11
35.368577
 21
61.060704
 31
0.0
  0
LWPOLYLINE
  5
147
100
AcDbEntity
  8
Layer_1
 62
7
100
AcDbPolyline
 90
4
 70
0
 10
35.368577
 20
61.060704
 30
0.0
 10
35.581873
 20
61.430141
 30
0.0
 10
34.846554
 20
61.854678
 30
0.0
 10
34.637771
 20
61.493035
 30
0.0
  0
SPLINE
  5
148
100
AcDbEntity
  8
Layer_1
 62
7
100
AcDbSpline
 70
0
 71
3
 72
10
 73
6
 74
4
 40
0.000000
 40
0.000000
 40
0.000000
 40
0.000000
 40
0.150700
 40
0.302565
 40
0.455772
 40
0.455772
 40
0.455772
 40
0.455772
 10
34.637771
 20
61.493035
 30
0.0
 10
34.591236
 20
61.511967
 30
0.0
 10
34.497806
 20
61.549978
 30
0.0
 10
34.354022
 20
61.599388
 30
0.0
 10
34.256081
 20
61.626797
 30
0.0
 10
34.206894
 20
61.640562
 30
0.0
 11
34.637771
 21
61.493035
 31
0.0
 11
34.497665
 21
61.548539
 31
0.0
 11
34.354024
 21
61.597839
 31
0.0
 11
34.206894
 21
61.640562
 31
0.0
  0
LWPOLYLINE
  5
149
100
AcDbEntity
  8
Layer_1
 62
7
100
AcDbPolyline
 90
3
 70
0
 10
34.206894
 20
61.640562
 30
0.0
 10
34.138259
 20
61.658606
 30
0.0
 10
34.135534
 20
61.657548
 30
0.0
  0
LWPOLYLINE
  5
14a
100
AcDbEntity
  8
Layer_1
 62
7
100
AcDbPolyline
 90
2
 70
0
 10
32.221080
 20
61.528614
 30
0.0
 10
32.032795
 20
61.854816
 30
0.0
  0
SPLINE
  5
14b
100
AcDbEntity
  8
Layer_1
 62
7
100
AcDbSpline
 70
0
 71
3
 72
16
 73
12
 74
10
 40
0.000000
 40
0.000000
 40
0.000000
 40
0.000000
 40
0.030573
 40
0.061175
 40
0.091899
 40
0.528493
 40
0.955169
 40
1.374977
 40
1.566713
 40
1.757692
 40
1.948102
 40
1.948102
 40
1.948102
 40
1.948102
 10
34.135534
 20
61.657548
 30
0.0
 10
34.125633
 20
61.659963
 30
0.0
 10
34.105822
 20
61.664795
 30
0.0
 10
34.076080
 20
61.672137
 30
0.0
 10
33.914057
 20
61.708154
 30
0.0
 10
33.617663
 20
61.748798
 30
0.0
 10
33.188902
 20
61.751535
 30
0.0
 10
32.844465
 20
61.707411
 30
0.0
 10
32.583575
 20
61.647867
 30
0.0
 10
32.399841
 20
61.594892
 30
0.0
 10
32.280608
 20
61.550685
 30
0.0
 10
32.221080
 20
61.528614
 30
0.0
 11
34.135534
 21
61.657548
 31
0.0
 11
34.105835
 21
61.664806
 31
0.0
 11
34.076093
 21
61.672012
 31
0.0
 11
34.046115
 21
61.678741
 31
0.0
 11
33.613795
 21
61.739681
 31
0.0
 11
33.187125
 21
61.741951
 31
0.0
 11
32.770723
 21
61.688584
 31
0.0
 11
32.583762
 21
61.646059
 31
0.0
 11
32.400419
 21
61.592594
 31
0.0
 11
32.221080
 21
61.528614
 31
0.0
  0
LWPOLYLINE
  5
14c
100
AcDbEntity
  8
Layer_1
 62
7
100
AcDbPolyline
 90
4
 70
1
 10
38.629765
 20
66.135573
 30
0.0
 10
41.243186
 20
66.135573
 30
0.0
 10
41.243186
 20
63.522152
 30
0.0
 10
38.629765
 20
63.522152
 30
0.0
  0
ENDSEC
  0
SECTION
  2
OBJECTS
  0
DICTIONARY
  5
C
330
0
100
AcDbDictionary
  3
ACAD_GROUP
350
D
  3
ACAD_MLINESTYLE
350
17
  0
DICTIONARY
  5
D
330
C
100
AcDbDictionary
  0
DICTIONARY
  5
1A
330
C
100
AcDbDictionary
  0
DICTIONARY
  5
17
330
C
100
AcDbDictionary
  3
STANDARD
350
18
  0
DICTIONARY
  5
19
330
C
100
AcDbDictionary
  0
ENDSEC
  0
EOF
