  0
SECTION
  2
HEADER
  9
$ACADVER
  1
AC1014
  9
$HANDSEED
  5
FFFF
  9
$MEASUREMENT
 70
     1
  0
ENDSEC
  0
SECTION
  2
TABLES
  0
TABLE
  2
VPORT
  5
8
330
0
100
AcDbSymbolTable
 70
     4
  0
VPORT
  5
2E
330
8
100
AcDbSymbolTableRecord
100
AcDbViewportTableRecord
  2
*ACTIVE
 70
     0
 10
0.0
 20
0.0
 11
1.0
 21
1.0
 12
210.0
 22
148.5
 13
0.0
 23
0.0
 14
10.0
 24
10.0
 15
10.0
 25
10.0
 16
0.0
 26
0.0
 36
1.0
 17
0.0
 27
0.0
 37
0.0
 40
341.0
 41
1.24
 42
50.0
 43
0.0
 44
0.0
 50
0.0
 51
0.0
 71
     0
 72
   100
 73
     1
 74
     3
 75
     0
 76
     0
 77
     0
 78
     0
  0
ENDTAB
  0
TABLE
  2
LTYPE
  5
5
330
0
100
AcDbSymbolTable
 70
     1
  0
LTYPE
  5
14
330
5
100
AcDbSymbolTableRecord
100
AcDbLinetypeTableRecord
  2
BYBLOCK
 70
     0
  3

 72
    65
 73
     0
 40
0.0
  0
LTYPE
  5
15
330
5
100
AcDbSymbolTableRecord
100
AcDbLinetypeTableRecord
  2
BYLAYER
 70
     0
  3

 72
    65
 73
     0
 40
0.0
  0
LTYPE
  5
16
330
5
100
AcDbSymbolTableRecord
100
AcDbLinetypeTableRecord
  2
CONTINUOUS
 70
     0
  3
Solid line
 72
    65
 73
     0
 40
0.0
  0
ENDTAB
  0
TABLE
  2
LAYER
  5
2
100
AcDbSymbolTable
 70
2
  0
LAYER
  5
50
100
AcDbSymbolTableRecord
100
AcDbLayerTableRecord
  2
0
 70
0
  6
CONTINUOUS
  0
LAYER
  5
51
100
AcDbSymbolTableRecord
100
AcDbLayerTableRecord
  2
Layer_1
 70
0
  6
CONTINUOUS
  0
ENDTAB
  0
TABLE
  2
STYLE
  5
3
330
0
100
AcDbSymbolTable
 70
     1
  0
STYLE
  5
11
330
3
100
AcDbSymbolTableRecord
100
AcDbTextStyleTableRecord
  2
STANDARD
 70
     0
 40
0.0
 41
1.0
 50
0.0
 71
     0
 42
2.5
  3
txt
  4

  0
ENDTAB
  0
TABLE
  2
VIEW
  5
6
330
0
100
AcDbSymbolTable
 70
     0
  0
ENDTAB
  0
TABLE
  2
UCS
  5
7
330
0
100
AcDbSymbolTable
 70
     0
  0
ENDTAB
  0
TABLE
  2
APPID
  5
9
330
0
100
AcDbSymbolTable
 70
     2
  0
APPID
  5
12
330
9
100
AcDbSymbolTableRecord
100
AcDbRegAppTableRecord
  2
ACAD
 70
     0
  0
ENDTAB
  0
TABLE
  2
DIMSTYLE
  5
A
330
0
100
AcDbSymbolTable
 70
     1
  0
DIMSTYLE
105
27
330
A
100
AcDbSymbolTableRecord
100
AcDbDimStyleTableRecord
  2
ISO-25
 70
     0
  3

  4

  5

  6

  7

 40
1.0
 41
2.5
 42
0.625
 43
3.75
 44
1.25
 45
0.0
 46
0.0
 47
0.0
 48
0.0
140
2.5
141
2.5
142
0.0
143
0.03937007874016
144
1.0
145
0.0
146
1.0
147
0.625
 71
     0
 72
     0
 73
     0
 74
     0
 75
     0
 76
     0
 77
     1
 78
     8
170
     0
171
     3
172
     1
173
     0
174
     0
175
     0
176
     0
177
     0
178
     0
270
     2
271
     2
272
     2
273
     2
274
     3
340
11
275
     0
280
     0
281
     0
282
     0
283
     0
284
     8
285
     0
286
     0
287
     3
288
     0
  0
ENDTAB
  0
TABLE
  2
BLOCK_RECORD
  5
1
330
0
100
AcDbSymbolTable
 70
     1
  0
BLOCK_RECORD
  5
1F
330
1
100
AcDbSymbolTableRecord
100
AcDbBlockTableRecord
  2
*MODEL_SPACE
  0
BLOCK_RECORD
  5
1B
330
1
100
AcDbSymbolTableRecord
100
AcDbBlockTableRecord
  2
*PAPER_SPACE
  0
ENDTAB
  0
ENDSEC
  0
SECTION
  2
BLOCKS
  0
BLOCK
  5
20
330
1F
100
AcDbEntity
  8
0
100
AcDbBlockBegin
  2
*MODEL_SPACE
 70
     0
 10
0.0
 20
0.0
 30
0.0
  3
*MODEL_SPACE
  1

  0
ENDBLK
  5
21
330
1F
100
AcDbEntity
  8
0
100
AcDbBlockEnd
  0
BLOCK
  5
1C
330
1B
100
AcDbEntity
 67
     1
  8
0
100
AcDbBlockBegin
  2
*PAPER_SPACE
  1

  0
ENDBLK
  5
1D
330
1B
100
AcDbEntity
 67
     1
  8
0
100
AcDbBlockEnd
  0
ENDSEC
  0
SECTION
  2
ENTITIES
  0
SPLINE
  5
100
100
AcDbEntity
  8
Layer_1
 62
7
100
AcDbSpline
 70
8
 71
3
 72
8
 73
4
 74
0
 40
0
 40
0
 40
0
 40
0
 40
1
 40
1
 40
1
 40
1
 10
0.875570
 20
2.475016
 30
0.0
 10
0.850798
 20
2.474976
 30
0.0
 10
0.827299
 20
2.469545
 30
0.0
 10
0.806092
 20
2.459920
 30
0.0
  0
LWPOLYLINE
  5
101
100
AcDbEntity
  8
Layer_1
 62
7
100
AcDbPolyline
 90
1
 70
1
 10
0.875549
 20
2.475037
 30
0.0
  0
SPLINE
  5
102
100
AcDbEntity
  8
Layer_1
 62
7
100
AcDbSpline
 70
8
 71
3
 72
8
 73
4
 74
0
 40
0
 40
0
 40
0
 40
0
 40
1
 40
1
 40
1
 40
1
 10
0.776876
 20
2.442993
 30
0.0
 10
0.738641
 20
2.415356
 30
0.0
 10
0.712393
 20
2.372178
 30
0.0
 10
0.707438
 20
2.322754
 30
0.0
  0
LWPOLYLINE
  5
103
100
AcDbEntity
  8
Layer_1
 62
7
100
AcDbPolyline
 90
5
 70
0
 10
0.806092
 20
2.459920
 30
0.0
 10
0.801310
 20
2.468221
 30
0.0
 10
0.792969
 20
2.471212
 30
0.0
 10
0.768697
 20
2.457194
 30
0.0
 10
0.776876
 20
2.442993
 30
0.0
  0
SPLINE
  5
104
100
AcDbEntity
  8
Layer_1
 62
7
100
AcDbSpline
 70
8
 71
3
 72
8
 73
4
 74
0
 40
0
 40
0
 40
0
 40
0
 40
1
 40
1
 40
1
 40
1
 10
0.707418
 20
2.288981
 30
0.0
 10
0.712294
 20
2.239490
 30
0.0
 10
0.738512
 20
2.196233
 30
0.0
 10
0.776754
 20
2.168538
 30
0.0
  0
LWPOLYLINE
  5
105
100
AcDbEntity
  8
Layer_1
 62
7
100
AcDbPolyline
 90
5
 70
0
 10
0.707438
 20
2.322754
 30
0.0
 10
0.697835
 20
2.322754
 30
0.0
 10
0.691081
 20
2.317017
 30
0.0
 10
0.691081
 20
2.288981
 30
0.0
 10
0.707418
 20
2.288981
 30
0.0
  0
SPLINE
  5
106
100
AcDbEntity
  8
Layer_1
 62
7
100
AcDbSpline
 70
8
 71
3
 72
8
 73
4
 74
0
 40
0
 40
0
 40
0
 40
0
 40
1
 40
1
 40
1
 40
1
 10
0.805949
 20
2.151571
 30
0.0
 10
0.827269
 20
2.141871
 30
0.0
 10
0.850909
 20
2.136414
 30
0.0
 10
0.875834
 20
2.136414
 30
0.0
  0
SPLINE
  5
107
100
AcDbEntity
  8
Layer_1
 62
7
100
AcDbSpline
 70
8
 71
3
 72
8
 73
4
 74
0
 40
0
 40
0
 40
0
 40
0
 40
1
 40
1
 40
1
 40
1
 10
0.875834
 20
2.136414
 30
0.0
 10
0.900577
 20
2.136414
 30
0.0
 10
0.924072
 20
2.141796
 30
0.0
 10
0.945272
 20
2.151367
 30
0.0
  0
LWPOLYLINE
  5
108
100
AcDbEntity
  8
Layer_1
 62
7
100
AcDbPolyline
 90
5
 70
0
 10
0.776754
 20
2.168538
 30
0.0
 10
0.772074
 20
2.160400
 30
0.0
 10
0.773641
 20
2.151693
 30
0.0
 10
0.797933
 20
2.137655
 30
0.0
 10
0.805949
 20
2.151571
 30
0.0
  0
SPLINE
  5
109
100
AcDbEntity
  8
Layer_1
 62
7
100
AcDbSpline
 70
8
 71
3
 72
8
 73
4
 74
0
 40
0
 40
0
 40
0
 40
0
 40
1
 40
1
 40
1
 40
1
 10
0.974487
 20
2.168254
 30
0.0
 10
0.982594
 20
2.174087
 30
0.0
 10
0.990185
 20
2.180604
 30
0.0
 10
0.997131
 20
2.187744
 30
0.0
  0
LWPOLYLINE
  5
10a
100
AcDbEntity
  8
Layer_1
 62
7
100
AcDbPolyline
 90
5
 70
0
 10
0.945272
 20
2.151367
 30
0.0
 10
0.949788
 20
2.143534
 30
0.0
 10
0.958130
 20
2.140523
 30
0.0
 10
0.982402
 20
2.154541
 30
0.0
 10
0.974487
 20
2.168254
 30
0.0
  0
SPLINE
  5
10b
100
AcDbEntity
  8
Layer_1
 62
7
100
AcDbSpline
 70
8
 71
3
 72
8
 73
4
 74
0
 40
0
 40
0
 40
0
 40
0
 40
1
 40
1
 40
1
 40
1
 10
1.012675
 20
2.178874
 30
0.0
 10
1.012675
 20
2.178874
 30
0.0
 10
1.016670
 20
2.181182
 30
0.0
 10
1.020386
 20
2.185303
 30
0.0
  0
SPLINE
  5
10c
100
AcDbEntity
  8
Layer_1
 62
7
100
AcDbSpline
 70
8
 71
3
 72
8
 73
4
 74
0
 40
0
 40
0
 40
0
 40
0
 40
1
 40
1
 40
1
 40
1
 10
1.020386
 20
2.185303
 30
0.0
 10
1.024101
 20
2.189425
 30
0.0
 10
1.027555
 20
2.195370
 30
0.0
 10
1.026387
 20
2.202637
 30
0.0
  0
LWPOLYLINE
  5
10d
100
AcDbEntity
  8
Layer_1
 62
7
100
AcDbPolyline
 90
3
 70
0
 10
0.997131
 20
2.187744
 30
0.0
 10
1.012594
 20
2.178813
 30
0.0
 10
1.012675
 20
2.178874
 30
0.0
  0
SPLINE
  5
10e
100
AcDbEntity
  8
Layer_1
 62
7
100
AcDbSpline
 70
8
 71
3
 72
8
 73
4
 74
0
 40
0
 40
0
 40
0
 40
0
 40
1
 40
1
 40
1
 40
1
 10
0.981587
 20
2.196717
 30
0.0
 10
0.980101
 20
2.194358
 30
0.0
 10
0.978311
 20
2.192561
 30
0.0
 10
0.975016
 20
2.189738
 30
0.0
  0
SPLINE
  5
10f
100
AcDbEntity
  8
Layer_1
 62
7
100
AcDbSpline
 70
8
 71
3
 72
8
 73
4
 74
0
 40
0
 40
0
 40
0
 40
0
 40
1
 40
1
 40
1
 40
1
 10
0.975016
 20
2.189738
 30
0.0
 10
0.948341
 20
2.166893
 30
0.0
 10
0.913748
 20
2.153117
 30
0.0
 10
0.875834
 20
2.153117
 30
0.0
  0
SPLINE
  5
110
100
AcDbEntity
  8
Layer_1
 62
7
100
AcDbSpline
 70
8
 71
3
 72
8
 73
4
 74
0
 40
0
 40
0
 40
0
 40
0
 40
1
 40
1
 40
1
 40
1
 10
0.875834
 20
2.153117
 30
0.0
 10
0.791445
 20
2.153117
 30
0.0
 10
0.723225
 20
2.221338
 30
0.0
 10
0.723225
 20
2.305725
 30
0.0
  0
SPLINE
  5
111
100
AcDbEntity
  8
Layer_1
 62
7
100
AcDbSpline
 70
8
 71
3
 72
8
 73
4
 74
0
 40
0
 40
0
 40
0
 40
0
 40
1
 40
1
 40
1
 40
1
 10
0.723225
 20
2.305725
 30
0.0
 10
0.723225
 20
2.308363
 30
0.0
 10
0.723292
 20
2.310975
 30
0.0
 10
0.723429
 20
2.313579
 30
0.0
  0
SPLINE
  5
112
100
AcDbEntity
  8
Layer_1
 62
7
100
AcDbSpline
 70
8
 71
3
 72
8
 73
4
 74
0
 40
0
 40
0
 40
0
 40
0
 40
1
 40
1
 40
1
 40
1
 10
0.723429
 20
2.313579
 30
0.0
 10
0.727510
 20
2.394301
 30
0.0
 10
0.794083
 20
2.458354
 30
0.0
 10
0.875834
 20
2.458354
 30
0.0
  0
SPLINE
  5
113
100
AcDbEntity
  8
Layer_1
 62
7
100
AcDbSpline
 70
8
 71
3
 72
8
 73
4
 74
0
 40
0
 40
0
 40
0
 40
0
 40
1
 40
1
 40
1
 40
1
 10
0.875834
 20
2.458354
 30
0.0
 10
0.960221
 20
2.458354
 30
0.0
 10
1.028462
 20
2.390113
 30
0.0
 10
1.028462
 20
2.305725
 30
0.0
  0
LWPOLYLINE
  5
114
100
AcDbEntity
  8
Layer_1
 62
7
100
AcDbPolyline
 90
5
 70
0
 10
1.026387
 20
2.202637
 30
0.0
 10
1.026367
 20
2.202718
 30
0.0
 10
0.991943
 20
2.222596
 30
0.0
 10
0.978128
 20
2.198710
 30
0.0
 10
0.981587
 20
2.196717
 30
0.0
  0
SPLINE
  5
115
100
AcDbEntity
  8
Layer_1
 62
7
100
AcDbSpline
 70
8
 71
3
 72
8
 73
4
 74
0
 40
0
 40
0
 40
0
 40
0
 40
1
 40
1
 40
1
 40
1
 10
1.044290
 20
2.322754
 30
0.0
 10
1.039323
 20
2.372367
 30
0.0
 10
1.012856
 20
2.415670
 30
0.0
 10
0.974386
 20
2.443298
 30
0.0
  0
LWPOLYLINE
  5
116
100
AcDbEntity
  8
Layer_1
 62
7
100
AcDbPolyline
 90
19
 70
0
 10
1.028462
 20
2.305725
 30
0.0
 10
1.028462
 20
2.299418
 30
0.0
 10
1.028543
 20
2.299418
 30
0.0
 10
1.028543
 20
2.295899
 30
0.0
 10
1.023498
 20
2.283387
 30
0.0
 10
0.904194
 20
2.283448
 30
0.0
 10
0.891906
 20
2.283529
 30
0.0
 10
0.891906
 20
2.300090
 30
0.0
 10
0.858133
 20
2.300090
 30
0.0
 10
0.858133
 20
2.268616
 30
0.0
 10
0.886169
 20
2.268616
 30
0.0
 10
0.888875
 20
2.271810
 30
0.0
 10
0.904154
 20
2.271729
 30
0.0
 10
1.031392
 20
2.271668
 30
0.0
 10
1.038390
 20
2.288981
 30
0.0
 10
1.053263
 20
2.288981
 30
0.0
 10
1.060017
 20
2.294719
 30
0.0
 10
1.060017
 20
2.322754
 30
0.0
 10
1.044290
 20
2.322754
 30
0.0
  0
SPLINE
  5
117
100
AcDbEntity
  8
Layer_1
 62
7
100
AcDbSpline
 70
8
 71
3
 72
8
 73
4
 74
0
 40
0
 40
0
 40
0
 40
0
 40
1
 40
1
 40
1
 40
1
 10
0.945129
 20
2.460144
 30
0.0
 10
0.923964
 20
2.469672
 30
0.0
 10
0.900525
 20
2.475037
 30
0.0
 10
0.875834
 20
2.475037
 30
0.0
  0
LWPOLYLINE
  5
118
100
AcDbEntity
  8
Layer_1
 62
7
100
AcDbPolyline
 90
5
 70
0
 10
0.974386
 20
2.443298
 30
0.0
 10
0.979024
 20
2.451335
 30
0.0
 10
0.977458
 20
2.460063
 30
0.0
 10
0.953166
 20
2.474080
 30
0.0
 10
0.945129
 20
2.460144
 30
0.0
  0
SPLINE
  5
119
100
AcDbEntity
  8
Layer_1
 62
7
100
AcDbSpline
 70
8
 71
3
 72
8
 73
4
 74
0
 40
0
 40
0
 40
0
 40
0
 40
1
 40
1
 40
1
 40
1
 10
1.316226
 20
2.475038
 30
0.0
 10
1.291535
 20
2.475038
 30
0.0
 10
1.268091
 20
2.469672
 30
0.0
 10
1.246925
 20
2.460143
 30
0.0
  0
LWPOLYLINE
  5
11a
100
AcDbEntity
  8
Layer_1
 62
7
100
AcDbPolyline
 90
2
 70
0
 10
0.875834
 20
2.475037
 30
0.0
 10
0.875549
 20
2.475037
 30
0.0
  0
SPLINE
  5
11b
100
AcDbEntity
  8
Layer_1
 62
7
100
AcDbSpline
 70
8
 71
3
 72
8
 73
4
 74
0
 40
0
 40
0
 40
0
 40
0
 40
1
 40
1
 40
1
 40
1
 10
1.217691
 20
2.443300
 30
0.0
 10
1.179226
 20
2.415676
 30
0.0
 10
1.152783
 20
2.372357
 30
0.0
 10
1.147809
 20
2.322754
 30
0.0
  0
LWPOLYLINE
  5
11c
100
AcDbEntity
  8
Layer_1
 62
7
100
AcDbPolyline
 90
5
 70
0
 10
1.246925
 20
2.460143
 30
0.0
 10
1.242291
 20
2.468201
 30
0.0
 10
1.233947
 20
2.471210
 30
0.0
 10
1.209654
 20
2.457193
 30
0.0
 10
1.217691
 20
2.443300
 30
0.0
  0
SPLINE
  5
11d
100
AcDbEntity
  8
Layer_1
 62
7
100
AcDbSpline
 70
8
 71
3
 72
8
 73
4
 74
0
 40
0
 40
0
 40
0
 40
0
 40
1
 40
1
 40
1
 40
1
 10
1.163619
 20
2.305706
 30
0.0
 10
1.163617
 20
2.390094
 30
0.0
 10
1.231838
 20
2.458334
 30
0.0
 10
1.316226
 20
2.458334
 30
0.0
  0
SPLINE
  5
11e
100
AcDbEntity
  8
Layer_1
 62
7
100
AcDbSpline
 70
8
 71
3
 72
8
 73
4
 74
0
 40
0
 40
0
 40
0
 40
0
 40
1
 40
1
 40
1
 40
1
 10
1.316226
 20
2.458334
 30
0.0
 10
1.400614
 20
2.458334
 30
0.0
 10
1.468833
 20
2.390094
 30
0.0
 10
1.468833
 20
2.305706
 30
0.0
  0
SPLINE
  5
11f
100
AcDbEntity
  8
Layer_1
 62
7
100
AcDbSpline
 70
8
 71
3
 72
8
 73
4
 74
0
 40
0
 40
0
 40
0
 40
0
 40
1
 40
1
 40
1
 40
1
 10
1.468833
 20
2.305706
 30
0.0
 10
1.468833
 20
2.221318
 30
0.0
 10
1.400614
 20
2.153115
 30
0.0
 10
1.316226
 20
2.153115
 30
0.0
  0
SPLINE
  5
120
100
AcDbEntity
  8
Layer_1
 62
7
100
AcDbSpline
 70
8
 71
3
 72
8
 73
4
 74
0
 40
0
 40
0
 40
0
 40
0
 40
1
 40
1
 40
1
 40
1
 10
1.316226
 20
2.153115
 30
0.0
 10
1.278312
 20
2.153115
 30
0.0
 10
1.243736
 20
2.166890
 30
0.0
 10
1.217061
 20
2.189735
 30
0.0
  0
SPLINE
  5
121
100
AcDbEntity
  8
Layer_1
 62
7
100
AcDbSpline
 70
8
 71
3
 72
8
 73
4
 74
0
 40
0
 40
0
 40
0
 40
0
 40
1
 40
1
 40
1
 40
1
 10
1.217061
 20
2.189735
 30
0.0
 10
1.213765
 20
2.192558
 30
0.0
 10
1.211974
 20
2.194358
 30
0.0
 10
1.210488
 20
2.196717
 30
0.0
  0
LWPOLYLINE
  5
122
100
AcDbEntity
  8
Layer_1
 62
7
100
AcDbPolyline
 90
19
 70
0
 10
1.147809
 20
2.322754
 30
0.0
 10
1.138814
 20
2.322754
 30
0.0
 10
1.132037
 20
2.317016
 30
0.0
 10
1.132037
 20
2.288981
 30
0.0
 10
1.153687
 20
2.288981
 30
0.0
 10
1.160685
 20
2.271648
 30
0.0
 10
1.287900
 20
2.271729
 30
0.0
 10
1.303183
 20
2.271809
 30
0.0
 10
1.305890
 20
2.268596
 30
0.0
 10
1.333925
 20
2.268596
 30
0.0
 10
1.333925
 20
2.300092
 30
0.0
 10
1.300168
 20
2.300092
 30
0.0
 10
1.300168
 20
2.283507
 30
0.0
 10
1.287863
 20
2.283447
 30
0.0
 10
1.168576
 20
2.283383
 30
0.0
 10
1.163533
 20
2.295877
 30
0.0
 10
1.163533
 20
2.299397
 30
0.0
 10
1.163619
 20
2.299397
 30
0.0
 10
1.163619
 20
2.305706
 30
0.0
  0
SPLINE
  5
123
100
AcDbEntity
  8
Layer_1
 62
7
100
AcDbSpline
 70
8
 71
3
 72
8
 73
4
 74
0
 40
0
 40
0
 40
0
 40
0
 40
1
 40
1
 40
1
 40
1
 10
1.165691
 20
2.202638
 30
0.0
 10
1.164524
 20
2.195371
 30
0.0
 10
1.167956
 20
2.189427
 30
0.0
 10
1.171672
 20
2.185305
 30
0.0
  0
SPLINE
  5
124
100
AcDbEntity
  8
Layer_1
 62
7
100
AcDbSpline
 70
8
 71
3
 72
8
 73
4
 74
0
 40
0
 40
0
 40
0
 40
0
 40
1
 40
1
 40
1
 40
1
 10
1.171672
 20
2.185305
 30
0.0
 10
1.175387
 20
2.181184
 30
0.0
 10
1.179401
 20
2.178851
 30
0.0
 10
1.179401
 20
2.178851
 30
0.0
  0
LWPOLYLINE
  5
125
100
AcDbEntity
  8
Layer_1
 62
7
100
AcDbPolyline
 90
5
 70
0
 10
1.210488
 20
2.196717
 30
0.0
 10
1.213928
 20
2.198687
 30
0.0
 10
1.200137
 20
2.222593
 30
0.0
 10
1.165713
 20
2.202719
 30
0.0
 10
1.165691
 20
2.202638
 30
0.0
  0
SPLINE
  5
126
100
AcDbEntity
  8
Layer_1
 62
7
100
AcDbSpline
 70
8
 71
3
 72
8
 73
4
 74
0
 40
0
 40
0
 40
0
 40
0
 40
1
 40
1
 40
1
 40
1
 10
1.194948
 20
2.187744
 30
0.0
 10
1.201894
 20
2.180604
 30
0.0
 10
1.209465
 20
2.174086
 30
0.0
 10
1.217572
 20
2.168252
 30
0.0
  0
LWPOLYLINE
  5
127
100
AcDbEntity
  8
Layer_1
 62
7
100
AcDbPolyline
 90
3
 70
0
 10
1.179401
 20
2.178851
 30
0.0
 10
1.179488
 20
2.178813
 30
0.0
 10
1.194948
 20
2.187744
 30
0.0
  0
SPLINE
  5
128
100
AcDbEntity
  8
Layer_1
 62
7
100
AcDbSpline
 70
8
 71
3
 72
8
 73
4
 74
0
 40
0
 40
0
 40
0
 40
0
 40
1
 40
1
 40
1
 40
1
 10
1.246828
 20
2.151350
 30
0.0
 10
1.268021
 20
2.141787
 30
0.0
 10
1.291494
 20
2.136396
 30
0.0
 10
1.316226
 20
2.136396
 30
0.0
  0
SPLINE
  5
129
100
AcDbEntity
  8
Layer_1
 62
7
100
AcDbSpline
 70
8
 71
3
 72
8
 73
4
 74
0
 40
0
 40
0
 40
0
 40
0
 40
1
 40
1
 40
1
 40
1
 10
1.316226
 20
2.136396
 30
0.0
 10
1.341142
 20
2.136396
 30
0.0
 10
1.364792
 20
2.141855
 30
0.0
 10
1.386107
 20
2.151549
 30
0.0
  0
LWPOLYLINE
  5
12a
100
AcDbEntity
  8
Layer_1
 62
7
100
AcDbPolyline
 90
5
 70
0
 10
1.217572
 20
2.168252
 30
0.0
 10
1.213056
 20
2.160398
 30
0.0
 10
1.214622
 20
2.151673
 30
0.0
 10
1.238916
 20
2.137655
 30
0.0
 10
1.246828
 20
2.151350
 30
0.0
  0
SPLINE
  5
12b
100
AcDbEntity
  8
Layer_1
 62
7
100
AcDbSpline
 70
8
 71
3
 72
8
 73
4
 74
0
 40
0
 40
0
 40
0
 40
0
 40
1
 40
1
 40
1
 40
1
 10
1.415304
 20
2.168559
 30
0.0
 10
1.453548
 20
2.196258
 30
0.0
 10
1.479810
 20
2.239483
 30
0.0
 10
1.484680
 20
2.288981
 30
0.0
  0
LWPOLYLINE
  5
12c
100
AcDbEntity
  8
Layer_1
 62
7
100
AcDbPolyline
 90
5
 70
0
 10
1.386107
 20
2.151549
 30
0.0
 10
1.390769
 20
2.143512
 30
0.0
 10
1.399091
 20
2.140524
 30
0.0
 10
1.423384
 20
2.154542
 30
0.0
 10
1.415304
 20
2.168559
 30
0.0
  0
SPLINE
  5
12d
100
AcDbEntity
  8
Layer_1
 62
7
100
AcDbSpline
 70
8
 71
3
 72
8
 73
4
 74
0
 40
0
 40
0
 40
0
 40
0
 40
1
 40
1
 40
1
 40
1
 10
1.484664
 20
2.322732
 30
0.0
 10
1.479715
 20
2.372169
 30
0.0
 10
1.453425
 20
2.415330
 30
0.0
 10
1.415181
 20
2.442971
 30
0.0
  0
LWPOLYLINE
  5
12e
100
AcDbEntity
  8
Layer_1
 62
7
100
AcDbPolyline
 90
5
 70
0
 10
1.484680
 20
2.288981
 30
0.0
 10
1.494246
 20
2.288981
 30
0.0
 10
1.500996
 20
2.294698
 30
0.0
 10
1.500996
 20
2.322732
 30
0.0
 10
1.484664
 20
2.322732
 30
0.0
  0
SPLINE
  5
12f
100
AcDbEntity
  8
Layer_1
 62
7
100
AcDbSpline
 70
8
 71
3
 72
8
 73
4
 74
0
 40
0
 40
0
 40
0
 40
0
 40
1
 40
1
 40
1
 40
1
 10
1.385989
 20
2.459922
 30
0.0
 10
1.364748
 20
2.469562
 30
0.0
 10
1.341198
 20
2.474992
 30
0.0
 10
1.316387
 20
2.475016
 30
0.0
  0
LWPOLYLINE
  5
130
100
AcDbEntity
  8
Layer_1
 62
7
100
AcDbPolyline
 90
5
 70
0
 10
1.415181
 20
2.442971
 30
0.0
 10
1.420004
 20
2.451315
 30
0.0
 10
1.418437
 20
2.460041
 30
0.0
 10
1.394144
 20
2.474058
 30
0.0
 10
1.385989
 20
2.459922
 30
0.0
  0
SPLINE
  5
131
100
AcDbEntity
  8
Layer_1
 62
7
100
AcDbSpline
 70
8
 71
3
 72
8
 73
4
 74
0
 40
0
 40
0
 40
0
 40
0
 40
1
 40
1
 40
1
 40
1
 10
0.875835
 20
2.474709
 30
0.0
 10
0.850959
 20
2.474709
 30
0.0
 10
0.827371
 20
2.469274
 30
0.0
 10
0.806093
 20
2.459594
 30
0.0
  0
LWPOLYLINE
  5
132
100
AcDbEntity
  8
Layer_1
 62
7
100
AcDbPolyline
 90
4
 70
0
 10
1.316387
 20
2.475016
 30
0.0
 10
1.316387
 20
2.475038
 30
0.0
 10
1.316226
 20
2.475038
 30
0.0
 10
1.316226
 20
2.475038
 30
0.0
  0
SPLINE
  5
133
100
AcDbEntity
  8
Layer_1
 62
7
100
AcDbSpline
 70
8
 71
3
 72
8
 73
4
 74
0
 40
0
 40
0
 40
0
 40
0
 40
1
 40
1
 40
1
 40
1
 10
0.777203
 20
2.442832
 30
0.0
 10
0.738929
 20
2.415221
 30
0.0
 10
0.712633
 20
2.372024
 30
0.0
 10
0.707725
 20
2.322571
 30
0.0
  0
LWPOLYLINE
  5
134
100
AcDbEntity
  8
Layer_1
 62
7
100
AcDbPolyline
 90
7
 70
0
 10
0.806093
 20
2.459594
 30
0.0
 10
0.805948
 20
2.459513
 30
0.0
 10
0.801087
 20
2.467938
 30
0.0
 10
0.793013
 20
2.470844
 30
0.0
 10
0.769144
 20
2.457069
 30
0.0
 10
0.777327
 20
2.442912
 30
0.0
 10
0.777203
 20
2.442832
 30
0.0
  0
SPLINE
  5
135
100
AcDbEntity
  8
Layer_1
 62
7
100
AcDbSpline
 70
8
 71
3
 72
8
 73
4
 74
0
 40
0
 40
0
 40
0
 40
0
 40
1
 40
1
 40
1
 40
1
 10
0.707703
 20
2.289164
 30
0.0
 10
0.712532
 20
2.239644
 30
0.0
 10
0.738798
 20
2.196367
 30
0.0
 10
0.777079
 20
2.168699
 30
0.0
  0
LWPOLYLINE
  5
136
100
AcDbEntity
  8
Layer_1
 62
7
100
AcDbPolyline
 90
7
 70
0
 10
0.707725
 20
2.322571
 30
0.0
 10
0.707703
 20
2.322409
 30
0.0
 10
0.697955
 20
2.322409
 30
0.0
 10
0.691404
 20
2.316876
 30
0.0
 10
0.691404
 20
2.289326
 30
0.0
 10
0.707682
 20
2.289326
 30
0.0
 10
0.707703
 20
2.289164
 30
0.0
  0
SPLINE
  5
137
100
AcDbEntity
  8
Layer_1
 62
7
100
AcDbSpline
 70
8
 71
3
 72
8
 73
4
 74
0
 40
0
 40
0
 40
0
 40
0
 40
1
 40
1
 40
1
 40
1
 10
0.805948
 20
2.151915
 30
0.0
 10
0.827261
 20
2.142196
 30
0.0
 10
0.850907
 20
2.136740
 30
0.0
 10
0.875835
 20
2.136740
 30
0.0
  0
SPLINE
  5
138
100
AcDbEntity
  8
Layer_1
 62
7
100
AcDbSpline
 70
8
 71
3
 72
8
 73
4
 74
0
 40
0
 40
0
 40
0
 40
0
 40
1
 40
1
 40
1
 40
1
 10
0.875835
 20
2.136740
 30
0.0
 10
0.900582
 20
2.136740
 30
0.0
 10
0.924076
 20
2.142120
 30
0.0
 10
0.945270
 20
2.151710
 30
0.0
  0
LWPOLYLINE
  5
139
100
AcDbEntity
  8
Layer_1
 62
7
100
AcDbPolyline
 90
7
 70
0
 10
0.777079
 20
2.168699
 30
0.0
 10
0.777203
 20
2.168618
 30
0.0
 10
0.772423
 20
2.160339
 30
0.0
 10
0.773946
 20
2.151899
 30
0.0
 10
0.797809
 20
2.138124
 30
0.0
 10
0.805808
 20
2.151979
 30
0.0
 10
0.805948
 20
2.151915
 30
0.0
  0
SPLINE
  5
13a
100
AcDbEntity
  8
Layer_1
 62
7
100
AcDbSpline
 70
8
 71
3
 72
8
 73
4
 74
0
 40
0
 40
0
 40
0
 40
0
 40
1
 40
1
 40
1
 40
1
 10
0.974181
 20
2.168435
 30
0.0
 10
0.982357
 20
2.174307
 30
0.0
 10
0.989995
 20
2.180872
 30
0.0
 10
0.996989
 20
2.188072
 30
0.0
  0
LWPOLYLINE
  5
13b
100
AcDbEntity
  8
Layer_1
 62
7
100
AcDbPolyline
 90
7
 70
0
 10
0.945270
 20
2.151710
 30
0.0
 10
0.945415
 20
2.151775
 30
0.0
 10
0.950012
 20
2.143797
 30
0.0
 10
0.958092
 20
2.140890
 30
0.0
 10
0.981954
 20
2.154665
 30
0.0
 10
0.974058
 20
2.168333
 30
0.0
 10
0.974181
 20
2.168435
 30
0.0
  0
SPLINE
  5
13c
100
AcDbEntity
  8
Layer_1
 62
7
100
AcDbSpline
 70
8
 71
3
 72
8
 73
4
 74
0
 40
0
 40
0
 40
0
 40
0
 40
1
 40
1
 40
1
 40
1
 10
1.012573
 20
2.179217
 30
0.0
 10
1.012640
 20
2.179256
 30
0.0
 10
1.016496
 20
2.181482
 30
0.0
 10
1.020141
 20
2.185526
 30
0.0
  0
SPLINE
  5
13d
100
AcDbEntity
  8
Layer_1
 62
7
100
AcDbSpline
 70
8
 71
3
 72
8
 73
4
 74
0
 40
0
 40
0
 40
0
 40
0
 40
1
 40
1
 40
1
 40
1
 10
1.020141
 20
2.185526
 30
0.0
 10
1.023806
 20
2.189591
 30
0.0
 10
1.027130
 20
2.195433
 30
0.0
 10
1.026019
 20
2.202536
 30
0.0
  0
LWPOLYLINE
  5
13e
100
AcDbEntity
  8
Layer_1
 62
7
100
AcDbPolyline
 90
3
 70
0
 10
0.996989
 20
2.188072
 30
0.0
 10
0.997070
 20
2.188153
 30
0.0
 10
1.012573
 20
2.179217
 30
0.0
  0
SPLINE
  5
13f
100
AcDbEntity
  8
Layer_1
 62
7
100
AcDbSpline
 70
8
 71
3
 72
8
 73
4
 74
0
 40
0
 40
0
 40
0
 40
0
 40
1
 40
1
 40
1
 40
1
 10
0.981992
 20
2.196674
 30
0.0
 10
0.980467
 20
2.194211
 30
0.0
 10
0.978604
 20
2.192351
 30
0.0
 10
0.975242
 20
2.189472
 30
0.0
  0
SPLINE
  5
140
100
AcDbEntity
  8
Layer_1
 62
7
100
AcDbSpline
 70
8
 71
3
 72
8
 73
4
 74
0
 40
0
 40
0
 40
0
 40
0
 40
1
 40
1
 40
1
 40
1
 10
0.975242
 20
2.189472
 30
0.0
 10
0.948509
 20
2.166577
 30
0.0
 10
0.913830
 20
2.152792
 30
0.0
 10
0.875835
 20
2.152792
 30
0.0
  0
SPLINE
  5
141
100
AcDbEntity
  8
Layer_1
 62
7
100
AcDbSpline
 70
8
 71
3
 72
8
 73
4
 74
0
 40
0
 40
0
 40
0
 40
0
 40
1
 40
1
 40
1
 40
1
 10
0.875835
 20
2.152792
 30
0.0
 10
0.791267
 20
2.152792
 30
0.0
 10
0.722899
 20
2.221155
 30
0.0
 10
0.722899
 20
2.305722
 30
0.0
  0
SPLINE
  5
142
100
AcDbEntity
  8
Layer_1
 62
7
100
AcDbSpline
 70
8
 71
3
 72
8
 73
4
 74
0
 40
0
 40
0
 40
0
 40
0
 40
1
 40
1
 40
1
 40
1
 10
0.722899
 20
2.305722
 30
0.0
 10
0.722899
 20
2.308365
 30
0.0
 10
0.722967
 20
2.310987
 30
0.0
 10
0.723104
 20
2.313597
 30
0.0
  0
SPLINE
  5
143
100
AcDbEntity
  8
Layer_1
 62
7
100
AcDbSpline
 70
8
 71
3
 72
8
 73
4
 74
0
 40
0
 40
0
 40
0
 40
0
 40
1
 40
1
 40
1
 40
1
 10
0.723104
 20
2.313597
 30
0.0
 10
0.727194
 20
2.394494
 30
0.0
 10
0.793910
 20
2.458679
 30
0.0
 10
0.875835
 20
2.458679
 30
0.0
  0
SPLINE
  5
144
100
AcDbEntity
  8
Layer_1
 62
7
100
AcDbSpline
 70
8
 71
3
 72
8
 73
4
 74
0
 40
0
 40
0
 40
0
 40
0
 40
1
 40
1
 40
1
 40
1
 10
0.875835
 20
2.458679
 30
0.0
 10
0.960402
 20
2.458679
 30
0.0
 10
1.028808
 20
2.390290
 30
0.0
 10
1.028808
 20
2.305722
 30
0.0
  0
LWPOLYLINE
  5
145
100
AcDbEntity
  8
Layer_1
 62
7
100
AcDbPolyline
 90
5
 70
0
 10
1.026019
 20
2.202536
 30
0.0
 10
0.992064
 20
2.222146
 30
0.0
 10
0.978596
 20
2.198833
 30
0.0
 10
0.982078
 20
2.196819
 30
0.0
 10
0.981992
 20
2.196674
 30
0.0
  0
SPLINE
  5
146
100
AcDbEntity
  8
Layer_1
 62
7
100
AcDbSpline
 70
8
 71
3
 72
8
 73
4
 74
0
 40
0
 40
0
 40
0
 40
0
 40
1
 40
1
 40
1
 40
1
 10
1.043988
 20
2.322571
 30
0.0
 10
1.039061
 20
2.372202
 30
0.0
 10
1.012582
 20
2.415536
 30
0.0
 10
0.974079
 20
2.443133
 30
0.0
  0
LWPOLYLINE
  5
147
100
AcDbEntity
  8
Layer_1
 62
7
100
AcDbPolyline
 90
20
 70
0
 10
1.028808
 20
2.305722
 30
0.0
 10
1.028808
 20
2.299742
 30
0.0
 10
1.028889
 20
2.299742
 30
0.0
 10
1.028889
 20
2.295817
 30
0.0
 10
1.023721
 20
2.283060
 30
0.0
 10
0.904198
 20
2.283119
 30
0.0
 10
0.891558
 20
2.283184
 30
0.0
 10
0.891558
 20
2.299763
 30
0.0
 10
0.858459
 20
2.299763
 30
0.0
 10
0.858459
 20
2.268940
 30
0.0
 10
0.886025
 20
2.268940
 30
0.0
 10
0.888732
 20
2.272138
 30
0.0
 10
0.904155
 20
2.272052
 30
0.0
 10
1.031171
 20
2.271992
 30
0.0
 10
1.038169
 20
2.289326
 30
0.0
 10
1.053139
 20
2.289326
 30
0.0
 10
1.059690
 20
2.294859
 30
0.0
 10
1.059690
 20
2.322425
 30
0.0
 10
1.043988
 20
2.322425
 30
0.0
 10
1.043988
 20
2.322571
 30
0.0
  0
SPLINE
  5
148
100
AcDbEntity
  8
Layer_1
 62
7
100
AcDbSpline
 70
8
 71
3
 72
8
 73
4
 74
0
 40
0
 40
0
 40
0
 40
0
 40
1
 40
1
 40
1
 40
1
 10
0.945130
 20
2.459799
 30
0.0
 10
0.923970
 20
2.469346
 30
0.0
 10
0.900529
 20
2.474709
 30
0.0
 10
0.875835
 20
2.474709
 30
0.0
  0
LWPOLYLINE
  5
149
100
AcDbEntity
  8
Layer_1
 62
7
100
AcDbPolyline
 90
7
 70
0
 10
0.974079
 20
2.443133
 30
0.0
 10
0.973961
 20
2.443219
 30
0.0
 10
0.978676
 20
2.451396
 30
0.0
 10
0.977153
 20
2.459836
 30
0.0
 10
0.953290
 20
2.473611
 30
0.0
 10
0.945270
 20
2.459739
 30
0.0
 10
0.945130
 20
2.459799
 30
0.0
  0
LWPOLYLINE
  5
14a
100
AcDbEntity
  8
Layer_1
 62
7
100
AcDbPolyline
 90
1
 70
1
 10
0.875835
 20
2.474709
 30
0.0
  0
SPLINE
  5
14b
100
AcDbEntity
  8
Layer_1
 62
7
100
AcDbSpline
 70
8
 71
3
 72
8
 73
4
 74
0
 40
0
 40
0
 40
0
 40
0
 40
1
 40
1
 40
1
 40
1
 10
0.799418
 20
2.403991
 30
0.0
 10
0.774122
 20
2.384022
 30
0.0
 10
0.757099
 20
2.354912
 30
0.0
 10
0.752380
 20
2.322754
 30
0.0
  0
LWPOLYLINE
  5
14c
100
AcDbEntity
  8
Layer_1
 62
7
100
AcDbPolyline
 90
4
 70
0
 10
0.820231
 20
2.435466
 30
0.0
 10
0.820068
 20
2.435363
 30
0.0
 10
0.790975
 20
2.418579
 30
0.0
 10
0.799418
 20
2.403991
 30
0.0
  0
SPLINE
  5
14d
100
AcDbEntity
  8
Layer_1
 62
7
100
AcDbSpline
 70
8
 71
3
 72
8
 73
4
 74
0
 40
0
 40
0
 40
0
 40
0
 40
1
 40
1
 40
1
 40
1
 10
0.752014
 20
2.288981
 30
0.0
 10
0.752451
 20
2.285446
 30
0.0
 10
0.752996
 20
2.281910
 30
0.0
 10
0.753743
 20
2.278361
 30
0.0
  0
SPLINE
  5
14e
100
AcDbEntity
  8
Layer_1
 62
7
100
AcDbSpline
 70
8
 71
3
 72
8
 73
4
 74
0
 40
0
 40
0
 40
0
 40
0
 40
1
 40
1
 40
1
 40
1
 10
0.753743
 20
2.278361
 30
0.0
 10
0.760003
 20
2.248627
 30
0.0
 10
0.776305
 20
2.223548
 30
0.0
 10
0.798319
 20
2.205851
 30
0.0
  0
LWPOLYLINE
  5
14f
100
AcDbEntity
  8
Layer_1
 62
7
100
AcDbPolyline
 90
4
 70
0
 10
0.752380
 20
2.322754
 30
0.0
 10
0.735657
 20
2.322754
 30
0.0
 10
0.735657
 20
2.288981
 30
0.0
 10
0.752014
 20
2.288981
 30
0.0
  0
SPLINE
  5
150
100
AcDbEntity
  8
Layer_1
 62
7
100
AcDbSpline
 70
8
 71
3
 72
8
 73
4
 74
0
 40
0
 40
0
 40
0
 40
0
 40
1
 40
1
 40
1
 40
1
 10
0.827209
 20
2.188374
 30
0.0
 10
0.850534
 20
2.178183
 30
0.0
 10
0.877097
 20
2.174849
 30
0.0
 10
0.903849
 20
2.180481
 30
0.0
  0
SPLINE
  5
151
100
AcDbEntity
  8
Layer_1
 62
7
100
AcDbSpline
 70
8
 71
3
 72
8
 73
4
 74
0
 40
0
 40
0
 40
0
 40
0
 40
1
 40
1
 40
1
 40
1
 10
0.903849
 20
2.180481
 30
0.0
 10
0.911123
 20
2.182012
 30
0.0
 10
0.918104
 20
2.184162
 30
0.0
 10
0.924784
 20
2.186828
 30
0.0
  0
LWPOLYLINE
  5
152
100
AcDbEntity
  8
Layer_1
 62
7
100
AcDbPolyline
 90
4
 70
0
 10
0.798319
 20
2.205851
 30
0.0
 10
0.790975
 20
2.193156
 30
0.0
 10
0.820231
 20
2.176290
 30
0.0
 10
0.827209
 20
2.188374
 30
0.0
  0
SPLINE
  5
153
100
AcDbEntity
  8
Layer_1
 62
7
100
AcDbSpline
 70
8
 71
3
 72
8
 73
4
 74
0
 40
0
 40
0
 40
0
 40
0
 40
1
 40
1
 40
1
 40
1
 10
0.954163
 20
2.203471
 30
0.0
 10
0.967045
 20
2.213241
 30
0.0
 10
0.977842
 20
2.225337
 30
0.0
 10
0.986104
 20
2.239013
 30
0.0
  0
LWPOLYLINE
  5
154
100
AcDbEntity
  8
Layer_1
 62
7
100
AcDbPolyline
 90
4
 70
0
 10
0.924784
 20
2.186828
 30
0.0
 10
0.930867
 20
2.176290
 30
0.0
 10
0.960124
 20
2.193156
 30
0.0
 10
0.954163
 20
2.203471
 30
0.0
  0
SPLINE
  5
155
100
AcDbEntity
  8
Layer_1
 62
7
100
AcDbSpline
 70
8
 71
3
 72
8
 73
4
 74
0
 40
0
 40
0
 40
0
 40
0
 40
1
 40
1
 40
1
 40
1
 10
1.037536
 20
2.212260
 30
0.0
 10
1.037536
 20
2.212260
 30
0.0
 10
1.051750
 20
2.221054
 30
0.0
 10
1.049418
 20
2.235575
 30
0.0
  0
LWPOLYLINE
  5
156
100
AcDbEntity
  8
Layer_1
 62
7
100
AcDbPolyline
 90
3
 70
0
 10
0.986104
 20
2.239013
 30
0.0
 10
1.037455
 20
2.212219
 30
0.0
 10
1.037536
 20
2.212260
 30
0.0
  0
SPLINE
  5
157
100
AcDbEntity
  8
Layer_1
 62
7
100
AcDbSpline
 70
8
 71
3
 72
8
 73
4
 74
0
 40
0
 40
0
 40
0
 40
0
 40
1
 40
1
 40
1
 40
1
 10
1.049335
 20
2.235698
 30
0.0
 10
1.049335
 20
2.235698
 30
0.0
 10
1.018627
 20
2.252037
 30
0.0
 10
0.993833
 20
2.263835
 30
0.0
  0
SPLINE
  5
158
100
AcDbEntity
  8
Layer_1
 62
7
100
AcDbSpline
 70
8
 71
3
 72
8
 73
4
 74
0
 40
0
 40
0
 40
0
 40
0
 40
1
 40
1
 40
1
 40
1
 10
0.993833
 20
2.263835
 30
0.0
 10
0.990437
 20
2.265451
 30
0.0
 10
0.987310
 20
2.265310
 30
0.0
 10
0.984556
 20
2.264181
 30
0.0
  0
SPLINE
  5
159
100
AcDbEntity
  8
Layer_1
 62
7
100
AcDbSpline
 70
8
 71
3
 72
8
 73
4
 74
0
 40
0
 40
0
 40
0
 40
0
 40
1
 40
1
 40
1
 40
1
 10
0.984556
 20
2.264181
 30
0.0
 10
0.982083
 20
2.264189
 30
0.0
 10
0.980509
 20
2.263254
 30
0.0
 10
0.979490
 20
2.262553
 30
0.0
  0
SPLINE
  5
15a
100
AcDbEntity
  8
Layer_1
 62
7
100
AcDbSpline
 70
8
 71
3
 72
8
 73
4
 74
0
 40
0
 40
0
 40
0
 40
0
 40
1
 40
1
 40
1
 40
1
 10
0.979490
 20
2.262553
 30
0.0
 10
0.977238
 20
2.261003
 30
0.0
 10
0.976121
 20
2.259470
 30
0.0
 10
0.974546
 20
2.257243
 30
0.0
  0
LWPOLYLINE
  5
15b
100
AcDbEntity
  8
Layer_1
 62
7
100
AcDbPolyline
 90
3
 70
0
 10
1.049418
 20
2.235575
 30
0.0
 10
1.049397
 20
2.235677
 30
0.0
 10
1.049335
 20
2.235698
 30
0.0
  0
SPLINE
  5
15c
100
AcDbEntity
  8
Layer_1
 62
7
100
AcDbSpline
 70
8
 71
3
 72
8
 73
4
 74
0
 40
0
 40
0
 40
0
 40
0
 40
1
 40
1
 40
1
 40
1
 10
0.973956
 20
2.256287
 30
0.0
 10
0.959759
 20
2.227986
 30
0.0
 10
0.933365
 20
2.206199
 30
0.0
 10
0.899921
 20
2.199158
 30
0.0
  0
SPLINE
  5
15d
100
AcDbEntity
  8
Layer_1
 62
7
100
AcDbSpline
 70
8
 71
3
 72
8
 73
4
 74
0
 40
0
 40
0
 40
0
 40
0
 40
1
 40
1
 40
1
 40
1
 10
0.899921
 20
2.199158
 30
0.0
 10
0.841636
 20
2.186888
 30
0.0
 10
0.784709
 20
2.224004
 30
0.0
 10
0.772438
 20
2.282288
 30
0.0
  0
SPLINE
  5
15e
100
AcDbEntity
  8
Layer_1
 62
7
100
AcDbSpline
 70
8
 71
3
 72
8
 73
4
 74
0
 40
0
 40
0
 40
0
 40
0
 40
1
 40
1
 40
1
 40
1
 10
0.772438
 20
2.282288
 30
0.0
 10
0.760168
 20
2.340573
 30
0.0
 10
0.797284
 20
2.397520
 30
0.0
 10
0.855568
 20
2.409790
 30
0.0
  0
SPLINE
  5
15f
100
AcDbEntity
  8
Layer_1
 62
7
100
AcDbSpline
 70
8
 71
3
 72
8
 73
4
 74
0
 40
0
 40
0
 40
0
 40
0
 40
1
 40
1
 40
1
 40
1
 10
0.855568
 20
2.409790
 30
0.0
 10
0.913853
 20
2.422061
 30
0.0
 10
0.970800
 20
2.384924
 30
0.0
 10
0.983071
 20
2.326640
 30
0.0
  0
SPLINE
  5
160
100
AcDbEntity
  8
Layer_1
 62
7
100
AcDbSpline
 70
8
 71
3
 72
8
 73
4
 74
0
 40
0
 40
0
 40
0
 40
0
 40
1
 40
1
 40
1
 40
1
 10
0.983071
 20
2.326640
 30
0.0
 10
0.983070
 20
2.326645
 30
0.0
 10
0.983098
 20
2.326530
 30
0.0
 10
0.983111
 20
2.326355
 30
0.0
  0
SPLINE
  5
161
100
AcDbEntity
  8
Layer_1
 62
7
100
AcDbSpline
 70
8
 71
3
 72
8
 73
4
 74
0
 40
0
 40
0
 40
0
 40
0
 40
1
 40
1
 40
1
 40
1
 10
0.983111
 20
2.326355
 30
0.0
 10
0.983125
 20
2.326181
 30
0.0
 10
0.983133
 20
2.325940
 30
0.0
 10
0.983152
 20
2.325643
 30
0.0
  0
SPLINE
  5
162
100
AcDbEntity
  8
Layer_1
 62
7
100
AcDbSpline
 70
8
 71
3
 72
8
 73
4
 74
0
 40
0
 40
0
 40
0
 40
0
 40
1
 40
1
 40
1
 40
1
 10
0.983152
 20
2.325643
 30
0.0
 10
0.983191
 20
2.325050
 30
0.0
 10
0.983250
 20
2.324216
 30
0.0
 10
0.983294
 20
2.323263
 30
0.0
  0
SPLINE
  5
163
100
AcDbEntity
  8
Layer_1
 62
7
100
AcDbSpline
 70
8
 71
3
 72
8
 73
4
 74
0
 40
0
 40
0
 40
0
 40
0
 40
1
 40
1
 40
1
 40
1
 10
0.983294
 20
2.323263
 30
0.0
 10
0.983384
 20
2.321358
 30
0.0
 10
0.983454
 20
2.318922
 30
0.0
 10
0.983457
 20
2.316610
 30
0.0
  0
SPLINE
  5
164
100
AcDbEntity
  8
Layer_1
 62
7
100
AcDbSpline
 70
8
 71
3
 72
8
 73
4
 74
0
 40
0
 40
0
 40
0
 40
0
 40
1
 40
1
 40
1
 40
1
 10
0.983457
 20
2.316610
 30
0.0
 10
0.983458
 20
2.315991
 30
0.0
 10
0.983460
 20
2.315417
 30
0.0
 10
0.983457
 20
2.314820
 30
0.0
  0
LWPOLYLINE
  5
165
100
AcDbEntity
  8
Layer_1
 62
7
100
AcDbPolyline
 90
3
 70
0
 10
0.974546
 20
2.257243
 30
0.0
 10
0.974241
 20
2.256775
 30
0.0
 10
0.973956
 20
2.256287
 30
0.0
  0
SPLINE
  5
166
100
AcDbEntity
  8
Layer_1
 62
7
100
AcDbSpline
 70
8
 71
3
 72
8
 73
4
 74
0
 40
0
 40
0
 40
0
 40
0
 40
1
 40
1
 40
1
 40
1
 10
1.002479
 20
2.323018
 30
0.0
 10
1.002301
 20
2.324670
 30
0.0
 10
1.002350
 20
2.324465
 30
0.0
 10
1.002357
 20
2.325541
 30
0.0
  0
SPLINE
  5
167
100
AcDbEntity
  8
Layer_1
 62
7
100
AcDbSpline
 70
8
 71
3
 72
8
 73
4
 74
0
 40
0
 40
0
 40
0
 40
0
 40
1
 40
1
 40
1
 40
1
 10
1.002357
 20
2.325541
 30
0.0
 10
1.002366
 20
2.326629
 30
0.0
 10
1.002219
 20
2.328326
 30
0.0
 10
1.001747
 20
2.330566
 30
0.0
  0
SPLINE
  5
168
100
AcDbEntity
  8
Layer_1
 62
7
100
AcDbSpline
 70
8
 71
3
 72
8
 73
4
 74
0
 40
0
 40
0
 40
0
 40
0
 40
1
 40
1
 40
1
 40
1
 10
1.001747
 20
2.330566
 30
0.0
 10
0.995101
 20
2.362135
 30
0.0
 10
0.977128
 20
2.388465
 30
0.0
 10
0.953021
 20
2.406270
 30
0.0
  0
LWPOLYLINE
  5
169
100
AcDbEntity
  8
Layer_1
 62
7
100
AcDbPolyline
 90
14
 70
0
 10
0.983457
 20
2.314820
 30
0.0
 10
0.923154
 20
2.314860
 30
0.0
 10
0.891904
 20
2.333008
 30
0.0
 10
0.891904
 20
2.343120
 30
0.0
 10
0.858132
 20
2.343120
 30
0.0
 10
0.858132
 20
2.313192
 30
0.0
 10
0.890155
 20
2.313192
 30
0.0
 10
0.918292
 20
2.296896
 30
0.0
 10
0.985512
 20
2.296834
 30
0.0
 10
0.985512
 20
2.288981
 30
0.0
 10
1.015440
 20
2.288981
 30
0.0
 10
1.015440
 20
2.322754
 30
0.0
 10
1.002500
 20
2.322754
 30
0.0
 10
1.002479
 20
2.323018
 30
0.0
  0
SPLINE
  5
16a
100
AcDbEntity
  8
Layer_1
 62
7
100
AcDbSpline
 70
8
 71
3
 72
8
 73
4
 74
0
 40
0
 40
0
 40
0
 40
0
 40
1
 40
1
 40
1
 40
1
 10
0.923439
 20
2.422587
 30
0.0
 10
0.916498
 20
2.425284
 30
0.0
 10
0.909300
 20
2.427408
 30
0.0
 10
0.901914
 20
2.428853
 30
0.0
  0
SPLINE
  5
16b
100
AcDbEntity
  8
Layer_1
 62
7
100
AcDbSpline
 70
8
 71
3
 72
8
 73
4
 74
0
 40
0
 40
0
 40
0
 40
0
 40
1
 40
1
 40
1
 40
1
 10
0.901914
 20
2.428853
 30
0.0
 10
0.885761
 20
2.432014
 30
0.0
 10
0.868734
 20
2.432065
 30
0.0
 10
0.851641
 20
2.428467
 30
0.0
  0
SPLINE
  5
16c
100
AcDbEntity
  8
Layer_1
 62
7
100
AcDbSpline
 70
8
 71
3
 72
8
 73
4
 74
0
 40
0
 40
0
 40
0
 40
0
 40
1
 40
1
 40
1
 40
1
 10
0.851641
 20
2.428467
 30
0.0
 10
0.850462
 20
2.428218
 30
0.0
 10
0.849318
 20
2.427911
 30
0.0
 10
0.848162
 20
2.427633
 30
0.0
  0
LWPOLYLINE
  5
16d
100
AcDbEntity
  8
Layer_1
 62
7
100
AcDbPolyline
 90
4
 70
0
 10
0.953021
 20
2.406270
 30
0.0
 10
0.960121
 20
2.418579
 30
0.0
 10
0.930885
 20
2.435465
 30
0.0
 10
0.923439
 20
2.422587
 30
0.0
  0
SPLINE
  5
16e
100
AcDbEntity
  8
Layer_1
 62
7
100
AcDbSpline
 70
8
 71
3
 72
8
 73
4
 74
0
 40
0
 40
0
 40
0
 40
0
 40
1
 40
1
 40
1
 40
1
 10
0.845293
 20
2.426962
 30
0.0
 10
0.839482
 20
2.425427
 30
0.0
 10
0.833870
 20
2.423480
 30
0.0
 10
0.828468
 20
2.421204
 30
0.0
  0
LWPOLYLINE
  5
16f
100
AcDbEntity
  8
Layer_1
 62
7
100
AcDbPolyline
 90
3
 70
0
 10
0.848162
 20
2.427633
 30
0.0
 10
0.848060
 20
2.427694
 30
0.0
 10
0.845293
 20
2.426962
 30
0.0
  0
LWPOLYLINE
  5
170
100
AcDbEntity
  8
Layer_1
 62
7
100
AcDbPolyline
 90
2
 70
0
 10
0.828468
 20
2.421204
 30
0.0
 10
0.820231
 20
2.435466
 30
0.0
  0
SPLINE
  5
171
100
AcDbEntity
  8
Layer_1
 62
7
100
AcDbSpline
 70
8
 71
3
 72
8
 73
4
 74
0
 40
0
 40
0
 40
0
 40
0
 40
1
 40
1
 40
1
 40
1
 10
0.828451
 20
2.420838
 30
0.0
 10
0.833887
 20
2.423137
 30
0.0
 10
0.839525
 20
2.425091
 30
0.0
 10
0.845378
 20
2.426636
 30
0.0
  0
LWPOLYLINE
  5
172
100
AcDbEntity
  8
Layer_1
 62
7
100
AcDbPolyline
 90
3
 70
0
 10
0.820089
 20
2.434998
 30
0.0
 10
0.828308
 20
2.420776
 30
0.0
 10
0.828451
 20
2.420838
 30
0.0
  0
SPLINE
  5
173
100
AcDbEntity
  8
Layer_1
 62
7
100
AcDbSpline
 70
8
 71
3
 72
8
 73
4
 74
0
 40
0
 40
0
 40
0
 40
0
 40
1
 40
1
 40
1
 40
1
 10
0.848186
 20
2.427308
 30
0.0
 10
0.849359
 20
2.427590
 30
0.0
 10
0.850523
 20
2.427893
 30
0.0
 10
0.851705
 20
2.428142
 30
0.0
  0
SPLINE
  5
174
100
AcDbEntity
  8
Layer_1
 62
7
100
AcDbSpline
 70
8
 71
3
 72
8
 73
4
 74
0
 40
0
 40
0
 40
0
 40
0
 40
1
 40
1
 40
1
 40
1
 10
0.851705
 20
2.428142
 30
0.0
 10
0.868754
 20
2.431731
 30
0.0
 10
0.885746
 20
2.431681
 30
0.0
 10
0.901856
 20
2.428529
 30
0.0
  0
SPLINE
  5
175
100
AcDbEntity
  8
Layer_1
 62
7
100
AcDbSpline
 70
8
 71
3
 72
8
 73
4
 74
0
 40
0
 40
0
 40
0
 40
0
 40
1
 40
1
 40
1
 40
1
 10
0.901856
 20
2.428529
 30
0.0
 10
0.909270
 20
2.427078
 30
0.0
 10
0.916497
 20
2.424958
 30
0.0
 10
0.923462
 20
2.422242
 30
0.0
  0
LWPOLYLINE
  5
176
100
AcDbEntity
  8
Layer_1
 62
7
100
AcDbPolyline
 90
4
 70
0
 10
0.845378
 20
2.426636
 30
0.0
 10
0.848043
 20
2.427328
 30
0.0
 10
0.848145
 20
2.427287
 30
0.0
 10
0.848186
 20
2.427308
 30
0.0
  0
SPLINE
  5
177
100
AcDbEntity
  8
Layer_1
 62
7
100
AcDbSpline
 70
8
 71
3
 72
8
 73
4
 74
0
 40
0
 40
0
 40
0
 40
0
 40
1
 40
1
 40
1
 40
1
 10
0.952718
 20
2.406129
 30
0.0
 10
0.976833
 20
2.388368
 30
0.0
 10
0.994783
 20
2.362054
 30
0.0
 10
1.001424
 20
2.330506
 30
0.0
  0
SPLINE
  5
178
100
AcDbEntity
  8
Layer_1
 62
7
100
AcDbSpline
 70
8
 71
3
 72
8
 73
4
 74
0
 40
0
 40
0
 40
0
 40
0
 40
1
 40
1
 40
1
 40
1
 10
1.001424
 20
2.330506
 30
0.0
 10
1.001892
 20
2.328285
 30
0.0
 10
1.002023
 20
2.326596
 30
0.0
 10
1.002014
 20
2.325542
 30
0.0
  0
SPLINE
  5
179
100
AcDbEntity
  8
Layer_1
 62
7
100
AcDbSpline
 70
8
 71
3
 72
8
 73
4
 74
0
 40
0
 40
0
 40
0
 40
0
 40
1
 40
1
 40
1
 40
1
 10
1.002014
 20
2.325542
 30
0.0
 10
1.002007
 20
2.324476
 30
0.0
 10
1.001958
 20
2.324633
 30
0.0
 10
1.002137
 20
2.322978
 30
0.0
  0
LWPOLYLINE
  5
17a
100
AcDbEntity
  8
Layer_1
 62
7
100
AcDbPolyline
 90
6
 70
0
 10
0.923462
 20
2.422242
 30
0.0
 10
0.923605
 20
2.422181
 30
0.0
 10
0.931010
 20
2.434998
 30
0.0
 10
0.959656
 20
2.418458
 30
0.0
 10
0.952596
 20
2.406210
 30
0.0
 10
0.952718
 20
2.406129
 30
0.0
  0
SPLINE
  5
17b
100
AcDbEntity
  8
Layer_1
 62
7
100
AcDbSpline
 70
8
 71
3
 72
8
 73
4
 74
0
 40
0
 40
0
 40
0
 40
0
 40
1
 40
1
 40
1
 40
1
 10
0.983786
 20
2.314637
 30
0.0
 10
0.983789
 20
2.315305
 30
0.0
 10
0.983808
 20
2.315926
 30
0.0
 10
0.983807
 20
2.316610
 30
0.0
  0
SPLINE
  5
17c
100
AcDbEntity
  8
Layer_1
 62
7
100
AcDbSpline
 70
8
 71
3
 72
8
 73
4
 74
0
 40
0
 40
0
 40
0
 40
0
 40
1
 40
1
 40
1
 40
1
 10
0.983807
 20
2.316610
 30
0.0
 10
0.983803
 20
2.318929
 30
0.0
 10
0.983713
 20
2.321374
 30
0.0
 10
0.983623
 20
2.323283
 30
0.0
  0
SPLINE
  5
17d
100
AcDbEntity
  8
Layer_1
 62
7
100
AcDbSpline
 70
8
 71
3
 72
8
 73
4
 74
0
 40
0
 40
0
 40
0
 40
0
 40
1
 40
1
 40
1
 40
1
 10
0.983623
 20
2.323283
 30
0.0
 10
0.983579
 20
2.324238
 30
0.0
 10
0.983540
 20
2.325068
 30
0.0
 10
0.983501
 20
2.325664
 30
0.0
  0
SPLINE
  5
17e
100
AcDbEntity
  8
Layer_1
 62
7
100
AcDbSpline
 70
8
 71
3
 72
8
 73
4
 74
0
 40
0
 40
0
 40
0
 40
0
 40
1
 40
1
 40
1
 40
1
 10
0.983501
 20
2.325664
 30
0.0
 10
0.983483
 20
2.325961
 30
0.0
 10
0.983454
 20
2.326199
 30
0.0
 10
0.983440
 20
2.326376
 30
0.0
  0
SPLINE
  5
17f
100
AcDbEntity
  8
Layer_1
 62
7
100
AcDbSpline
 70
8
 71
3
 72
8
 73
4
 74
0
 40
0
 40
0
 40
0
 40
0
 40
1
 40
1
 40
1
 40
1
 10
0.983440
 20
2.326376
 30
0.0
 10
0.983425
 20
2.326552
 30
0.0
 10
0.983413
 20
2.326632
 30
0.0
 10
0.983399
 20
2.326701
 30
0.0
  0
SPLINE
  5
180
100
AcDbEntity
  8
Layer_1
 62
7
100
AcDbSpline
 70
8
 71
3
 72
8
 73
4
 74
0
 40
0
 40
0
 40
0
 40
0
 40
1
 40
1
 40
1
 40
1
 10
0.983399
 20
2.326701
 30
0.0
 10
0.971092
 20
2.385160
 30
0.0
 10
0.913971
 20
2.422423
 30
0.0
 10
0.855510
 20
2.410116
 30
0.0
  0
SPLINE
  5
181
100
AcDbEntity
  8
Layer_1
 62
7
100
AcDbSpline
 70
8
 71
3
 72
8
 73
4
 74
0
 40
0
 40
0
 40
0
 40
0
 40
1
 40
1
 40
1
 40
1
 10
0.855510
 20
2.410116
 30
0.0
 10
0.797050
 20
2.397808
 30
0.0
 10
0.759809
 20
2.340687
 30
0.0
 10
0.772116
 20
2.282227
 30
0.0
  0
SPLINE
  5
182
100
AcDbEntity
  8
Layer_1
 62
7
100
AcDbSpline
 70
8
 71
3
 72
8
 73
4
 74
0
 40
0
 40
0
 40
0
 40
0
 40
1
 40
1
 40
1
 40
1
 10
0.772116
 20
2.282227
 30
0.0
 10
0.784423
 20
2.223767
 30
0.0
 10
0.841525
 20
2.186525
 30
0.0
 10
0.899985
 20
2.198832
 30
0.0
  0
SPLINE
  5
183
100
AcDbEntity
  8
Layer_1
 62
7
100
AcDbSpline
 70
8
 71
3
 72
8
 73
4
 74
0
 40
0
 40
0
 40
0
 40
0
 40
1
 40
1
 40
1
 40
1
 10
0.899985
 20
2.198832
 30
0.0
 10
0.933530
 20
2.205895
 30
0.0
 10
0.960024
 20
2.227737
 30
0.0
 10
0.974264
 20
2.256124
 30
0.0
  0
LWPOLYLINE
  5
184
100
AcDbEntity
  8
Layer_1
 62
7
100
AcDbPolyline
 90
15
 70
0
 10
1.002137
 20
2.322978
 30
0.0
 10
1.002198
 20
2.322409
 30
0.0
 10
1.015097
 20
2.322409
 30
0.0
 10
1.015097
 20
2.289328
 30
0.0
 10
0.985861
 20
2.289328
 30
0.0
 10
0.985861
 20
2.297181
 30
0.0
 10
0.918397
 20
2.297222
 30
0.0
 10
0.890259
 20
2.313538
 30
0.0
 10
0.858481
 20
2.313538
 30
0.0
 10
0.858481
 20
2.342794
 30
0.0
 10
0.891562
 20
2.342794
 30
0.0
 10
0.891562
 20
2.332805
 30
0.0
 10
0.923056
 20
2.314535
 30
0.0
 10
0.983786
 20
2.314474
 30
0.0
 10
0.983786
 20
2.314637
 30
0.0
  0
SPLINE
  5
185
100
AcDbEntity
  8
Layer_1
 62
7
100
AcDbSpline
 70
8
 71
3
 72
8
 73
4
 74
0
 40
0
 40
0
 40
0
 40
0
 40
1
 40
1
 40
1
 40
1
 10
0.974814
 20
2.257060
 30
0.0
 10
0.976388
 20
2.259285
 30
0.0
 10
0.977466
 20
2.260767
 30
0.0
 10
0.979676
 20
2.262289
 30
0.0
  0
SPLINE
  5
186
100
AcDbEntity
  8
Layer_1
 62
7
100
AcDbSpline
 70
8
 71
3
 72
8
 73
4
 74
0
 40
0
 40
0
 40
0
 40
0
 40
1
 40
1
 40
1
 40
1
 10
0.979676
 20
2.262289
 30
0.0
 10
0.980691
 20
2.262987
 30
0.0
 10
0.982179
 20
2.263886
 30
0.0
 10
0.984620
 20
2.263855
 30
0.0
  0
LWPOLYLINE
  5
187
100
AcDbEntity
  8
Layer_1
 62
7
100
AcDbPolyline
 90
3
 70
0
 10
0.974264
 20
2.256124
 30
0.0
 10
0.974529
 20
2.256592
 30
0.0
 10
0.974814
 20
2.257060
 30
0.0
  0
SPLINE
  5
188
100
AcDbEntity
  8
Layer_1
 62
7
100
AcDbSpline
 70
8
 71
3
 72
8
 73
4
 74
0
 40
0
 40
0
 40
0
 40
0
 40
1
 40
1
 40
1
 40
1
 10
0.984681
 20
2.263876
 30
0.0
 10
0.987363
 20
2.264975
 30
0.0
 10
0.990376
 20
2.265109
 30
0.0
 10
0.993694
 20
2.263530
 30
0.0
  0
SPLINE
  5
189
100
AcDbEntity
  8
Layer_1
 62
7
100
AcDbSpline
 70
8
 71
3
 72
8
 73
4
 74
0
 40
0
 40
0
 40
0
 40
0
 40
1
 40
1
 40
1
 40
1
 10
0.993694
 20
2.263530
 30
0.0
 10
1.018429
 20
2.251760
 30
0.0
 10
1.048957
 20
2.235536
 30
0.0
 10
1.049073
 20
2.235474
 30
0.0
  0
SPLINE
  5
18a
100
AcDbEntity
  8
Layer_1
 62
7
100
AcDbSpline
 70
8
 71
3
 72
8
 73
4
 74
0
 40
0
 40
0
 40
0
 40
0
 40
1
 40
1
 40
1
 40
1
 10
1.049073
 20
2.235474
 30
0.0
 10
1.051294
 20
2.221298
 30
0.0
 10
1.037547
 20
2.212688
 30
0.0
 10
1.037416
 20
2.212607
 30
0.0
  0
LWPOLYLINE
  5
18b
100
AcDbEntity
  8
Layer_1
 62
7
100
AcDbPolyline
 90
2
 70
1
 10
0.984620
 20
2.263855
 30
0.0
 10
0.984661
 20
2.263855
 30
0.0
  0
SPLINE
  5
18c
100
AcDbEntity
  8
Layer_1
 62
7
100
AcDbSpline
 70
8
 71
3
 72
8
 73
4
 74
0
 40
0
 40
0
 40
0
 40
0
 40
1
 40
1
 40
1
 40
1
 10
0.985923
 20
2.239320
 30
0.0
 10
0.977647
 20
2.225582
 30
0.0
 10
0.966801
 20
2.213427
 30
0.0
 10
0.953859
 20
2.203634
 30
0.0
  0
LWPOLYLINE
  5
18d
100
AcDbEntity
  8
Layer_1
 62
7
100
AcDbPolyline
 90
3
 70
0
 10
1.037416
 20
2.212607
 30
0.0
 10
0.986004
 20
2.239442
 30
0.0
 10
0.985923
 20
2.239320
 30
0.0
  0
SPLINE
  5
18e
100
AcDbEntity
  8
Layer_1
 62
7
100
AcDbSpline
 70
8
 71
3
 72
8
 73
4
 74
0
 40
0
 40
0
 40
0
 40
0
 40
1
 40
1
 40
1
 40
1
 10
0.924806
 20
2.187175
 30
0.0
 10
0.918103
 20
2.184491
 30
0.0
 10
0.911093
 20
2.182345
 30
0.0
 10
0.903790
 20
2.180807
 30
0.0
  0
SPLINE
  5
18f
100
AcDbEntity
  8
Layer_1
 62
7
100
AcDbSpline
 70
8
 71
3
 72
8
 73
4
 74
0
 40
0
 40
0
 40
0
 40
0
 40
1
 40
1
 40
1
 40
1
 10
0.903790
 20
2.180807
 30
0.0
 10
0.877055
 20
2.175179
 30
0.0
 10
0.850486
 20
2.178510
 30
0.0
 10
0.827190
 20
2.188721
 30
0.0
  0
LWPOLYLINE
  5
190
100
AcDbEntity
  8
Layer_1
 62
7
100
AcDbPolyline
 90
6
 70
0
 10
0.953859
 20
2.203634
 30
0.0
 10
0.953737
 20
2.203532
 30
0.0
 10
0.959657
 20
2.193278
 30
0.0
 10
0.930991
 20
2.176738
 30
0.0
 10
0.924948
 20
2.187216
 30
0.0
 10
0.924806
 20
2.187175
 30
0.0
  0
SPLINE
  5
191
100
AcDbEntity
  8
Layer_1
 62
7
100
AcDbSpline
 70
8
 71
3
 72
8
 73
4
 74
0
 40
0
 40
0
 40
0
 40
0
 40
1
 40
1
 40
1
 40
1
 10
0.798626
 20
2.205994
 30
0.0
 10
0.776612
 20
2.223650
 30
0.0
 10
0.760324
 20
2.248716
 30
0.0
 10
0.754070
 20
2.278423
 30
0.0
  0
SPLINE
  5
192
100
AcDbEntity
  8
Layer_1
 62
7
100
AcDbSpline
 70
8
 71
3
 72
8
 73
4
 74
0
 40
0
 40
0
 40
0
 40
0
 40
1
 40
1
 40
1
 40
1
 10
0.754070
 20
2.278423
 30
0.0
 10
0.753315
 20
2.282008
 30
0.0
 10
0.752758
 20
2.285591
 30
0.0
 10
0.752320
 20
2.289165
 30
0.0
  0
LWPOLYLINE
  5
193
100
AcDbEntity
  8
Layer_1
 62
7
100
AcDbPolyline
 90
6
 70
0
 10
0.827190
 20
2.188721
 30
0.0
 10
0.827068
 20
2.188783
 30
0.0
 10
0.820110
 20
2.176738
 30
0.0
 10
0.791444
 20
2.193279
 30
0.0
 10
0.798728
 20
2.205913
 30
0.0
 10
0.798626
 20
2.205994
 30
0.0
  0
SPLINE
  5
194
100
AcDbEntity
  8
Layer_1
 62
7
100
AcDbSpline
 70
8
 71
3
 72
8
 73
4
 74
0
 40
0
 40
0
 40
0
 40
0
 40
1
 40
1
 40
1
 40
1
 10
0.752686
 20
2.322551
 30
0.0
 10
0.757369
 20
2.354732
 30
0.0
 10
0.774393
 20
2.383880
 30
0.0
 10
0.799724
 20
2.403830
 30
0.0
  0
LWPOLYLINE
  5
195
100
AcDbEntity
  8
Layer_1
 62
7
100
AcDbPolyline
 90
6
 70
0
 10
0.752320
 20
2.289165
 30
0.0
 10
0.752299
 20
2.289328
 30
0.0
 10
0.736003
 20
2.289328
 30
0.0
 10
0.736003
 20
2.322409
 30
0.0
 10
0.752665
 20
2.322409
 30
0.0
 10
0.752686
 20
2.322551
 30
0.0
  0
LWPOLYLINE
  5
196
100
AcDbEntity
  8
Layer_1
 62
7
100
AcDbPolyline
 90
4
 70
0
 10
0.799724
 20
2.403830
 30
0.0
 10
0.799826
 20
2.403932
 30
0.0
 10
0.791444
 20
2.418458
 30
0.0
 10
0.820089
 20
2.434998
 30
0.0
  0
SPLINE
  5
197
100
AcDbEntity
  8
Layer_1
 62
7
100
AcDbSpline
 70
8
 71
3
 72
8
 73
4
 74
0
 40
0
 40
0
 40
0
 40
0
 40
1
 40
1
 40
1
 40
1
 10
1.239054
 20
2.406290
 30
0.0
 10
1.214936
 20
2.388485
 30
0.0
 10
1.196976
 20
2.362144
 30
0.0
 10
1.190328
 20
2.330566
 30
0.0
  0
SPLINE
  5
198
100
AcDbEntity
  8
Layer_1
 62
7
100
AcDbSpline
 70
8
 71
3
 72
8
 73
4
 74
0
 40
0
 40
0
 40
0
 40
0
 40
1
 40
1
 40
1
 40
1
 10
1.190328
 20
2.330566
 30
0.0
 10
1.189856
 20
2.328325
 30
0.0
 10
1.189710
 20
2.326628
 30
0.0
 10
1.189717
 20
2.325541
 30
0.0
  0
SPLINE
  5
199
100
AcDbEntity
  8
Layer_1
 62
7
100
AcDbSpline
 70
8
 71
3
 72
8
 73
4
 74
0
 40
0
 40
0
 40
0
 40
0
 40
1
 40
1
 40
1
 40
1
 10
1.189717
 20
2.325541
 30
0.0
 10
1.189725
 20
2.324465
 30
0.0
 10
1.189769
 20
2.324670
 30
0.0
 10
1.189595
 20
2.323018
 30
0.0
  0
LWPOLYLINE
  5
19a
100
AcDbEntity
  8
Layer_1
 62
7
100
AcDbPolyline
 90
4
 70
0
 10
1.261190
 20
2.435466
 30
0.0
 10
1.261047
 20
2.435363
 30
0.0
 10
1.231954
 20
2.418579
 30
0.0
 10
1.239054
 20
2.406290
 30
0.0
  0
SPLINE
  5
19b
100
AcDbEntity
  8
Layer_1
 62
7
100
AcDbSpline
 70
8
 71
3
 72
8
 73
4
 74
0
 40
0
 40
0
 40
0
 40
0
 40
1
 40
1
 40
1
 40
1
 10
1.208617
 20
2.314819
 30
0.0
 10
1.208615
 20
2.315417
 30
0.0
 10
1.208597
 20
2.315990
 30
0.0
 10
1.208597
 20
2.316610
 30
0.0
  0
SPLINE
  5
19c
100
AcDbEntity
  8
Layer_1
 62
7
100
AcDbSpline
 70
8
 71
3
 72
8
 73
4
 74
0
 40
0
 40
0
 40
0
 40
0
 40
1
 40
1
 40
1
 40
1
 10
1.208597
 20
2.316610
 30
0.0
 10
1.208601
 20
2.318921
 30
0.0
 10
1.208690
 20
2.321358
 30
0.0
 10
1.208780
 20
2.323263
 30
0.0
  0
SPLINE
  5
19d
100
AcDbEntity
  8
Layer_1
 62
7
100
AcDbSpline
 70
8
 71
3
 72
8
 73
4
 74
0
 40
0
 40
0
 40
0
 40
0
 40
1
 40
1
 40
1
 40
1
 10
1.208780
 20
2.323263
 30
0.0
 10
1.208822
 20
2.324215
 30
0.0
 10
1.208884
 20
2.325050
 30
0.0
 10
1.208923
 20
2.325643
 30
0.0
  0
SPLINE
  5
19e
100
AcDbEntity
  8
Layer_1
 62
7
100
AcDbSpline
 70
8
 71
3
 72
8
 73
4
 74
0
 40
0
 40
0
 40
0
 40
0
 40
1
 40
1
 40
1
 40
1
 10
1.208923
 20
2.325643
 30
0.0
 10
1.208943
 20
2.325940
 30
0.0
 10
1.208954
 20
2.326181
 30
0.0
 10
1.208964
 20
2.326355
 30
0.0
  0
SPLINE
  5
19f
100
AcDbEntity
  8
Layer_1
 62
7
100
AcDbSpline
 70
8
 71
3
 72
8
 73
4
 74
0
 40
0
 40
0
 40
0
 40
0
 40
1
 40
1
 40
1
 40
1
 10
1.208964
 20
2.326355
 30
0.0
 10
1.208975
 20
2.326529
 30
0.0
 10
1.208985
 20
2.326644
 30
0.0
 10
1.208985
 20
2.326640
 30
0.0
  0
SPLINE
  5
1a0
100
AcDbEntity
  8
Layer_1
 62
7
100
AcDbSpline
 70
8
 71
3
 72
8
 73
4
 74
0
 40
0
 40
0
 40
0
 40
0
 40
1
 40
1
 40
1
 40
1
 10
1.208985
 20
2.326640
 30
0.0
 10
1.221256
 20
2.384923
 30
0.0
 10
1.278223
 20
2.422061
 30
0.0
 10
1.336508
 20
2.409790
 30
0.0
  0
SPLINE
  5
1a1
100
AcDbEntity
  8
Layer_1
 62
7
100
AcDbSpline
 70
8
 71
3
 72
8
 73
4
 74
0
 40
0
 40
0
 40
0
 40
0
 40
1
 40
1
 40
1
 40
1
 10
1.336508
 20
2.409790
 30
0.0
 10
1.394792
 20
2.397520
 30
0.0
 10
1.431908
 20
2.340572
 30
0.0
 10
1.419638
 20
2.282288
 30
0.0
  0
SPLINE
  5
1a2
100
AcDbEntity
  8
Layer_1
 62
7
100
AcDbSpline
 70
8
 71
3
 72
8
 73
4
 74
0
 40
0
 40
0
 40
0
 40
0
 40
1
 40
1
 40
1
 40
1
 10
1.419638
 20
2.282288
 30
0.0
 10
1.407367
 20
2.224003
 30
0.0
 10
1.350440
 20
2.186887
 30
0.0
 10
1.292156
 20
2.199158
 30
0.0
  0
SPLINE
  5
1a3
100
AcDbEntity
  8
Layer_1
 62
7
100
AcDbSpline
 70
8
 71
3
 72
8
 73
4
 74
0
 40
0
 40
0
 40
0
 40
0
 40
1
 40
1
 40
1
 40
1
 10
1.292156
 20
2.199158
 30
0.0
 10
1.258711
 20
2.206199
 30
0.0
 10
1.232317
 20
2.227986
 30
0.0
 10
1.218120
 20
2.256287
 30
0.0
  0
LWPOLYLINE
  5
1a4
100
AcDbEntity
  8
Layer_1
 62
7
100
AcDbPolyline
 90
14
 70
0
 10
1.189595
 20
2.323018
 30
0.0
 10
1.189574
 20
2.322754
 30
0.0
 10
1.176635
 20
2.322754
 30
0.0
 10
1.176635
 20
2.288981
 30
0.0
 10
1.206542
 20
2.288981
 30
0.0
 10
1.206542
 20
2.296834
 30
0.0
 10
1.273783
 20
2.296895
 30
0.0
 10
1.301899
 20
2.313192
 30
0.0
 10
1.333943
 20
2.313192
 30
0.0
 10
1.333943
 20
2.343119
 30
0.0
 10
1.300170
 20
2.343119
 30
0.0
 10
1.300170
 20
2.333008
 30
0.0
 10
1.268920
 20
2.314860
 30
0.0
 10
1.208617
 20
2.314819
 30
0.0
  0
SPLINE
  5
1a5
100
AcDbEntity
  8
Layer_1
 62
7
100
AcDbSpline
 70
8
 71
3
 72
8
 73
4
 74
0
 40
0
 40
0
 40
0
 40
0
 40
1
 40
1
 40
1
 40
1
 10
1.217530
 20
2.257243
 30
0.0
 10
1.215955
 20
2.259470
 30
0.0
 10
1.214839
 20
2.261003
 30
0.0
 10
1.212587
 20
2.262553
 30
0.0
  0
SPLINE
  5
1a6
100
AcDbEntity
  8
Layer_1
 62
7
100
AcDbSpline
 70
8
 71
3
 72
8
 73
4
 74
0
 40
0
 40
0
 40
0
 40
0
 40
1
 40
1
 40
1
 40
1
 10
1.212587
 20
2.262553
 30
0.0
 10
1.211556
 20
2.263262
 30
0.0
 10
1.209965
 20
2.264217
 30
0.0
 10
1.207439
 20
2.264181
 30
0.0
  0
SPLINE
  5
1a7
100
AcDbEntity
  8
Layer_1
 62
7
100
AcDbSpline
 70
8
 71
3
 72
8
 73
4
 74
0
 40
0
 40
0
 40
0
 40
0
 40
1
 40
1
 40
1
 40
1
 10
1.207439
 20
2.264181
 30
0.0
 10
1.204698
 20
2.265289
 30
0.0
 10
1.201597
 20
2.265440
 30
0.0
 10
1.198223
 20
2.263835
 30
0.0
  0
SPLINE
  5
1a8
100
AcDbEntity
  8
Layer_1
 62
7
100
AcDbSpline
 70
8
 71
3
 72
8
 73
4
 74
0
 40
0
 40
0
 40
0
 40
0
 40
1
 40
1
 40
1
 40
1
 10
1.198223
 20
2.263835
 30
0.0
 10
1.173430
 20
2.252037
 30
0.0
 10
1.142742
 20
2.235698
 30
0.0
 10
1.142742
 20
2.235698
 30
0.0
  0
LWPOLYLINE
  5
1a9
100
AcDbEntity
  8
Layer_1
 62
7
100
AcDbPolyline
 90
3
 70
0
 10
1.218120
 20
2.256287
 30
0.0
 10
1.217836
 20
2.256775
 30
0.0
 10
1.217530
 20
2.257243
 30
0.0
  0
SPLINE
  5
1aa
100
AcDbEntity
  8
Layer_1
 62
7
100
AcDbSpline
 70
8
 71
3
 72
8
 73
4
 74
0
 40
0
 40
0
 40
0
 40
0
 40
1
 40
1
 40
1
 40
1
 10
1.142659
 20
2.235576
 30
0.0
 10
1.140326
 20
2.221055
 30
0.0
 10
1.154540
 20
2.212260
 30
0.0
 10
1.154540
 20
2.212260
 30
0.0
  0
LWPOLYLINE
  5
1ab
100
AcDbEntity
  8
Layer_1
 62
7
100
AcDbPolyline
 90
3
 70
0
 10
1.142742
 20
2.235698
 30
0.0
 10
1.142659
 20
2.235657
 30
0.0
 10
1.142659
 20
2.235576
 30
0.0
  0
SPLINE
  5
1ac
100
AcDbEntity
  8
Layer_1
 62
7
100
AcDbSpline
 70
8
 71
3
 72
8
 73
4
 74
0
 40
0
 40
0
 40
0
 40
0
 40
1
 40
1
 40
1
 40
1
 10
1.205954
 20
2.239014
 30
0.0
 10
1.214216
 20
2.225337
 30
0.0
 10
1.225033
 20
2.213242
 30
0.0
 10
1.237916
 20
2.203471
 30
0.0
  0
LWPOLYLINE
  5
1ad
100
AcDbEntity
  8
Layer_1
 62
7
100
AcDbPolyline
 90
3
 70
0
 10
1.154540
 20
2.212260
 30
0.0
 10
1.154624
 20
2.212220
 30
0.0
 10
1.205954
 20
2.239014
 30
0.0
  0
SPLINE
  5
1ae
100
AcDbEntity
  8
Layer_1
 62
7
100
AcDbSpline
 70
8
 71
3
 72
8
 73
4
 74
0
 40
0
 40
0
 40
0
 40
0
 40
1
 40
1
 40
1
 40
1
 10
1.267294
 20
2.186829
 30
0.0
 10
1.273969
 20
2.184166
 30
0.0
 10
1.280962
 20
2.182011
 30
0.0
 10
1.288229
 20
2.180481
 30
0.0
  0
SPLINE
  5
1af
100
AcDbEntity
  8
Layer_1
 62
7
100
AcDbSpline
 70
8
 71
3
 72
8
 73
4
 74
0
 40
0
 40
0
 40
0
 40
0
 40
1
 40
1
 40
1
 40
1
 10
1.288229
 20
2.180481
 30
0.0
 10
1.314981
 20
2.174850
 30
0.0
 10
1.341546
 20
2.178184
 30
0.0
 10
1.364869
 20
2.188375
 30
0.0
  0
LWPOLYLINE
  5
1b0
100
AcDbEntity
  8
Layer_1
 62
7
100
AcDbPolyline
 90
4
 70
0
 10
1.237916
 20
2.203471
 30
0.0
 10
1.231955
 20
2.193156
 30
0.0
 10
1.261191
 20
2.176290
 30
0.0
 10
1.267294
 20
2.186829
 30
0.0
  0
SPLINE
  5
1b1
100
AcDbEntity
  8
Layer_1
 62
7
100
AcDbSpline
 70
8
 71
3
 72
8
 73
4
 74
0
 40
0
 40
0
 40
0
 40
0
 40
1
 40
1
 40
1
 40
1
 10
1.393759
 20
2.205852
 30
0.0
 10
1.415774
 20
2.223549
 30
0.0
 10
1.432055
 20
2.248627
 30
0.0
 10
1.438315
 20
2.278361
 30
0.0
  0
SPLINE
  5
1b2
100
AcDbEntity
  8
Layer_1
 62
7
100
AcDbSpline
 70
8
 71
3
 72
8
 73
4
 74
0
 40
0
 40
0
 40
0
 40
0
 40
1
 40
1
 40
1
 40
1
 10
1.438315
 20
2.278361
 30
0.0
 10
1.439063
 20
2.281910
 30
0.0
 10
1.439628
 20
2.285447
 30
0.0
 10
1.440065
 20
2.288981
 30
0.0
  0
LWPOLYLINE
  5
1b3
100
AcDbEntity
  8
Layer_1
 62
7
100
AcDbPolyline
 90
4
 70
0
 10
1.364869
 20
2.188375
 30
0.0
 10
1.371848
 20
2.176270
 30
0.0
 10
1.401084
 20
2.193156
 30
0.0
 10
1.393759
 20
2.205852
 30
0.0
  0
SPLINE
  5
1b4
100
AcDbEntity
  8
Layer_1
 62
7
100
AcDbSpline
 70
8
 71
3
 72
8
 73
4
 74
0
 40
0
 40
0
 40
0
 40
0
 40
1
 40
1
 40
1
 40
1
 10
1.439678
 20
2.322754
 30
0.0
 10
1.434959
 20
2.354911
 30
0.0
 10
1.417955
 20
2.384023
 30
0.0
 10
1.392661
 20
2.403992
 30
0.0
  0
LWPOLYLINE
  5
1b5
100
AcDbEntity
  8
Layer_1
 62
7
100
AcDbPolyline
 90
4
 70
0
 10
1.440065
 20
2.288981
 30
0.0
 10
1.456422
 20
2.288981
 30
0.0
 10
1.456422
 20
2.322754
 30
0.0
 10
1.439678
 20
2.322754
 30
0.0
  0
SPLINE
  5
1b6
100
AcDbEntity
  8
Layer_1
 62
7
100
AcDbSpline
 70
8
 71
3
 72
8
 73
4
 74
0
 40
0
 40
0
 40
0
 40
0
 40
1
 40
1
 40
1
 40
1
 10
1.363628
 20
2.421184
 30
0.0
 10
1.358212
 20
2.423468
 30
0.0
 10
1.352589
 20
2.425423
 30
0.0
 10
1.346762
 20
2.426962
 30
0.0
  0
LWPOLYLINE
  5
1b7
100
AcDbEntity
  8
Layer_1
 62
7
100
AcDbPolyline
 90
4
 70
0
 10
1.392661
 20
2.403992
 30
0.0
 10
1.401084
 20
2.418579
 30
0.0
 10
1.371848
 20
2.435445
 30
0.0
 10
1.363628
 20
2.421184
 30
0.0
  0
SPLINE
  5
1b8
100
AcDbEntity
  8
Layer_1
 62
7
100
AcDbSpline
 70
8
 71
3
 72
8
 73
4
 74
0
 40
0
 40
0
 40
0
 40
0
 40
1
 40
1
 40
1
 40
1
 10
1.343932
 20
2.427633
 30
0.0
 10
1.342770
 20
2.427913
 30
0.0
 10
1.341619
 20
2.428218
 30
0.0
 10
1.340433
 20
2.428467
 30
0.0
  0
SPLINE
  5
1b9
100
AcDbEntity
  8
Layer_1
 62
7
100
AcDbSpline
 70
8
 71
3
 72
8
 73
4
 74
0
 40
0
 40
0
 40
0
 40
0
 40
1
 40
1
 40
1
 40
1
 10
1.340433
 20
2.428467
 30
0.0
 10
1.323340
 20
2.432066
 30
0.0
 10
1.306313
 20
2.432014
 30
0.0
 10
1.290160
 20
2.428854
 30
0.0
  0
SPLINE
  5
1ba
100
AcDbEntity
  8
Layer_1
 62
7
100
AcDbSpline
 70
8
 71
3
 72
8
 73
4
 74
0
 40
0
 40
0
 40
0
 40
0
 40
1
 40
1
 40
1
 40
1
 10
1.290160
 20
2.428854
 30
0.0
 10
1.282772
 20
2.427408
 30
0.0
 10
1.275579
 20
2.425286
 30
0.0
 10
1.268635
 20
2.422588
 30
0.0
  0
LWPOLYLINE
  5
1bb
100
AcDbEntity
  8
Layer_1
 62
7
100
AcDbPolyline
 90
3
 70
0
 10
1.346762
 20
2.426962
 30
0.0
 10
1.344016
 20
2.427674
 30
0.0
 10
1.343932
 20
2.427633
 30
0.0
  0
LWPOLYLINE
  5
1bc
100
AcDbEntity
  8
Layer_1
 62
7
100
AcDbPolyline
 90
2
 70
0
 10
1.268635
 20
2.422588
 30
0.0
 10
1.261190
 20
2.435466
 30
0.0
  0
SPLINE
  5
1bd
100
AcDbEntity
  8
Layer_1
 62
7
100
AcDbSpline
 70
8
 71
3
 72
8
 73
4
 74
0
 40
0
 40
0
 40
0
 40
0
 40
1
 40
1
 40
1
 40
1
 10
1.268616
 20
2.422242
 30
0.0
 10
1.275584
 20
2.424958
 30
0.0
 10
1.282806
 20
2.427077
 30
0.0
 10
1.290223
 20
2.428528
 30
0.0
  0
SPLINE
  5
1be
100
AcDbEntity
  8
Layer_1
 62
7
100
AcDbSpline
 70
8
 71
3
 72
8
 73
4
 74
0
 40
0
 40
0
 40
0
 40
0
 40
1
 40
1
 40
1
 40
1
 10
1.290223
 20
2.428528
 30
0.0
 10
1.306332
 20
2.431681
 30
0.0
 10
1.323324
 20
2.431731
 30
0.0
 10
1.340373
 20
2.428142
 30
0.0
  0
SPLINE
  5
1bf
100
AcDbEntity
  8
Layer_1
 62
7
100
AcDbSpline
 70
8
 71
3
 72
8
 73
4
 74
0
 40
0
 40
0
 40
0
 40
0
 40
1
 40
1
 40
1
 40
1
 10
1.340373
 20
2.428142
 30
0.0
 10
1.341556
 20
2.427893
 30
0.0
 10
1.342700
 20
2.427589
 30
0.0
 10
1.343873
 20
2.427308
 30
0.0
  0
LWPOLYLINE
  5
1c0
100
AcDbEntity
  8
Layer_1
 62
7
100
AcDbPolyline
 90
3
 70
0
 10
1.261068
 20
2.434998
 30
0.0
 10
1.268474
 20
2.422180
 30
0.0
 10
1.268616
 20
2.422242
 30
0.0
  0
SPLINE
  5
1c1
100
AcDbEntity
  8
Layer_1
 62
7
100
AcDbSpline
 70
8
 71
3
 72
8
 73
4
 74
0
 40
0
 40
0
 40
0
 40
0
 40
1
 40
1
 40
1
 40
1
 10
1.346684
 20
2.426636
 30
0.0
 10
1.352537
 20
2.425090
 30
0.0
 10
1.358193
 20
2.423137
 30
0.0
 10
1.363632
 20
2.420837
 30
0.0
  0
LWPOLYLINE
  5
1c2
100
AcDbEntity
  8
Layer_1
 62
7
100
AcDbPolyline
 90
4
 70
0
 10
1.343873
 20
2.427308
 30
0.0
 10
1.343935
 20
2.427287
 30
0.0
 10
1.344039
 20
2.427327
 30
0.0
 10
1.346684
 20
2.426636
 30
0.0
  0
SPLINE
  5
1c3
100
AcDbEntity
  8
Layer_1
 62
7
100
AcDbSpline
 70
8
 71
3
 72
8
 73
4
 74
0
 40
0
 40
0
 40
0
 40
0
 40
1
 40
1
 40
1
 40
1
 10
1.392361
 20
2.403828
 30
0.0
 10
1.417691
 20
2.383878
 30
0.0
 10
1.434716
 20
2.354729
 30
0.0
 10
1.439399
 20
2.322550
 30
0.0
  0
LWPOLYLINE
  5
1c4
100
AcDbEntity
  8
Layer_1
 62
7
100
AcDbPolyline
 90
6
 70
0
 10
1.363632
 20
2.420837
 30
0.0
 10
1.363774
 20
2.420776
 30
0.0
 10
1.371973
 20
2.434997
 30
0.0
 10
1.400639
 20
2.418436
 30
0.0
 10
1.392257
 20
2.403930
 30
0.0
 10
1.392361
 20
2.403828
 30
0.0
  0
SPLINE
  5
1c5
100
AcDbEntity
  8
Layer_1
 62
7
100
AcDbSpline
 70
8
 71
3
 72
8
 73
4
 74
0
 40
0
 40
0
 40
0
 40
0
 40
1
 40
1
 40
1
 40
1
 10
1.439765
 20
2.289163
 30
0.0
 10
1.439327
 20
2.285589
 30
0.0
 10
1.438751
 20
2.282007
 30
0.0
 10
1.437995
 20
2.278421
 30
0.0
  0
SPLINE
  5
1c6
100
AcDbEntity
  8
Layer_1
 62
7
100
AcDbSpline
 70
8
 71
3
 72
8
 73
4
 74
0
 40
0
 40
0
 40
0
 40
0
 40
1
 40
1
 40
1
 40
1
 10
1.437995
 20
2.278421
 30
0.0
 10
1.431741
 20
2.248714
 30
0.0
 10
1.415474
 20
2.223649
 30
0.0
 10
1.393460
 20
2.205993
 30
0.0
  0
LWPOLYLINE
  5
1c7
100
AcDbEntity
  8
Layer_1
 62
7
100
AcDbPolyline
 90
6
 70
0
 10
1.439399
 20
2.322550
 30
0.0
 10
1.439420
 20
2.322407
 30
0.0
 10
1.456083
 20
2.322407
 30
0.0
 10
1.456083
 20
2.289326
 30
0.0
 10
1.439786
 20
2.289326
 30
0.0
 10
1.439765
 20
2.289163
 30
0.0
  0
SPLINE
  5
1c8
100
AcDbEntity
  8
Layer_1
 62
7
100
AcDbSpline
 70
8
 71
3
 72
8
 73
4
 74
0
 40
0
 40
0
 40
0
 40
0
 40
1
 40
1
 40
1
 40
1
 10
1.364896
 20
2.188719
 30
0.0
 10
1.341601
 20
2.178509
 30
0.0
 10
1.315030
 20
2.175177
 30
0.0
 10
1.288297
 20
2.180805
 30
0.0
  0
SPLINE
  5
1c9
100
AcDbEntity
  8
Layer_1
 62
7
100
AcDbSpline
 70
8
 71
3
 72
8
 73
4
 74
0
 40
0
 40
0
 40
0
 40
0
 40
1
 40
1
 40
1
 40
1
 10
1.288297
 20
2.180805
 30
0.0
 10
1.280993
 20
2.182343
 30
0.0
 10
1.273984
 20
2.184489
 30
0.0
 10
1.267280
 20
2.187173
 30
0.0
  0
LWPOLYLINE
  5
1ca
100
AcDbEntity
  8
Layer_1
 62
7
100
AcDbPolyline
 90
6
 70
0
 10
1.393460
 20
2.205993
 30
0.0
 10
1.393338
 20
2.205911
 30
0.0
 10
1.400642
 20
2.193277
 30
0.0
 10
1.371976
 20
2.176737
 30
0.0
 10
1.365018
 20
2.188781
 30
0.0
 10
1.364896
 20
2.188719
 30
0.0
  0
SPLINE
  5
1cb
100
AcDbEntity
  8
Layer_1
 62
7
100
AcDbSpline
 70
8
 71
3
 72
8
 73
4
 74
0
 40
0
 40
0
 40
0
 40
0
 40
1
 40
1
 40
1
 40
1
 10
1.238228
 20
2.203633
 30
0.0
 10
1.225285
 20
2.213425
 30
0.0
 10
1.214419
 20
2.225580
 30
0.0
 10
1.206143
 20
2.239318
 30
0.0
  0
LWPOLYLINE
  5
1cc
100
AcDbEntity
  8
Layer_1
 62
7
100
AcDbPolyline
 90
6
 70
0
 10
1.267280
 20
2.187173
 30
0.0
 10
1.267138
 20
2.187214
 30
0.0
 10
1.261075
 20
2.176736
 30
0.0
 10
1.232409
 20
2.193277
 30
0.0
 10
1.238349
 20
2.203531
 30
0.0
 10
1.238228
 20
2.203633
 30
0.0
  0
SPLINE
  5
1cd
100
AcDbEntity
  8
Layer_1
 62
7
100
AcDbSpline
 70
8
 71
3
 72
8
 73
4
 74
0
 40
0
 40
0
 40
0
 40
0
 40
1
 40
1
 40
1
 40
1
 10
1.154669
 20
2.212605
 30
0.0
 10
1.154538
 20
2.212687
 30
0.0
 10
1.140790
 20
2.221297
 30
0.0
 10
1.143011
 20
2.235473
 30
0.0
  0
SPLINE
  5
1ce
100
AcDbEntity
  8
Layer_1
 62
7
100
AcDbSpline
 70
8
 71
3
 72
8
 73
4
 74
0
 40
0
 40
0
 40
0
 40
0
 40
1
 40
1
 40
1
 40
1
 10
1.143011
 20
2.235473
 30
0.0
 10
1.143128
 20
2.235534
 30
0.0
 10
1.173635
 20
2.251759
 30
0.0
 10
1.198370
 20
2.263528
 30
0.0
  0
SPLINE
  5
1cf
100
AcDbEntity
  8
Layer_1
 62
7
100
AcDbSpline
 70
8
 71
3
 72
8
 73
4
 74
0
 40
0
 40
0
 40
0
 40
0
 40
1
 40
1
 40
1
 40
1
 10
1.198370
 20
2.263528
 30
0.0
 10
1.201688
 20
2.265108
 30
0.0
 10
1.204701
 20
2.264973
 30
0.0
 10
1.207383
 20
2.263874
 30
0.0
  0
LWPOLYLINE
  5
1d0
100
AcDbEntity
  8
Layer_1
 62
7
100
AcDbPolyline
 90
3
 70
0
 10
1.206143
 20
2.239318
 30
0.0
 10
1.206081
 20
2.239440
 30
0.0
 10
1.154669
 20
2.212605
 30
0.0
  0
SPLINE
  5
1d1
100
AcDbEntity
  8
Layer_1
 62
7
100
AcDbSpline
 70
8
 71
3
 72
8
 73
4
 74
0
 40
0
 40
0
 40
0
 40
0
 40
1
 40
1
 40
1
 40
1
 10
1.207445
 20
2.263853
 30
0.0
 10
1.209886
 20
2.263889
 30
0.0
 10
1.211394
 20
2.262986
 30
0.0
 10
1.212410
 20
2.262287
 30
0.0
  0
SPLINE
  5
1d2
100
AcDbEntity
  8
Layer_1
 62
7
100
AcDbSpline
 70
8
 71
3
 72
8
 73
4
 74
0
 40
0
 40
0
 40
0
 40
0
 40
1
 40
1
 40
1
 40
1
 10
1.212410
 20
2.262287
 30
0.0
 10
1.214620
 20
2.260765
 30
0.0
 10
1.215698
 20
2.259284
 30
0.0
 10
1.217272
 20
2.257058
 30
0.0
  0
LWPOLYLINE
  5
1d3
100
AcDbEntity
  8
Layer_1
 62
7
100
AcDbPolyline
 90
2
 70
1
 10
1.207383
 20
2.263874
 30
0.0
 10
1.207425
 20
2.263853
 30
0.0
  0
SPLINE
  5
1d4
100
AcDbEntity
  8
Layer_1
 62
7
100
AcDbSpline
 70
8
 71
3
 72
8
 73
4
 74
0
 40
0
 40
0
 40
0
 40
0
 40
1
 40
1
 40
1
 40
1
 10
1.217821
 20
2.256122
 30
0.0
 10
1.232061
 20
2.227735
 30
0.0
 10
1.258555
 20
2.205893
 30
0.0
 10
1.292101
 20
2.198831
 30
0.0
  0
SPLINE
  5
1d5
100
AcDbEntity
  8
Layer_1
 62
7
100
AcDbSpline
 70
8
 71
3
 72
8
 73
4
 74
0
 40
0
 40
0
 40
0
 40
0
 40
1
 40
1
 40
1
 40
1
 10
1.292101
 20
2.198831
 30
0.0
 10
1.350561
 20
2.186523
 30
0.0
 10
1.407662
 20
2.223765
 30
0.0
 10
1.419969
 20
2.282225
 30
0.0
  0
SPLINE
  5
1d6
100
AcDbEntity
  8
Layer_1
 62
7
100
AcDbSpline
 70
8
 71
3
 72
8
 73
4
 74
0
 40
0
 40
0
 40
0
 40
0
 40
1
 40
1
 40
1
 40
1
 10
1.419969
 20
2.282225
 30
0.0
 10
1.432277
 20
2.340685
 30
0.0
 10
1.395035
 20
2.397807
 30
0.0
 10
1.336575
 20
2.410114
 30
0.0
  0
SPLINE
  5
1d7
100
AcDbEntity
  8
Layer_1
 62
7
100
AcDbSpline
 70
8
 71
3
 72
8
 73
4
 74
0
 40
0
 40
0
 40
0
 40
0
 40
1
 40
1
 40
1
 40
1
 10
1.336575
 20
2.410114
 30
0.0
 10
1.278115
 20
2.422422
 30
0.0
 10
1.220973
 20
2.385158
 30
0.0
 10
1.208666
 20
2.326699
 30
0.0
  0
SPLINE
  5
1d8
100
AcDbEntity
  8
Layer_1
 62
7
100
AcDbSpline
 70
8
 71
3
 72
8
 73
4
 74
0
 40
0
 40
0
 40
0
 40
0
 40
1
 40
1
 40
1
 40
1
 10
1.208666
 20
2.326699
 30
0.0
 10
1.208655
 20
2.326631
 30
0.0
 10
1.208659
 20
2.326551
 30
0.0
 10
1.208645
 20
2.326374
 30
0.0
  0
SPLINE
  5
1d9
100
AcDbEntity
  8
Layer_1
 62
7
100
AcDbSpline
 70
8
 71
3
 72
8
 73
4
 74
0
 40
0
 40
0
 40
0
 40
0
 40
1
 40
1
 40
1
 40
1
 10
1.208645
 20
2.326374
 30
0.0
 10
1.208634
 20
2.326197
 30
0.0
 10
1.208603
 20
2.325960
 30
0.0
 10
1.208582
 20
2.325662
 30
0.0
  0
SPLINE
  5
1da
100
AcDbEntity
  8
Layer_1
 62
7
100
AcDbSpline
 70
8
 71
3
 72
8
 73
4
 74
0
 40
0
 40
0
 40
0
 40
0
 40
1
 40
1
 40
1
 40
1
 10
1.208582
 20
2.325662
 30
0.0
 10
1.208541
 20
2.325066
 30
0.0
 10
1.208509
 20
2.324236
 30
0.0
 10
1.208461
 20
2.323281
 30
0.0
  0
SPLINE
  5
1db
100
AcDbEntity
  8
Layer_1
 62
7
100
AcDbSpline
 70
8
 71
3
 72
8
 73
4
 74
0
 40
0
 40
0
 40
0
 40
0
 40
1
 40
1
 40
1
 40
1
 10
1.208461
 20
2.323281
 30
0.0
 10
1.208367
 20
2.321373
 30
0.0
 10
1.208281
 20
2.318927
 30
0.0
 10
1.208277
 20
2.316608
 30
0.0
  0
SPLINE
  5
1dc
100
AcDbEntity
  8
Layer_1
 62
7
100
AcDbSpline
 70
8
 71
3
 72
8
 73
4
 74
0
 40
0
 40
0
 40
0
 40
0
 40
1
 40
1
 40
1
 40
1
 10
1.208277
 20
2.316608
 30
0.0
 10
1.208277
 20
2.315924
 30
0.0
 10
1.208274
 20
2.315303
 30
0.0
 10
1.208277
 20
2.314635
 30
0.0
  0
LWPOLYLINE
  5
1dd
100
AcDbEntity
  8
Layer_1
 62
7
100
AcDbPolyline
 90
4
 70
0
 10
1.217272
 20
2.257058
 30
0.0
 10
1.217251
 20
2.257058
 30
0.0
 10
1.217556
 20
2.256590
 30
0.0
 10
1.217821
 20
2.256122
 30
0.0
  0
SPLINE
  5
1de
100
AcDbEntity
  8
Layer_1
 62
7
100
AcDbSpline
 70
8
 71
3
 72
8
 73
4
 74
0
 40
0
 40
0
 40
0
 40
0
 40
1
 40
1
 40
1
 40
1
 10
1.189927
 20
2.322977
 30
0.0
 10
1.190103
 20
2.324632
 30
0.0
 10
1.190058
 20
2.324474
 30
0.0
 10
1.190049
 20
2.325540
 30
0.0
  0
SPLINE
  5
1df
100
AcDbEntity
  8
Layer_1
 62
7
100
AcDbSpline
 70
8
 71
3
 72
8
 73
4
 74
0
 40
0
 40
0
 40
0
 40
0
 40
1
 40
1
 40
1
 40
1
 10
1.190049
 20
2.325540
 30
0.0
 10
1.190042
 20
2.326595
 30
0.0
 10
1.190192
 20
2.328284
 30
0.0
 10
1.190660
 20
2.330504
 30
0.0
  0
SPLINE
  5
1e0
100
AcDbEntity
  8
Layer_1
 62
7
100
AcDbSpline
 70
8
 71
3
 72
8
 73
4
 74
0
 40
0
 40
0
 40
0
 40
0
 40
1
 40
1
 40
1
 40
1
 10
1.190660
 20
2.330504
 30
0.0
 10
1.197301
 20
2.362051
 30
0.0
 10
1.215253
 20
2.388367
 30
0.0
 10
1.239366
 20
2.406127
 30
0.0
  0
LWPOLYLINE
  5
1e1
100
AcDbEntity
  8
Layer_1
 62
7
100
AcDbPolyline
 90
15
 70
0
 10
1.208277
 20
2.314635
 30
0.0
 10
1.208277
 20
2.314472
 30
0.0
 10
1.269007
 20
2.314533
 30
0.0
 10
1.300501
 20
2.332803
 30
0.0
 10
1.300501
 20
2.342793
 30
0.0
 10
1.333603
 20
2.342793
 30
0.0
 10
1.333603
 20
2.313537
 30
0.0
 10
1.301824
 20
2.313537
 30
0.0
 10
1.273687
 20
2.297220
 30
0.0
 10
1.206222
 20
2.297179
 30
0.0
 10
1.206222
 20
2.289326
 30
0.0
 10
1.176966
 20
2.289326
 30
0.0
 10
1.176966
 20
2.322407
 30
0.0
 10
1.189865
 20
2.322407
 30
0.0
 10
1.189927
 20
2.322977
 30
0.0
  0
LWPOLYLINE
  5
1e2
100
AcDbEntity
  8
Layer_1
 62
7
100
AcDbPolyline
 90
4
 70
0
 10
1.239366
 20
2.406127
 30
0.0
 10
1.239488
 20
2.406208
 30
0.0
 10
1.232428
 20
2.418456
 30
0.0
 10
1.261068
 20
2.434998
 30
0.0
  0
LWPOLYLINE
  5
1e3
100
AcDbEntity
  8
Layer_1
 62
7
100
AcDbPolyline
 90
5
 70
1
 10
1.520223
 20
2.604411
 30
0.0
 10
1.520223
 20
2.603760
 30
0.0
 10
1.520223
 20
2.500244
 30
0.0
 10
1.624390
 20
2.500244
 30
0.0
 10
1.624390
 20
2.604411
 30
0.0
  0
LWPOLYLINE
  5
1e4
100
AcDbEntity
  8
Layer_1
 62
7
100
AcDbPolyline
 90
4
 70
1
 10
1.521505
 20
2.603129
 30
0.0
 10
1.623108
 20
2.603129
 30
0.0
 10
1.623108
 20
2.501506
 30
0.0
 10
1.521505
 20
2.501506
 30
0.0
  0
ENDSEC
  0
SECTION
  2
OBJECTS
  0
DICTIONARY
  5
C
330
0
100
AcDbDictionary
  3
ACAD_GROUP
350
D
  3
ACAD_MLINESTYLE
350
17
  0
DICTIONARY
  5
D
330
C
100
AcDbDictionary
  0
DICTIONARY
  5
1A
330
C
100
AcDbDictionary
  0
DICTIONARY
  5
17
330
C
100
AcDbDictionary
  3
STANDARD
350
18
  0
DICTIONARY
  5
19
330
C
100
AcDbDictionary
  0
ENDSEC
  0
EOF
