  0
SECTION
  2
HEADER
  9
$ACADVER
  1
AC1018
  9
$ACADMAINTVER
 70
     0
  9
$DWGCODEPAGE
  3
ANSI_1252
  9
$INSBASE
 10
0.0
 20
0.0
 30
0.0
  9
$EXTMIN
 10
1.000000000000000E+20
 20
1.000000000000000E+20
 30
1.000000000000000E+20
  9
$EXTMAX
 10
-1.000000000000000E+20
 20
-1.000000000000000E+20
 30
-1.000000000000000E+20
  9
$LIMMIN
 10
0.0
 20
0.0
  9
$LIMMAX
 10
12.0
 20
9.0
  9
$ORTHOMODE
 70
     0
  9
$REGENMODE
 70
     1
  9
$FILLMODE
 70
     1
  9
$QTEXTMODE
 70
     0
  9
$MIRRTEXT
 70
     1
  9
$LTSCALE
 40
1.0
  9
$ATTMODE
 70
     1
  9
$TEXTSIZE
 40
0.2
  9
$TRACEWID
 40
0.05
  9
$TEXTSTYLE
  7
Standard
  9
$CLAYER
  8
0
  9
$CELTYPE
  6
ByLayer
  9
$CECOLOR
 62
   256
  9
$CELTSCALE
 40
1.0
  9
$DISPSILH
 70
     0
  9
$DIMSCALE
 40
1.0
  9
$DIMASZ
 40
0.18
  9
$DIMEXO
 40
0.0625
  9
$DIMDLI
 40
0.38
  9
$DIMRND
 40
0.0
  9
$DIMDLE
 40
0.0
  9
$DIMEXE
 40
0.18
  9
$DIMTP
 40
0.0
  9
$DIMTM
 40
0.0
  9
$DIMTXT
 40
0.18
  9
$DIMCEN
 40
0.09
  9
$DIMTSZ
 40
0.0
  9
$DIMTOL
 70
     0
  9
$DIMLIM
 70
     0
  9
$DIMTIH
 70
     1
  9
$DIMTOH
 70
     1
  9
$DIMSE1
 70
     0
  9
$DIMSE2
 70
     0
  9
$DIMTAD
 70
     0
  9
$DIMZIN
 70
     0
  9
$DIMBLK
  1

  9
$DIMASO
 70
     1
  9
$DIMSHO
 70
     1
  9
$DIMPOST
  1

  9
$DIMAPOST
  1

  9
$DIMALT
 70
     0
  9
$DIMALTD
 70
     2
  9
$DIMALTF
 40
25.4
  9
$DIMLFAC
 40
1.0
  9
$DIMTOFL
 70
     0
  9
$DIMTVP
 40
0.0
  9
$DIMTIX
 70
     0
  9
$DIMSOXD
 70
     0
  9
$DIMSAH
 70
     0
  9
$DIMBLK1
  1

  9
$DIMBLK2
  1

  9
$DIMSTYLE
  2
Standard
  9
$DIMCLRD
 70
     0
  9
$DIMCLRE
 70
     0
  9
$DIMCLRT
 70
     0
  9
$DIMTFAC
 40
1.0
  9
$DIMGAP
 40
0.09
  9
$DIMJUST
 70
     0
  9
$DIMSD1
 70
     0
  9
$DIMSD2
 70
     0
  9
$DIMTOLJ
 70
     1
  9
$DIMTZIN
 70
     0
  9
$DIMALTZ
 70
     0
  9
$DIMALTTZ
 70
     0
  9
$DIMUPT
 70
     0
  9
$DIMDEC
 70
     4
  9
$DIMTDEC
 70
     4
  9
$DIMALTU
 70
     2
  9
$DIMALTTD
 70
     2
  9
$DIMTXSTY
  7
Standard
  9
$DIMAUNIT
 70
     0
  9
$DIMADEC
 70
     0
  9
$DIMALTRND
 40
0.0
  9
$DIMAZIN
 70
     0
  9
$DIMDSEP
 70
    46
  9
$DIMATFIT
 70
     3
  9
$DIMFRAC
 70
     0
  9
$DIMLDRBLK
  1

  9
$DIMLUNIT
 70
     2
  9
$DIMLWD
 70
    -2
  9
$DIMLWE
 70
    -2
  9
$DIMTMOVE
 70
     0
  9
$LUNITS
 70
     2
  9
$LUPREC
 70
     4
  9
$SKETCHINC
 40
0.1
  9
$FILLETRAD
 40
0.5
  9
$AUNITS
 70
     0
  9
$AUPREC
 70
     0
  9
$MENU
  1
.
  9
$ELEVATION
 40
0.0
  9
$PELEVATION
 40
0.0
  9
$THICKNESS
 40
0.0
  9
$LIMCHECK
 70
     0
  9
$CHAMFERA
 40
0.5
  9
$CHAMFERB
 40
0.5
  9
$CHAMFERC
 40
1.0
  9
$CHAMFERD
 40
0.0
  9
$SKPOLY
 70
     0
  9
$TDCREATE
 40
2458742.483944085
  9
$TDUCREATE
 40
2458742.358944085
  9
$TDUPDATE
 40
2458742.483944097
  9
$TDUUPDATE
 40
2458742.358944097
  9
$TDINDWG
 40
0.0000000116
  9
$TDUSRTIMER
 40
0.0000000116
  9
$USRTIMER
 70
     1
  9
$ANGBASE
 50
0.0
  9
$ANGDIR
 70
     0
  9
$PDMODE
 70
     0
  9
$PDSIZE
 40
0.0
  9
$PLINEWID
 40
0.0
  9
$SPLFRAME
 70
     0
  9
$SPLINETYPE
 70
     6
  9
$SPLINESEGS
 70
     8
  9
$HANDSEED
  5
52
  9
$SURFTAB1
 70
     6
  9
$SURFTAB2
 70
     6
  9
$SURFTYPE
 70
     6
  9
$SURFU
 70
     6
  9
$SURFV
 70
     6
  9
$UCSBASE
  2

  9
$UCSNAME
  2

  9
$UCSORG
 10
0.0
 20
0.0
 30
0.0
  9
$UCSXDIR
 10
1.0
 20
0.0
 30
0.0
  9
$UCSYDIR
 10
0.0
 20
1.0
 30
0.0
  9
$UCSORTHOREF
  2

  9
$UCSORTHOVIEW
 70
     0
  9
$UCSORGTOP
 10
0.0
 20
0.0
 30
0.0
  9
$UCSORGBOTTOM
 10
0.0
 20
0.0
 30
0.0
  9
$UCSORGLEFT
 10
0.0
 20
0.0
 30
0.0
  9
$UCSORGRIGHT
 10
0.0
 20
0.0
 30
0.0
  9
$UCSORGFRONT
 10
0.0
 20
0.0
 30
0.0
  9
$UCSORGBACK
 10
0.0
 20
0.0
 30
0.0
  9
$PUCSBASE
  2

  9
$PUCSNAME
  2

  9
$PUCSORG
 10
0.0
 20
0.0
 30
0.0
  9
$PUCSXDIR
 10
1.0
 20
0.0
 30
0.0
  9
$PUCSYDIR
 10
0.0
 20
1.0
 30
0.0
  9
$PUCSORTHOREF
  2

  9
$PUCSORTHOVIEW
 70
     0
  9
$PUCSORGTOP
 10
0.0
 20
0.0
 30
0.0
  9
$PUCSORGBOTTOM
 10
0.0
 20
0.0
 30
0.0
  9
$PUCSORGLEFT
 10
0.0
 20
0.0
 30
0.0
  9
$PUCSORGRIGHT
 10
0.0
 20
0.0
 30
0.0
  9
$PUCSORGFRONT
 10
0.0
 20
0.0
 30
0.0
  9
$PUCSORGBACK
 10
0.0
 20
0.0
 30
0.0
  9
$USERI1
 70
     0
  9
$USERI2
 70
     0
  9
$USERI3
 70
     0
  9
$USERI4
 70
     0
  9
$USERI5
 70
     0
  9
$USERR1
 40
0.0
  9
$USERR2
 40
0.0
  9
$USERR3
 40
0.0
  9
$USERR4
 40
0.0
  9
$USERR5
 40
0.0
  9
$WORLDVIEW
 70
     1
  9
$SHADEDGE
 70
     3
  9
$SHADEDIF
 70
    70
  9
$TILEMODE
 70
     1
  9
$MAXACTVP
 70
    64
  9
$PINSBASE
 10
0.0
 20
0.0
 30
0.0
  9
$PLIMCHECK
 70
     0
  9
$PEXTMIN
 10
1.000000000000000E+20
 20
1.000000000000000E+20
 30
1.000000000000000E+20
  9
$PEXTMAX
 10
-1.000000000000000E+20
 20
-1.000000000000000E+20
 30
-1.000000000000000E+20
  9
$PLIMMIN
 10
0.0
 20
0.0
  9
$PLIMMAX
 10
12.0
 20
9.0
  9
$UNITMODE
 70
     0
  9
$VISRETAIN
 70
     1
  9
$PLINEGEN
 70
     0
  9
$PSLTSCALE
 70
     1
  9
$TREEDEPTH
 70
  3020
  9
$CMLSTYLE
  2
Standard
  9
$CMLJUST
 70
     0
  9
$CMLSCALE
 40
1.0
  9
$PROXYGRAPHICS
 70
     1
  9
$MEASUREMENT
 70
     0
  9
$CELWEIGHT
370
    -1
  9
$ENDCAPS
280
     0
  9
$JOINSTYLE
280
     0
  9
$LWDISPLAY
290
     1
  9
$INSUNITS
 70
     1
  9
$HYPERLINKBASE
  1

  9
$STYLESHEET
  1

  9
$XEDIT
290
     1
  9
$CEPSNTYPE
380
     0
  9
$PSTYLEMODE
290
     1
  9
$FINGERPRINTGUID
  2
{8C31A864-C2DF-4D48-B724-415D87A2EAE9}
  9
$VERSIONGUID
  2
{FAEB1C32-E019-11D5-929B-00C0DF256EC4}
  9
$EXTNAMES
290
     1
  9
$PSVPSCALE
 40
0.0
  9
$OLESTARTUP
290
     0
  9
$SORTENTS
280
   127
  9
$INDEXCTL
280
     0
  9
$HIDETEXT
280
     1
  9
$XCLIPFRAME
290
     0
  9
$HALOGAP
280
     0
  9
$OBSCOLOR
 70
   257
  9
$OBSLTYPE
280
     0
  9
$INTERSECTIONDISPLAY
280
     0
  9
$INTERSECTIONCOLOR
 70
   257
  9
$DIMASSOC
280
     2
  9
$PROJECTNAME
  1

  0
ENDSEC
  0
SECTION
  2
CLASSES
  0
CLASS
  1
ACDBDICTIONARYWDFLT
  2
AcDbDictionaryWithDefault
  3
ObjectDBX Classes
 90
        0
 91
        3
280
     0
281
     0
  0
CLASS
  1
VISUALSTYLE
  2
AcDbVisualStyle
  3
ObjectDBX Classes
 90
     4095
 91
        3
280
     0
281
     0
  0
ENDSEC
  0
SECTION
  2
TABLES
  0
TABLE
  2
VPORT
  5
8
330
0
100
AcDbSymbolTable
 70
     1
  0
VPORT
  5
29
330
8
100
AcDbSymbolTableRecord
100
AcDbViewportTableRecord
  2
*Active
 70
     0
 10
0.0
 20
0.0
 11
1.0
 21
1.0
 12
0.0
 22
0.0
 13
0.0
 23
0.0
 14
0.5
 24
0.5
 15
0.5
 25
0.5
 16
0.0
 26
0.0
 36
1.0
 17
305.499999923625
 27
396.4997557602501
 37
0.0
 40
841.8901365082775
 41
0.7070701563805866
 42
50.0
 43
0.0
 44
0.0
 50
0.0
 51
0.0
 71
     0
 72
   100
 73
     1
 74
     3
 75
     0
 76
     0
 77
     0
 78
     0
281
     0
 65
     1
110
0.0
120
0.0
130
0.0
111
1.0
121
0.0
131
0.0
112
0.0
122
1.0
132
0.0
 79
     0
146
0.0
  0
ENDTAB
  0
TABLE
  2
LTYPE
  5
5
330
0
100
AcDbSymbolTable
 70
     1
  0
LTYPE
  5
14
330
5
100
AcDbSymbolTableRecord
100
AcDbLinetypeTableRecord
  2
ByBlock
 70
     0
  3

 72
    65
 73
     0
 40
0.0
  0
LTYPE
  5
15
330
5
100
AcDbSymbolTableRecord
100
AcDbLinetypeTableRecord
  2
ByLayer
 70
     0
  3

 72
    65
 73
     0
 40
0.0
  0
LTYPE
  5
16
330
5
100
AcDbSymbolTableRecord
100
AcDbLinetypeTableRecord
  2
Continuous
 70
     0
  3
Solid line
 72
    65
 73
     0
 40
0.0
  0
ENDTAB
  0
TABLE
  2
LAYER
  5
2
330
0
100
AcDbSymbolTable
 70
     2
  0
LAYER
  5
10
330
2
100
AcDbSymbolTableRecord
100
AcDbLayerTableRecord
  2
0
 70
     0
 62
     7
  6
Continuous
370
    -3
390
F
  0
LAYER
  5
3B
330
2
100
AcDbSymbolTableRecord
100
AcDbLayerTableRecord
  2
svg5872
 70
     0
 62
     7
  6
Continuous
370
    -3
390
F
  0
ENDTAB
  0
TABLE
  2
STYLE
  5
3
330
0
100
AcDbSymbolTable
 70
     1
  0
STYLE
  5
11
330
3
100
AcDbSymbolTableRecord
100
AcDbTextStyleTableRecord
  2
Standard
 70
     0
 40
0.0
 41
1.0
 50
0.0
 71
     0
 42
0.2
  3
txt
  4

  0
ENDTAB
  0
TABLE
  2
VIEW
  5
6
330
0
100
AcDbSymbolTable
 70
     0
  0
ENDTAB
  0
TABLE
  2
UCS
  5
7
330
0
100
AcDbSymbolTable
 70
     0
  0
ENDTAB
  0
TABLE
  2
APPID
  5
9
330
0
100
AcDbSymbolTable
 70
     1
  0
APPID
  5
12
330
9
100
AcDbSymbolTableRecord
100
AcDbRegAppTableRecord
  2
ACAD
 70
     0
  0
ENDTAB
  0
TABLE
  2
DIMSTYLE
  5
A
330
0
100
AcDbSymbolTable
 70
     1
100
AcDbDimStyleTable
  0
DIMSTYLE
105
27
330
A
100
AcDbSymbolTableRecord
100
AcDbDimStyleTableRecord
  2
Standard
 70
     0
340
11
  0
ENDTAB
  0
TABLE
  2
BLOCK_RECORD
  5
1
330
0
100
AcDbSymbolTable
 70
     2
  0
BLOCK_RECORD
  5
1F
330
1
100
AcDbSymbolTableRecord
100
AcDbBlockTableRecord
  2
*Model_Space
340
22
  0
BLOCK_RECORD
  5
1B
330
1
100
AcDbSymbolTableRecord
100
AcDbBlockTableRecord
  2
*Paper_Space
340
1E
  0
BLOCK_RECORD
  5
23
330
1
100
AcDbSymbolTableRecord
100
AcDbBlockTableRecord
  2
*Paper_Space0
340
26
  0
BLOCK_RECORD
  5
3C
330
1
100
AcDbSymbolTableRecord
100
AcDbBlockTableRecord
  2
block 2
340
0
102
{BLKREFS
331
3D
102
}
  0
ENDTAB
  0
ENDSEC
  0
SECTION
  2
BLOCKS
  0
BLOCK
  5
20
330
1F
100
AcDbEntity
  8
0
100
AcDbBlockBegin
  2
*Model_Space
 70
     0
 71
     0
 10
0.0
 20
0.0
 30
0.0
  3
*Model_Space
  1

  0
ENDBLK
  5
21
330
1F
100
AcDbEntity
  8
0
100
AcDbBlockEnd
  0
BLOCK
  5
1C
330
1B
100
AcDbEntity
 67
     1
  8
0
100
AcDbBlockBegin
  2
*Paper_Space
 70
     0
 71
     0
 10
0.0
 20
0.0
 30
0.0
  3
*Paper_Space
  1

  0
ENDBLK
  5
1D
330
1B
100
AcDbEntity
 67
     1
  8
0
100
AcDbBlockEnd
  0
BLOCK
  5
24
330
23
100
AcDbEntity
  8
0
100
AcDbBlockBegin
  2
*Paper_Space0
 70
     0
 71
     0
 10
0.0
 20
0.0
 30
0.0
  3
*Paper_Space0
  1

  0
ENDBLK
  5
25
330
23
100
AcDbEntity
  8
0
100
AcDbBlockEnd
  0
BLOCK
  5
3E
330
3C
100
AcDbEntity
  8
0
100
AcDbBlockBegin
  2
block 2
 70
     0
 71
     0
 10
0.0
 20
0.0
 30
0.0
  3
block 2
  1

  0
POLYLINE
  5
40
330
3C
100
AcDbEntity
  8
svg5872
370
     0
100
AcDb2dPolyline
 66
     1
 10
0.0
 20
0.0
 30
0.0
  0
VERTEX
  5
41
330
40
100
AcDbEntity
  8
svg5872
370
     0
100
AcDbVertex
100
AcDb2dVertex
 10
421.5546873946113
 20
684.2827146726793
 30
0.0
  0
VERTEX
  5
42
330
40
100
AcDbEntity
  8
svg5872
370
     0
100
AcDbVertex
100
AcDb2dVertex
 10
421.5546873946113
 20
684.1059568602235
 30
0.0
  0
VERTEX
  5
43
330
40
100
AcDbEntity
  8
svg5872
370
     0
100
AcDbVertex
100
AcDb2dVertex
 10
421.5546873946113
 20
655.9365232735158
 30
0.0
  0
VERTEX
  5
44
330
40
100
AcDbEntity
  8
svg5872
370
     0
100
AcDbVertex
100
AcDb2dVertex
 10
449.9013670750247
 20
655.9365232735158
 30
0.0
  0
VERTEX
  5
45
330
40
100
AcDbEntity
  8
svg5872
370
     0
100
AcDbVertex
100
AcDb2dVertex
 10
449.9013670750247
 20
684.2827146726793
 30
0.0
  0
VERTEX
  5
46
330
40
100
AcDbEntity
  8
svg5872
370
     0
100
AcDbVertex
100
AcDb2dVertex
 10
421.5546873946113
 20
684.2827146726793
 30
0.0
  0
SEQEND
  5
47
330
40
100
AcDbEntity
  8
svg5872
370
     0
  0
HATCH
  5
48
330
3C
100
AcDbEntity
  8
svg5872
 62
     7
100
AcDbHatch
 10
0.0
 20
0.0
 30
0.0
210
0.0
220
0.0
230
1.0
  2
SOLID
 70
     1
 71
     0
 91
        1
 92
        1
 93
        5
 72
     1
 10
421.5546873946113
 20
684.2827146726793
 11
421.5546873946113
 21
684.1059568602235
 72
     1
 10
421.5546873946113
 20
684.1059568602235
 11
421.5546873946113
 21
655.9365232735158
 72
     1
 10
421.5546873946113
 20
655.9365232735158
 11
449.9013670750247
 21
655.9365232735158
 72
     1
 10
449.9013670750247
 20
655.9365232735158
 11
449.9013670750247
 21
684.2827146726793
 72
     1
 10
449.9013670750247
 20
684.2827146726793
 11
421.5546873946113
 21
684.2827146726793
 97
        0
 75
     2
 76
     1
 98
        0
  0
SPLINE
  5
49
330
3C
100
AcDbEntity
  8
svg5872
370
     0
100
AcDbSpline
210
0.0
220
0.0
230
1.0
 70
    11
 71
     3
 72
   197
 73
   193
 74
     0
 42
0.0000000001
 43
0.0000000001
 40
0.0
 40
0.0
 40
0.0
 40
0.0
 40
1.0
 40
1.0
 40
1.0
 40
2.0
 40
2.0
 40
2.0
 40
3.0
 40
3.0
 40
3.0
 40
4.0
 40
4.0
 40
4.0
 40
5.0
 40
5.0
 40
5.0
 40
6.0
 40
6.0
 40
6.0
 40
7.0
 40
7.0
 40
7.0
 40
8.0
 40
8.0
 40
8.0
 40
9.0
 40
9.0
 40
9.0
 40
10.0
 40
10.0
 40
10.0
 40
11.0
 40
11.0
 40
11.0
 40
12.0
 40
12.0
 40
12.0
 40
13.0
 40
13.0
 40
13.0
 40
14.0
 40
14.0
 40
14.0
 40
15.0
 40
15.0
 40
15.0
 40
16.0
 40
16.0
 40
16.0
 40
17.0
 40
17.0
 40
17.0
 40
18.0
 40
18.0
 40
18.0
 40
19.0
 40
19.0
 40
19.0
 40
20.0
 40
20.0
 40
20.0
 40
21.0
 40
21.0
 40
21.0
 40
22.0
 40
22.0
 40
22.0
 40
23.0
 40
23.0
 40
23.0
 40
24.0
 40
24.0
 40
24.0
 40
25.0
 40
25.0
 40
25.0
 40
26.0
 40
26.0
 40
26.0
 40
27.0
 40
27.0
 40
27.0
 40
28.0
 40
28.0
 40
28.0
 40
29.0
 40
29.0
 40
29.0
 40
30.0
 40
30.0
 40
30.0
 40
31.0
 40
31.0
 40
31.0
 40
32.0
 40
32.0
 40
32.0
 40
33.0
 40
33.0
 40
33.0
 40
34.0
 40
34.0
 40
34.0
 40
35.0
 40
35.0
 40
35.0
 40
36.0
 40
36.0
 40
36.0
 40
37.0
 40
37.0
 40
37.0
 40
38.0
 40
38.0
 40
38.0
 40
39.0
 40
39.0
 40
39.0
 40
40.0
 40
40.0
 40
40.0
 40
41.0
 40
41.0
 40
41.0
 40
42.0
 40
42.0
 40
42.0
 40
43.0
 40
43.0
 40
43.0
 40
44.0
 40
44.0
 40
44.0
 40
45.0
 40
45.0
 40
45.0
 40
46.0
 40
46.0
 40
46.0
 40
47.0
 40
47.0
 40
47.0
 40
48.0
 40
48.0
 40
48.0
 40
49.0
 40
49.0
 40
49.0
 40
50.0
 40
50.0
 40
50.0
 40
51.0
 40
51.0
 40
51.0
 40
52.0
 40
52.0
 40
52.0
 40
53.0
 40
53.0
 40
53.0
 40
54.0
 40
54.0
 40
54.0
 40
55.0
 40
55.0
 40
55.0
 40
56.0
 40
56.0
 40
56.0
 40
57.0
 40
57.0
 40
57.0
 40
58.0
 40
58.0
 40
58.0
 40
59.0
 40
59.0
 40
59.0
 40
60.0
 40
60.0
 40
60.0
 40
61.0
 40
61.0
 40
61.0
 40
62.0
 40
62.0
 40
62.0
 40
63.0
 40
63.0
 40
63.0
 40
64.0
 40
64.0
 40
64.0
 40
64.0
 10
344.7314452263171
 20
575.1767576687058
 30
0.0
 10
344.7314452263171
 20
575.1767576687058
 30
0.0
 10
343.1093749142227
 20
572.3696287631576
 30
0.0
 10
343.1093749142227
 20
572.3696287631576
 30
0.0
 10
343.1093749142227
 20
572.3696287631576
 30
0.0
 10
351.0654295997336
 20
567.7802732955549
 30
0.0
 10
351.0654295997336
 20
567.7802732955549
 30
0.0
 10
351.0654295997336
 20
567.7802732955549
 30
0.0
 10
352.7255858493186
 20
570.647949076088
 30
0.0
 10
352.7255858493186
 20
570.647949076088
 30
0.0
 10
354.5419920988645
 20
569.9233397012691
 30
0.0
 10
356.4453124108887
 20
569.3369139201658
 30
0.0
 10
358.4228514728943
 20
568.9208982952698
 30
0.0
 10
365.7031249085742
 20
567.3881834519029
 30
0.0
 10
372.9316405317671
 20
568.2954100141761
 30
0.0
 10
379.2783202176804
 20
571.0688475134828
 30
0.0
 10
379.2783202176804
 20
571.0688475134828
 30
0.0
 10
381.1777342797055
 20
567.7749022018063
 30
0.0
 10
381.1777342797055
 20
567.7749022018063
 30
0.0
 10
381.1777342797055
 20
567.7749022018063
 30
0.0
 10
389.1337889652165
 20
572.3696287631576
 30
0.0
 10
389.1337889652165
 20
572.3696287631576
 30
0.0
 10
389.1337889652165
 20
572.3696287631576
 30
0.0
 10
387.1406249032148
 20
575.8247068872938
 30
0.0
 10
387.1406249032148
 20
575.8247068872938
 30
0.0
 10
393.1308592767173
 20
580.6406248548399
 30
0.0
 10
397.5615233381096
 20
587.4648436031338
 30
0.0
 10
399.2656249001836
 20
595.5561521948609
 30
0.0
 10
399.4687499001328
 20
596.5219725071195
 30
0.0
 10
399.6220702125945
 20
597.4848631318788
 30
0.0
 10
399.7412108375647
 20
598.4462889128885
 30
0.0
 10
399.7412108375647
 20
598.4462889128885
 30
0.0
 10
404.1923827114519
 20
598.4462889128885
 30
0.0
 10
404.1923827114519
 20
598.4462889128885
 30
0.0
 10
404.1923827114519
 20
598.4462889128885
 30
0.0
 10
404.1923827114519
 20
607.6367185980909
 30
0.0
 10
404.1923827114519
 20
607.6367185980909
 30
0.0
 10
404.1923827114519
 20
607.6367185980909
 30
0.0
 10
399.635742087591
 20
607.6367185980909
 30
0.0
 10
399.635742087591
 20
607.6367185980909
 30
0.0
 10
398.3515624004121
 20
616.3876951584031
 30
0.0
 10
393.7246092765689
 20
624.3095701564226
 30
0.0
 10
386.8417967782896
 20
629.7436521863141
 30
0.0
 10
386.8417967782896
 20
629.7436521863141
 30
0.0
 10
389.1337889652165
 20
633.7133787478216
 30
0.0
 10
389.1337889652165
 20
633.7133787478216
 30
0.0
 10
389.1337889652165
 20
633.7133787478216
 30
0.0
 10
381.1777342797055
 20
638.3032224966742
 30
0.0
 10
381.1777342797055
 20
638.3032224966742
 30
0.0
 10
381.1777342797055
 20
638.3032224966742
 30
0.0
 10
378.9414061552646
 20
634.4218748413945
 30
0.0
 10
378.9414061552646
 20
634.4218748413945
 30
0.0
 10
377.4667967806333
 20
635.0434568724892
 30
0.0
 10
375.9365233435159
 20
635.575683434856
 30
0.0
 10
374.3515624064121
 20
635.9946287472513
 30
0.0
 10
374.3515624064121
 20
635.9946287472513
 30
0.0
 10
373.6035155315991
 20
636.187988122203
 30
0.0
 10
373.6035155315991
 20
636.187988122203
 30
0.0
 10
373.6035155315991
 20
636.187988122203
 30
0.0
 10
373.5810545941047
 20
636.1772459347056
 30
0.0
 10
373.5810545941047
 20
636.1772459347056
 30
0.0
 10
373.2646483441839
 20
636.2534178096867
 30
0.0
 10
372.952148344262
 20
636.3364256221658
 30
0.0
 10
372.6289061568428
 20
636.4042967158989
 30
0.0
 10
367.9775389705056
 20
637.3833006219041
 30
0.0
 10
363.343749909164
 20
637.3696287469076
 30
0.0
 10
358.9482420977629
 20
636.5092771846226
 30
0.0
 10
356.9374999107656
 20
636.1157224972211
 30
0.0
 10
354.9804686612549
 20
635.5385740598654
 30
0.0
 10
353.0908202242273
 20
634.804199060049
 30
0.0
 10
353.0908202242273
 20
634.804199060049
 30
0.0
 10
351.0644530372339
 20
638.3085935904228
 30
0.0
 10
351.0644530372339
 20
638.3085935904228
 30
0.0
 10
351.0644530372339
 20
638.3085935904228
 30
0.0
 10
351.0263670997434
 20
638.2807615591798
 30
0.0
 10
351.0263670997434
 20
638.2807615591798
 30
0.0
 10
351.0263670997434
 20
638.2807615591798
 30
0.0
 10
343.1083983517229
 20
633.7133787478216
 30
0.0
 10
343.1083983517229
 20
633.7133787478216
 30
0.0
 10
343.1083983517229
 20
633.7133787478216
 30
0.0
 10
345.0410155387397
 20
630.3691404674076
 30
0.0
 10
345.0410155387397
 20
630.3691404674076
 30
0.0
 10
338.4775389778806
 20
625.523925624869
 30
0.0
 10
333.5908202291023
 20
618.355956876661
 30
0.0
 10
331.7812499170547
 20
609.7626951600594
 30
0.0
 10
331.6533202295867
 20
609.1528318789618
 30
0.0
 10
331.6132811670967
 20
608.6909178165772
 30
0.0
 10
331.6152342920962
 20
608.3950193791512
 30
0.0
 10
331.6171874170957
 20
608.1025389104743
 30
0.0
 10
331.6298827295925
 20
608.1582029729605
 30
0.0
 10
331.5820311671045
 20
607.7084959418229
 30
0.0
 10
331.5820311671045
 20
607.7084959418229
 30
0.0
 10
331.5761717921059
 20
607.6367185980909
 30
0.0
 10
331.5761717921059
 20
607.6367185980909
 30
0.0
 10
331.5761717921059
 20
607.6367185980909
 30
0.0
 10
328.0556639804861
 20
607.6367185980909
 30
0.0
 10
328.0556639804861
 20
607.6367185980909
 30
0.0
 10
328.0556639804861
 20
607.6367185980909
 30
0.0
 10
328.0556639804861
 20
598.4462889128885
 30
0.0
 10
328.0556639804861
 20
598.4462889128885
 30
0.0
 10
328.0556639804861
 20
598.4462889128885
 30
0.0
 10
336.1933592909517
 20
598.4462889128885
 30
0.0
 10
336.1933592909517
 20
598.4462889128885
 30
0.0
 10
336.1933592909517
 20
598.4462889128885
 30
0.0
 10
336.1933592909517
 20
600.5834959436041
 30
0.0
 10
336.1933592909517
 20
600.5834959436041
 30
0.0
 10
336.1933592909517
 20
600.5834959436041
 30
0.0
 10
354.4912108488772
 20
600.6000975060999
 30
0.0
 10
354.4912108488772
 20
600.6000975060999
 30
0.0
 10
354.4912108488772
 20
600.6000975060999
 30
0.0
 10
362.1425780344643
 20
605.0346678174914
 30
0.0
 10
362.1425780344643
 20
605.0346678174914
 30
0.0
 10
362.1425780344643
 20
605.0346678174914
 30
0.0
 10
370.8623045947844
 20
605.0346678174914
 30
0.0
 10
370.8623045947844
 20
605.0346678174914
 30
0.0
 10
370.8623045947844
 20
605.0346678174914
 30
0.0
 10
370.8623045947844
 20
613.1787107842054
 30
0.0
 10
370.8623045947844
 20
613.1787107842054
 30
0.0
 10
370.8623045947844
 20
613.1787107842054
 30
0.0
 10
361.6728514720818
 20
613.1787107842054
 30
0.0
 10
361.6728514720818
 20
613.1787107842054
 30
0.0
 10
361.6728514720818
 20
613.1787107842054
 30
0.0
 10
361.6728514720818
 20
610.4272459411432
 30
0.0
 10
361.6728514720818
 20
610.4272459411432
 30
0.0
 10
361.6728514720818
 20
610.4272459411432
 30
0.0
 10
353.167968661708
 20
605.4887693798778
 30
0.0
 10
353.167968661708
 20
605.4887693798778
 30
0.0
 10
353.167968661708
 20
605.4887693798778
 30
0.0
 10
336.7587889783103
 20
605.4775389111306
 30
0.0
 10
336.7587889783103
 20
605.4775389111306
 30
0.0
 10
336.7578124158105
 20
605.6401365673399
 30
0.0
 10
336.7529296033118
 20
605.7963865673009
 30
0.0
 10
336.7529296033118
 20
605.9648435985088
 30
0.0
 10
336.7539061658115
 20
606.5937498483515
 30
0.0
 10
336.7783202283054
 20
607.2568357856858
 30
0.0
 10
336.8027342907993
 20
607.7753904730562
 30
0.0
 10
336.8144530407964
 20
608.0346678167414
 30
0.0
 10
336.8310546032922
 20
608.2617185979345
 30
0.0
 10
336.8417967907895
 20
608.4228514103943
 30
0.0
 10
336.8476561657881
 20
608.503906097874
 30
0.0
 10
336.8496092907876
 20
608.5693357853577
 30
0.0
 10
336.8525389782869
 20
608.6166990665959
 30
0.0
 10
336.8554686657861
 20
608.6640623478339
 30
0.0
 10
336.8583983532854
 20
608.6953123478262
 30
0.0
 10
336.8583983532854
 20
608.6943357853264
 30
0.0
 10
340.1972655399506
 20
624.5546873438614
 30
0.0
 10
355.700195223575
 20
634.6606443725848
 30
0.0
 10
371.5605467821098
 20
631.3217771859196
 30
0.0
 10
387.4218749031445
 20
627.9824217180044
 30
0.0
 10
397.5214842756196
 20
612.4858396906285
 30
0.0
 10
394.1826170889543
 20
596.6249998508438
 30
0.0
 10
390.8437499022891
 20
580.764160011059
 30
0.0
 10
375.3525389686619
 20
570.6640623573339
 30
0.0
 10
359.4912108476272
 20
574.0029295439992
 30
0.0
 10
350.3906249124024
 20
575.9189451685203
 30
0.0
 10
343.208007726698
 20
581.8481443857879
 30
0.0
 10
339.3447264776638
 20
589.5493162588626
 30
0.0
 10
339.3447264776638
 20
589.5493162588626
 30
0.0
 10
339.2666014776834
 20
589.6821287588294
 30
0.0
 10
339.2666014776834
 20
589.6821287588294
 30
0.0
 10
339.2666014776834
 20
589.6821287588294
 30
0.0
 10
339.1835936652041
 20
589.8095701650476
 30
0.0
 10
339.1835936652041
 20
589.8095701650476
 30
0.0
 10
338.7548827278113
 20
590.4155271961461
 30
0.0
 10
338.4511717903872
 20
590.8325193835418
 30
0.0
 10
337.8388671030403
 20
591.2543943834364
 30
0.0
 10
337.5585936656103
 20
591.4477537583881
 30
0.0
 10
337.1249999157187
 20
591.7075193833231
 30
0.0
 10
336.4374999158906
 20
591.6972654770757
 30
0.0
 10
335.6923827285769
 20
591.9990232895002
 30
0.0
 10
334.8476561662881
 20
592.0405271957399
 30
0.0
 10
333.9296874165176
 20
591.6035154770991
 30
0.0
 10
327.1826171057044
 20
588.3930662591517
 30
0.0
 10
318.832031170292
 20
583.9462889165134
 30
0.0
 10
318.832031170292
 20
583.9462889165134
 30
0.0
 10
318.832031170292
 20
583.9462889165134
 30
0.0
 10
318.8095702327976
 20
583.9355467290161
 30
0.0
 10
318.8095702327976
 20
583.9355467290161
 30
0.0
 10
318.8095702327976
 20
583.9355467290161
 30
0.0
 10
318.8095702327976
 20
583.9135740727716
 30
0.0
 10
318.8095702327976
 20
583.9135740727716
 30
0.0
 10
318.1748046079563
 20
579.9619139175095
 30
0.0
 10
322.0429686694893
 20
577.5688475118578
 30
0.0
 10
322.0429686694893
 20
577.5688475118578
 30
0.0
 10
322.0429686694893
 20
577.5688475118578
 30
0.0
 10
322.0654296069836
 20
577.5576170431106
 30
0.0
 10
322.0654296069836
 20
577.5576170431106
 30
0.0
 10
322.0654296069836
 20
577.5576170431106
 30
0.0
 10
336.0341796034915
 20
584.8491209475377
 30
0.0
 10
336.0341796034915
 20
584.8491209475377
 30
0.0
 10
338.2822264779294
 20
581.1274412609681
 30
0.0
 10
341.2255858521936
 20
577.835937355541
 30
0.0
 10
344.7314452263171
 20
575.1767576687058
 30
0.0
  0
HATCH
  5
4A
330
3C
100
AcDbEntity
  8
svg5872
 62
     7
100
AcDbHatch
 10
0.0
 20
0.0
 30
0.0
210
0.0
220
0.0
230
1.0
  2
SOLID
 70
     1
 71
     0
 91
        1
 92
        1
 93
        1
 72
     4
 94
        3
 73
     0
 74
     1
 95
      197
 96
      193
 40
0.0
 40
0.0
 40
0.0
 40
0.0
 40
1.0
 40
1.0
 40
1.0
 40
2.0
 40
2.0
 40
2.0
 40
3.0
 40
3.0
 40
3.0
 40
4.0
 40
4.0
 40
4.0
 40
5.0
 40
5.0
 40
5.0
 40
6.0
 40
6.0
 40
6.0
 40
7.0
 40
7.0
 40
7.0
 40
8.0
 40
8.0
 40
8.0
 40
9.0
 40
9.0
 40
9.0
 40
10.0
 40
10.0
 40
10.0
 40
11.0
 40
11.0
 40
11.0
 40
12.0
 40
12.0
 40
12.0
 40
13.0
 40
13.0
 40
13.0
 40
14.0
 40
14.0
 40
14.0
 40
15.0
 40
15.0
 40
15.0
 40
16.0
 40
16.0
 40
16.0
 40
17.0
 40
17.0
 40
17.0
 40
18.0
 40
18.0
 40
18.0
 40
19.0
 40
19.0
 40
19.0
 40
20.0
 40
20.0
 40
20.0
 40
21.0
 40
21.0
 40
21.0
 40
22.0
 40
22.0
 40
22.0
 40
23.0
 40
23.0
 40
23.0
 40
24.0
 40
24.0
 40
24.0
 40
25.0
 40
25.0
 40
25.0
 40
26.0
 40
26.0
 40
26.0
 40
27.0
 40
27.0
 40
27.0
 40
28.0
 40
28.0
 40
28.0
 40
29.0
 40
29.0
 40
29.0
 40
30.0
 40
30.0
 40
30.0
 40
31.0
 40
31.0
 40
31.0
 40
32.0
 40
32.0
 40
32.0
 40
33.0
 40
33.0
 40
33.0
 40
34.0
 40
34.0
 40
34.0
 40
35.0
 40
35.0
 40
35.0
 40
36.0
 40
36.0
 40
36.0
 40
37.0
 40
37.0
 40
37.0
 40
38.0
 40
38.0
 40
38.0
 40
39.0
 40
39.0
 40
39.0
 40
40.0
 40
40.0
 40
40.0
 40
41.0
 40
41.0
 40
41.0
 40
42.0
 40
42.0
 40
42.0
 40
43.0
 40
43.0
 40
43.0
 40
44.0
 40
44.0
 40
44.0
 40
45.0
 40
45.0
 40
45.0
 40
46.0
 40
46.0
 40
46.0
 40
47.0
 40
47.0
 40
47.0
 40
48.0
 40
48.0
 40
48.0
 40
49.0
 40
49.0
 40
49.0
 40
50.0
 40
50.0
 40
50.0
 40
51.0
 40
51.0
 40
51.0
 40
52.0
 40
52.0
 40
52.0
 40
53.0
 40
53.0
 40
53.0
 40
54.0
 40
54.0
 40
54.0
 40
55.0
 40
55.0
 40
55.0
 40
56.0
 40
56.0
 40
56.0
 40
57.0
 40
57.0
 40
57.0
 40
58.0
 40
58.0
 40
58.0
 40
59.0
 40
59.0
 40
59.0
 40
60.0
 40
60.0
 40
60.0
 40
61.0
 40
61.0
 40
61.0
 40
62.0
 40
62.0
 40
62.0
 40
63.0
 40
63.0
 40
63.0
 40
64.0
 40
64.0
 40
64.0
 40
64.0
 10
344.7314452263171
 20
575.1767576687058
 10
344.7314452263171
 20
575.1767576687058
 10
343.1093749142227
 20
572.3696287631576
 10
343.1093749142227
 20
572.3696287631576
 10
343.1093749142227
 20
572.3696287631576
 10
351.0654295997336
 20
567.7802732955549
 10
351.0654295997336
 20
567.7802732955549
 10
351.0654295997336
 20
567.7802732955549
 10
352.7255858493186
 20
570.647949076088
 10
352.7255858493186
 20
570.647949076088
 10
354.5419920988645
 20
569.9233397012691
 10
356.4453124108887
 20
569.3369139201658
 10
358.4228514728943
 20
568.9208982952698
 10
365.7031249085742
 20
567.3881834519029
 10
372.9316405317671
 20
568.2954100141761
 10
379.2783202176804
 20
571.0688475134828
 10
379.2783202176804
 20
571.0688475134828
 10
381.1777342797055
 20
567.7749022018063
 10
381.1777342797055
 20
567.7749022018063
 10
381.1777342797055
 20
567.7749022018063
 10
389.1337889652165
 20
572.3696287631576
 10
389.1337889652165
 20
572.3696287631576
 10
389.1337889652165
 20
572.3696287631576
 10
387.1406249032148
 20
575.8247068872938
 10
387.1406249032148
 20
575.8247068872938
 10
393.1308592767173
 20
580.6406248548399
 10
397.5615233381096
 20
587.4648436031338
 10
399.2656249001836
 20
595.5561521948609
 10
399.4687499001328
 20
596.5219725071195
 10
399.6220702125945
 20
597.4848631318788
 10
399.7412108375647
 20
598.4462889128885
 10
399.7412108375647
 20
598.4462889128885
 10
404.1923827114519
 20
598.4462889128885
 10
404.1923827114519
 20
598.4462889128885
 10
404.1923827114519
 20
598.4462889128885
 10
404.1923827114519
 20
607.6367185980909
 10
404.1923827114519
 20
607.6367185980909
 10
404.1923827114519
 20
607.6367185980909
 10
399.635742087591
 20
607.6367185980909
 10
399.635742087591
 20
607.6367185980909
 10
398.3515624004121
 20
616.3876951584031
 10
393.7246092765689
 20
624.3095701564226
 10
386.8417967782896
 20
629.7436521863141
 10
386.8417967782896
 20
629.7436521863141
 10
389.1337889652165
 20
633.7133787478216
 10
389.1337889652165
 20
633.7133787478216
 10
389.1337889652165
 20
633.7133787478216
 10
381.1777342797055
 20
638.3032224966742
 10
381.1777342797055
 20
638.3032224966742
 10
381.1777342797055
 20
638.3032224966742
 10
378.9414061552646
 20
634.4218748413945
 10
378.9414061552646
 20
634.4218748413945
 10
377.4667967806333
 20
635.0434568724892
 10
375.9365233435159
 20
635.575683434856
 10
374.3515624064121
 20
635.9946287472513
 10
374.3515624064121
 20
635.9946287472513
 10
373.6035155315991
 20
636.187988122203
 10
373.6035155315991
 20
636.187988122203
 10
373.6035155315991
 20
636.187988122203
 10
373.5810545941047
 20
636.1772459347056
 10
373.5810545941047
 20
636.1772459347056
 10
373.2646483441839
 20
636.2534178096867
 10
372.952148344262
 20
636.3364256221658
 10
372.6289061568428
 20
636.4042967158989
 10
367.9775389705056
 20
637.3833006219041
 10
363.343749909164
 20
637.3696287469076
 10
358.9482420977629
 20
636.5092771846226
 10
356.9374999107656
 20
636.1157224972211
 10
354.9804686612549
 20
635.5385740598654
 10
353.0908202242273
 20
634.804199060049
 10
353.0908202242273
 20
634.804199060049
 10
351.0644530372339
 20
638.3085935904228
 10
351.0644530372339
 20
638.3085935904228
 10
351.0644530372339
 20
638.3085935904228
 10
351.0263670997434
 20
638.2807615591798
 10
351.0263670997434
 20
638.2807615591798
 10
351.0263670997434
 20
638.2807615591798
 10
343.1083983517229
 20
633.7133787478216
 10
343.1083983517229
 20
633.7133787478216
 10
343.1083983517229
 20
633.7133787478216
 10
345.0410155387397
 20
630.3691404674076
 10
345.0410155387397
 20
630.3691404674076
 10
338.4775389778806
 20
625.523925624869
 10
333.5908202291023
 20
618.355956876661
 10
331.7812499170547
 20
609.7626951600594
 10
331.6533202295867
 20
609.1528318789618
 10
331.6132811670967
 20
608.6909178165772
 10
331.6152342920962
 20
608.3950193791512
 10
331.6171874170957
 20
608.1025389104743
 10
331.6298827295925
 20
608.1582029729605
 10
331.5820311671045
 20
607.7084959418229
 10
331.5820311671045
 20
607.7084959418229
 10
331.5761717921059
 20
607.6367185980909
 10
331.5761717921059
 20
607.6367185980909
 10
331.5761717921059
 20
607.6367185980909
 10
328.0556639804861
 20
607.6367185980909
 10
328.0556639804861
 20
607.6367185980909
 10
328.0556639804861
 20
607.6367185980909
 10
328.0556639804861
 20
598.4462889128885
 10
328.0556639804861
 20
598.4462889128885
 10
328.0556639804861
 20
598.4462889128885
 10
336.1933592909517
 20
598.4462889128885
 10
336.1933592909517
 20
598.4462889128885
 10
336.1933592909517
 20
598.4462889128885
 10
336.1933592909517
 20
600.5834959436041
 10
336.1933592909517
 20
600.5834959436041
 10
336.1933592909517
 20
600.5834959436041
 10
354.4912108488772
 20
600.6000975060999
 10
354.4912108488772
 20
600.6000975060999
 10
354.4912108488772
 20
600.6000975060999
 10
362.1425780344643
 20
605.0346678174914
 10
362.1425780344643
 20
605.0346678174914
 10
362.1425780344643
 20
605.0346678174914
 10
370.8623045947844
 20
605.0346678174914
 10
370.8623045947844
 20
605.0346678174914
 10
370.8623045947844
 20
605.0346678174914
 10
370.8623045947844
 20
613.1787107842054
 10
370.8623045947844
 20
613.1787107842054
 10
370.8623045947844
 20
613.1787107842054
 10
361.6728514720818
 20
613.1787107842054
 10
361.6728514720818
 20
613.1787107842054
 10
361.6728514720818
 20
613.1787107842054
 10
361.6728514720818
 20
610.4272459411432
 10
361.6728514720818
 20
610.4272459411432
 10
361.6728514720818
 20
610.4272459411432
 10
353.167968661708
 20
605.4887693798778
 10
353.167968661708
 20
605.4887693798778
 10
353.167968661708
 20
605.4887693798778
 10
336.7587889783103
 20
605.4775389111306
 10
336.7587889783103
 20
605.4775389111306
 10
336.7578124158105
 20
605.6401365673399
 10
336.7529296033118
 20
605.7963865673009
 10
336.7529296033118
 20
605.9648435985088
 10
336.7539061658115
 20
606.5937498483515
 10
336.7783202283054
 20
607.2568357856858
 10
336.8027342907993
 20
607.7753904730562
 10
336.8144530407964
 20
608.0346678167414
 10
336.8310546032922
 20
608.2617185979345
 10
336.8417967907895
 20
608.4228514103943
 10
336.8476561657881
 20
608.503906097874
 10
336.8496092907876
 20
608.5693357853577
 10
336.8525389782869
 20
608.6166990665959
 10
336.8554686657861
 20
608.6640623478339
 10
336.8583983532854
 20
608.6953123478262
 10
336.8583983532854
 20
608.6943357853264
 10
340.1972655399506
 20
624.5546873438614
 10
355.700195223575
 20
634.6606443725848
 10
371.5605467821098
 20
631.3217771859196
 10
387.4218749031445
 20
627.9824217180044
 10
397.5214842756196
 20
612.4858396906285
 10
394.1826170889543
 20
596.6249998508438
 10
390.8437499022891
 20
580.764160011059
 10
375.3525389686619
 20
570.6640623573339
 10
359.4912108476272
 20
574.0029295439992
 10
350.3906249124024
 20
575.9189451685203
 10
343.208007726698
 20
581.8481443857879
 10
339.3447264776638
 20
589.5493162588626
 10
339.3447264776638
 20
589.5493162588626
 10
339.2666014776834
 20
589.6821287588294
 10
339.2666014776834
 20
589.6821287588294
 10
339.2666014776834
 20
589.6821287588294
 10
339.1835936652041
 20
589.8095701650476
 10
339.1835936652041
 20
589.8095701650476
 10
338.7548827278113
 20
590.4155271961461
 10
338.4511717903872
 20
590.8325193835418
 10
337.8388671030403
 20
591.2543943834364
 10
337.5585936656103
 20
591.4477537583881
 10
337.1249999157187
 20
591.7075193833231
 10
336.4374999158906
 20
591.6972654770757
 10
335.6923827285769
 20
591.9990232895002
 10
334.8476561662881
 20
592.0405271957399
 10
333.9296874165176
 20
591.6035154770991
 10
327.1826171057044
 20
588.3930662591517
 10
318.832031170292
 20
583.9462889165134
 10
318.832031170292
 20
583.9462889165134
 10
318.832031170292
 20
583.9462889165134
 10
318.8095702327976
 20
583.9355467290161
 10
318.8095702327976
 20
583.9355467290161
 10
318.8095702327976
 20
583.9355467290161
 10
318.8095702327976
 20
583.9135740727716
 10
318.8095702327976
 20
583.9135740727716
 10
318.1748046079563
 20
579.9619139175095
 10
322.0429686694893
 20
577.5688475118578
 10
322.0429686694893
 20
577.5688475118578
 10
322.0429686694893
 20
577.5688475118578
 10
322.0654296069836
 20
577.5576170431106
 10
322.0654296069836
 20
577.5576170431106
 10
322.0654296069836
 20
577.5576170431106
 10
336.0341796034915
 20
584.8491209475377
 10
336.0341796034915
 20
584.8491209475377
 10
338.2822264779294
 20
581.1274412609681
 10
341.2255858521936
 20
577.835937355541
 10
344.7314452263171
 20
575.1767576687058
 97
        0
 75
     2
 76
     1
 98
        0
  0
SPLINE
  5
4B
330
3C
100
AcDbEntity
  8
svg5872
370
     0
100
AcDbSpline
210
0.0
220
0.0
230
1.0
 70
    11
 71
     3
 72
   188
 73
   184
 74
     0
 42
0.0000000001
 43
0.0000000001
 40
0.0
 40
0.0
 40
0.0
 40
0.0
 40
1.0
 40
1.0
 40
1.0
 40
2.0
 40
2.0
 40
2.0
 40
3.0
 40
3.0
 40
3.0
 40
4.0
 40
4.0
 40
4.0
 40
5.0
 40
5.0
 40
5.0
 40
6.0
 40
6.0
 40
6.0
 40
7.0
 40
7.0
 40
7.0
 40
8.0
 40
8.0
 40
8.0
 40
9.0
 40
9.0
 40
9.0
 40
10.0
 40
10.0
 40
10.0
 40
11.0
 40
11.0
 40
11.0
 40
12.0
 40
12.0
 40
12.0
 40
13.0
 40
13.0
 40
13.0
 40
14.0
 40
14.0
 40
14.0
 40
15.0
 40
15.0
 40
15.0
 40
16.0
 40
16.0
 40
16.0
 40
17.0
 40
17.0
 40
17.0
 40
18.0
 40
18.0
 40
18.0
 40
19.0
 40
19.0
 40
19.0
 40
20.0
 40
20.0
 40
20.0
 40
21.0
 40
21.0
 40
21.0
 40
22.0
 40
22.0
 40
22.0
 40
23.0
 40
23.0
 40
23.0
 40
24.0
 40
24.0
 40
24.0
 40
25.0
 40
25.0
 40
25.0
 40
26.0
 40
26.0
 40
26.0
 40
27.0
 40
27.0
 40
27.0
 40
28.0
 40
28.0
 40
28.0
 40
29.0
 40
29.0
 40
29.0
 40
30.0
 40
30.0
 40
30.0
 40
31.0
 40
31.0
 40
31.0
 40
32.0
 40
32.0
 40
32.0
 40
33.0
 40
33.0
 40
33.0
 40
34.0
 40
34.0
 40
34.0
 40
35.0
 40
35.0
 40
35.0
 40
36.0
 40
36.0
 40
36.0
 40
37.0
 40
37.0
 40
37.0
 40
38.0
 40
38.0
 40
38.0
 40
39.0
 40
39.0
 40
39.0
 40
40.0
 40
40.0
 40
40.0
 40
41.0
 40
41.0
 40
41.0
 40
42.0
 40
42.0
 40
42.0
 40
43.0
 40
43.0
 40
43.0
 40
44.0
 40
44.0
 40
44.0
 40
45.0
 40
45.0
 40
45.0
 40
46.0
 40
46.0
 40
46.0
 40
47.0
 40
47.0
 40
47.0
 40
48.0
 40
48.0
 40
48.0
 40
49.0
 40
49.0
 40
49.0
 40
50.0
 40
50.0
 40
50.0
 40
51.0
 40
51.0
 40
51.0
 40
52.0
 40
52.0
 40
52.0
 40
53.0
 40
53.0
 40
53.0
 40
54.0
 40
54.0
 40
54.0
 40
55.0
 40
55.0
 40
55.0
 40
56.0
 40
56.0
 40
56.0
 40
57.0
 40
57.0
 40
57.0
 40
58.0
 40
58.0
 40
58.0
 40
59.0
 40
59.0
 40
59.0
 40
60.0
 40
60.0
 40
60.0
 40
61.0
 40
61.0
 40
61.0
 40
61.0
 10
392.9707030267573
 20
640.3515623399121
 30
0.0
 10
392.9707030267573
 20
640.3515623399121
 30
0.0
 10
394.2822264639294
 20
642.6215818705946
 30
0.0
 10
394.2822264639294
 20
642.6215818705946
 30
0.0
 10
394.2822264639294
 20
642.6215818705946
 30
0.0
 10
393.8564452140359
 20
644.9965818700008
 30
0.0
 10
393.8564452140359
 20
644.9965818700008
 30
0.0
 10
393.8564452140359
 20
644.9965818700008
 30
0.0
 10
387.2460936531885
 20
648.8110349940472
 30
0.0
 10
387.2460936531885
 20
648.8110349940472
 30
0.0
 10
387.2460936531885
 20
648.8110349940472
 30
0.0
 10
385.0253905287436
 20
644.9633787450091
 30
0.0
 10
385.0253905287436
 20
644.9633787450091
 30
0.0
 10
379.2451170926887
 20
647.5864256193533
 30
0.0
 10
372.8369139692908
 20
649.0649412439838
 30
0.0
 10
366.0859374084785
 20
649.0712889002322
 30
0.0
 10
366.0859374084785
 20
649.0712889002322
 30
0.0
 10
366.0859374084785
 20
649.0771482752307
 30
0.0
 10
366.0859374084785
 20
649.0771482752307
 30
0.0
 10
366.0859374084785
 20
649.0771482752307
 30
0.0
 10
366.0410155334897
 20
649.0766599939808
 30
0.0
 10
366.0410155334897
 20
649.0766599939808
 30
0.0
 10
359.3222655351694
 20
649.0766599939808
 30
0.0
 10
352.9433592867642
 20
647.6171873380957
 30
0.0
 10
347.1835936632041
 20
645.023925619994
 30
0.0
 10
347.1835936632041
 20
645.023925619994
 30
0.0
 10
345.9218749135195
 20
647.2167967131958
 30
0.0
 10
345.9218749135195
 20
647.2167967131958
 30
0.0
 10
345.9218749135195
 20
647.2167967131958
 30
0.0
 10
343.6513671015871
 20
648.0361326504909
 30
0.0
 10
343.6513671015871
 20
648.0361326504909
 30
0.0
 10
343.6513671015871
 20
648.0361326504909
 30
0.0
 10
337.0410155407397
 20
644.2211912451947
 30
0.0
 10
337.0410155407397
 20
644.2211912451947
 30
0.0
 10
337.0410155407397
 20
644.2211912451947
 30
0.0
 10
339.2275389776931
 20
640.43994124614
 30
0.0
 10
339.2275389776931
 20
640.43994124614
 30
0.0
 10
328.7607421053098
 20
632.9228514042693
 30
0.0
 10
321.5644530446089
 20
621.1352537509662
 30
0.0
 10
320.2099608574475
 20
607.6367185980909
 30
0.0
 10
320.2099608574475
 20
607.6367185980909
 30
0.0
 10
317.763671795559
 20
607.6367185980909
 30
0.0
 10
317.763671795559
 20
607.6367185980909
 30
0.0
 10
317.763671795559
 20
607.6367185980909
 30
0.0
 10
315.91992179602
 20
606.075683442231
 30
0.0
 10
315.91992179602
 20
606.075683442231
 30
0.0
 10
315.91992179602
 20
606.075683442231
 30
0.0
 10
315.91992179602
 20
598.4462889128885
 30
0.0
 10
315.91992179602
 20
598.4462889128885
 30
0.0
 10
315.91992179602
 20
598.4462889128885
 30
0.0
 10
321.8105467945473
 20
598.4462889128885
 30
0.0
 10
321.8105467945473
 20
598.4462889128885
 30
0.0
 10
321.8105467945473
 20
598.4462889128885
 30
0.0
 10
323.7148436690713
 20
593.7290037578177
 30
0.0
 10
323.7148436690713
 20
593.7290037578177
 30
0.0
 10
323.7148436690713
 20
593.7290037578177
 30
0.0
 10
358.3339842854165
 20
593.7514646953122
 30
0.0
 10
358.3339842854165
 20
593.7514646953122
 30
0.0
 10
358.3339842854165
 20
593.7514646953122
 30
0.0
 10
362.4921874093769
 20
593.7734373515566
 30
0.0
 10
362.4921874093769
 20
593.7734373515566
 30
0.0
 10
362.4921874093769
 20
593.7734373515566
 30
0.0
 10
363.2285155341929
 20
592.8989256330252
 30
0.0
 10
363.2285155341929
 20
592.8989256330252
 30
0.0
 10
363.2285155341929
 20
592.8989256330252
 30
0.0
 10
370.8574217822857
 20
592.8989256330252
 30
0.0
 10
370.8574217822857
 20
592.8989256330252
 30
0.0
 10
370.8574217822857
 20
592.8989256330252
 30
0.0
 10
370.8574217822857
 20
601.4692381308827
 30
0.0
 10
370.8574217822857
 20
601.4692381308827
 30
0.0
 10
370.8574217822857
 20
601.4692381308827
 30
0.0
 10
361.6728514720818
 20
601.4692381308827
 30
0.0
 10
361.6728514720818
 20
601.4692381308827
 30
0.0
 10
361.6728514720818
 20
601.4692381308827
 30
0.0
 10
361.6728514720818
 20
596.9570311007607
 30
0.0
 10
361.6728514720818
 20
596.9570311007607
 30
0.0
 10
361.6728514720818
 20
596.9570311007607
 30
0.0
 10
358.3232420979192
 20
596.939941257015
 30
0.0
 10
358.3232420979192
 20
596.939941257015
 30
0.0
 10
358.3232420979192
 20
596.939941257015
 30
0.0
 10
325.8632811685342
 20
596.9233396945192
 30
0.0
 10
325.8632811685342
 20
596.9233396945192
 30
0.0
 10
325.8632811685342
 20
596.9233396945192
 30
0.0
 10
324.4902342938774
 20
600.3227537561693
 30
0.0
 10
324.4902342938774
 20
600.3227537561693
 30
0.0
 10
324.4902342938774
 20
600.3227537561693
 30
0.0
 10
324.4902342938774
 20
601.2807615684299
 30
0.0
 10
324.4902342938774
 20
601.2807615684299
 30
0.0
 10
324.4902342938774
 20
601.2807615684299
 30
0.0
 10
324.5126952313718
 20
601.2807615684299
 30
0.0
 10
324.5126952313718
 20
601.2807615684299
 30
0.0
 10
324.5126952313718
 20
601.2807615684299
 30
0.0
 10
324.5126952313718
 20
602.9970701617507
 30
0.0
 10
324.5126952313718
 20
602.9970701617507
 30
0.0
 10
324.511718668872
 20
625.9614256247596
 30
0.0
 10
343.076171789231
 20
644.5312498388672
 30
0.0
 10
366.0410155334897
 20
644.5312498388672
 30
0.0
 10
389.0048827152488
 20
644.5312498388672
 30
0.0
 10
407.5693358356077
 20
625.9614256247596
 30
0.0
 10
407.5693358356077
 20
602.9970701617507
 30
0.0
 10
407.5693358356077
 20
580.0332029799916
 30
0.0
 10
389.0048827152488
 20
561.4741209533814
 30
0.0
 10
366.0410155334897
 20
561.4741209533814
 30
0.0
 10
355.7236327235691
 20
561.4741209533814
 30
0.0
 10
346.3154296009212
 20
565.2226561086943
 30
0.0
 10
339.0566405402358
 20
571.43994126339
 30
0.0
 10
338.1591796029602
 20
572.2075193881981
 30
0.0
 10
337.671874915582
 20
572.6967772005758
 30
0.0
 10
337.2675780406831
 20
573.3388670441652
 30
0.0
 10
337.2675780406831
 20
573.3388670441652
 30
0.0
 10
338.204101477949
 20
573.8754881377811
 30
0.0
 10
338.204101477949
 20
573.8754881377811
 30
0.0
 10
338.204101477949
 20
573.8754881377811
 30
0.0
 10
334.4501952288874
 20
580.3808592299048
 30
0.0
 10
334.4501952288874
 20
580.3808592299048
 30
0.0
 10
334.4501952288874
 20
580.3808592299048
 30
0.0
 10
325.0820311687295
 20
574.972167825007
 30
0.0
 10
325.0820311687295
 20
574.972167825007
 30
0.0
 10
325.0820311687295
 20
574.972167825007
 30
0.0
 10
325.0771483562307
 20
574.9497068875125
 30
0.0
 10
325.0771483562307
 20
574.9497068875125
 30
0.0
 10
324.7587889813103
 20
572.972167825507
 30
0.0
 10
325.6933592935766
 20
571.3544920446614
 30
0.0
 10
326.704101480824
 20
570.2329100136917
 30
0.0
 10
327.715820230571
 20
569.1113279827222
 30
0.0
 10
328.8085936677978
 20
568.4775389203807
 30
0.0
 10
328.8085936677978
 20
568.4775389203807
 30
0.0
 10
328.8085936677978
 20
568.4775389203807
 30
0.0
 10
328.8310546052923
 20
568.4667967328833
 30
0.0
 10
328.8310546052923
 20
568.4667967328833
 30
0.0
 10
328.8310546052923
 20
568.4667967328833
 30
0.0
 10
333.0390624167403
 20
570.8969725135257
 30
0.0
 10
333.0390624167403
 20
570.8969725135257
 30
0.0
 10
334.9287108537678
 20
568.9541014202615
 30
0.0
 10
336.9892577282527
 20
567.1806639207048
 30
0.0
 10
339.1953124152012
 20
565.5932615773517
 30
0.0
 10
339.1953124152012
 20
565.5932615773517
 30
0.0
 10
337.9658202280085
 20
563.456054546636
 30
0.0
 10
337.9658202280085
 20
563.456054546636
 30
0.0
 10
337.9658202280085
 20
563.456054546636
 30
0.0
 10
338.3925780404019
 20
561.0810545472298
 30
0.0
 10
338.3925780404019
 20
561.0810545472298
 30
0.0
 10
338.3925780404019
 20
561.0810545472298
 30
0.0
 10
345.0029296012493
 20
557.2666014231834
 30
0.0
 10
345.0029296012493
 20
557.2666014231834
 30
0.0
 10
345.0029296012493
 20
557.2666014231834
 30
0.0
 10
347.156249913211
 20
560.9926756410018
 30
0.0
 10
347.156249913211
 20
560.9926756410018
 30
0.0
 10
352.923828036769
 20
558.3901365791525
 30
0.0
 10
359.3115233476721
 20
556.9233397045192
 30
0.0
 10
366.0410155334897
 20
556.9233397045192
 30
0.0
 10
372.8212889692946
 20
556.9233397045192
 30
0.0
 10
379.2587889676853
 20
558.4101561103975
 30
0.0
 10
385.0585936537353
 20
561.0478514222381
 30
0.0
 10
385.0585936537353
 20
561.0478514222381
 30
0.0
 10
386.3261717784184
 20
558.8608397040348
 30
0.0
 10
386.3261717784184
 20
558.8608397040348
 30
0.0
 10
386.3261717784184
 20
558.8608397040348
 30
0.0
 10
388.5908202153523
 20
558.0473631417382
 30
0.0
 10
388.5908202153523
 20
558.0473631417382
 30
0.0
 10
388.5908202153523
 20
558.0473631417382
 30
0.0
 10
395.2011717761997
 20
561.8618162657846
 30
0.0
 10
395.2011717761997
 20
561.8618162657846
 30
0.0
 10
395.2011717761997
 20
561.8618162657846
 30
0.0
 10
393.003906151749
 20
565.676269389831
 30
0.0
 10
393.003906151749
 20
565.676269389831
 30
0.0
 10
403.4111327116472
 20
573.2138670441965
 30
0.0
 10
410.5576170848606
 20
584.9765623537559
 30
0.0
 10
411.8828123970293
 20
598.4462889128885
 30
0.0
 10
411.8828123970293
 20
598.4462889128885
 30
0.0
 10
414.4843748963789
 20
598.4462889128885
 30
0.0
 10
414.4843748963789
 20
598.4462889128885
 30
0.0
 10
414.4843748963789
 20
598.4462889128885
 30
0.0
 10
416.3232420834192
 20
600.0019529749995
 30
0.0
 10
416.3232420834192
 20
600.0019529749995
 30
0.0
 10
416.3232420834192
 20
600.0019529749995
 30
0.0
 10
416.3232420834192
 20
607.6313475043421
 30
0.0
 10
416.3232420834192
 20
607.6313475043421
 30
0.0
 10
416.3232420834192
 20
607.6313475043421
 30
0.0
 10
411.8769530220308
 20
607.6313475043421
 30
0.0
 10
411.8769530220308
 20
607.6313475043421
 30
0.0
 10
410.5302733348674
 20
621.0844725009789
 30
0.0
 10
403.3779295866555
 20
632.8295896855426
 30
0.0
 10
392.9707030267573
 20
640.3515623399121
 30
0.0
  0
HATCH
  5
4C
330
3C
100
AcDbEntity
  8
svg5872
 62
     7
100
AcDbHatch
 10
0.0
 20
0.0
 30
0.0
210
0.0
220
0.0
230
1.0
  2
SOLID
 70
     1
 71
     0
 91
        1
 92
        1
 93
        1
 72
     4
 94
        3
 73
     0
 74
     1
 95
      188
 96
      184
 40
0.0
 40
0.0
 40
0.0
 40
0.0
 40
1.0
 40
1.0
 40
1.0
 40
2.0
 40
2.0
 40
2.0
 40
3.0
 40
3.0
 40
3.0
 40
4.0
 40
4.0
 40
4.0
 40
5.0
 40
5.0
 40
5.0
 40
6.0
 40
6.0
 40
6.0
 40
7.0
 40
7.0
 40
7.0
 40
8.0
 40
8.0
 40
8.0
 40
9.0
 40
9.0
 40
9.0
 40
10.0
 40
10.0
 40
10.0
 40
11.0
 40
11.0
 40
11.0
 40
12.0
 40
12.0
 40
12.0
 40
13.0
 40
13.0
 40
13.0
 40
14.0
 40
14.0
 40
14.0
 40
15.0
 40
15.0
 40
15.0
 40
16.0
 40
16.0
 40
16.0
 40
17.0
 40
17.0
 40
17.0
 40
18.0
 40
18.0
 40
18.0
 40
19.0
 40
19.0
 40
19.0
 40
20.0
 40
20.0
 40
20.0
 40
21.0
 40
21.0
 40
21.0
 40
22.0
 40
22.0
 40
22.0
 40
23.0
 40
23.0
 40
23.0
 40
24.0
 40
24.0
 40
24.0
 40
25.0
 40
25.0
 40
25.0
 40
26.0
 40
26.0
 40
26.0
 40
27.0
 40
27.0
 40
27.0
 40
28.0
 40
28.0
 40
28.0
 40
29.0
 40
29.0
 40
29.0
 40
30.0
 40
30.0
 40
30.0
 40
31.0
 40
31.0
 40
31.0
 40
32.0
 40
32.0
 40
32.0
 40
33.0
 40
33.0
 40
33.0
 40
34.0
 40
34.0
 40
34.0
 40
35.0
 40
35.0
 40
35.0
 40
36.0
 40
36.0
 40
36.0
 40
37.0
 40
37.0
 40
37.0
 40
38.0
 40
38.0
 40
38.0
 40
39.0
 40
39.0
 40
39.0
 40
40.0
 40
40.0
 40
40.0
 40
41.0
 40
41.0
 40
41.0
 40
42.0
 40
42.0
 40
42.0
 40
43.0
 40
43.0
 40
43.0
 40
44.0
 40
44.0
 40
44.0
 40
45.0
 40
45.0
 40
45.0
 40
46.0
 40
46.0
 40
46.0
 40
47.0
 40
47.0
 40
47.0
 40
48.0
 40
48.0
 40
48.0
 40
49.0
 40
49.0
 40
49.0
 40
50.0
 40
50.0
 40
50.0
 40
51.0
 40
51.0
 40
51.0
 40
52.0
 40
52.0
 40
52.0
 40
53.0
 40
53.0
 40
53.0
 40
54.0
 40
54.0
 40
54.0
 40
55.0
 40
55.0
 40
55.0
 40
56.0
 40
56.0
 40
56.0
 40
57.0
 40
57.0
 40
57.0
 40
58.0
 40
58.0
 40
58.0
 40
59.0
 40
59.0
 40
59.0
 40
60.0
 40
60.0
 40
60.0
 40
61.0
 40
61.0
 40
61.0
 40
61.0
 10
392.9707030267573
 20
640.3515623399121
 10
392.9707030267573
 20
640.3515623399121
 10
394.2822264639294
 20
642.6215818705946
 10
394.2822264639294
 20
642.6215818705946
 10
394.2822264639294
 20
642.6215818705946
 10
393.8564452140359
 20
644.9965818700008
 10
393.8564452140359
 20
644.9965818700008
 10
393.8564452140359
 20
644.9965818700008
 10
387.2460936531885
 20
648.8110349940472
 10
387.2460936531885
 20
648.8110349940472
 10
387.2460936531885
 20
648.8110349940472
 10
385.0253905287436
 20
644.9633787450091
 10
385.0253905287436
 20
644.9633787450091
 10
379.2451170926887
 20
647.5864256193533
 10
372.8369139692908
 20
649.0649412439838
 10
366.0859374084785
 20
649.0712889002322
 10
366.0859374084785
 20
649.0712889002322
 10
366.0859374084785
 20
649.0771482752307
 10
366.0859374084785
 20
649.0771482752307
 10
366.0859374084785
 20
649.0771482752307
 10
366.0410155334897
 20
649.0766599939808
 10
366.0410155334897
 20
649.0766599939808
 10
359.3222655351694
 20
649.0766599939808
 10
352.9433592867642
 20
647.6171873380957
 10
347.1835936632041
 20
645.023925619994
 10
347.1835936632041
 20
645.023925619994
 10
345.9218749135195
 20
647.2167967131958
 10
345.9218749135195
 20
647.2167967131958
 10
345.9218749135195
 20
647.2167967131958
 10
343.6513671015871
 20
648.0361326504909
 10
343.6513671015871
 20
648.0361326504909
 10
343.6513671015871
 20
648.0361326504909
 10
337.0410155407397
 20
644.2211912451947
 10
337.0410155407397
 20
644.2211912451947
 10
337.0410155407397
 20
644.2211912451947
 10
339.2275389776931
 20
640.43994124614
 10
339.2275389776931
 20
640.43994124614
 10
328.7607421053098
 20
632.9228514042693
 10
321.5644530446089
 20
621.1352537509662
 10
320.2099608574475
 20
607.6367185980909
 10
320.2099608574475
 20
607.6367185980909
 10
317.763671795559
 20
607.6367185980909
 10
317.763671795559
 20
607.6367185980909
 10
317.763671795559
 20
607.6367185980909
 10
315.91992179602
 20
606.075683442231
 10
315.91992179602
 20
606.075683442231
 10
315.91992179602
 20
606.075683442231
 10
315.91992179602
 20
598.4462889128885
 10
315.91992179602
 20
598.4462889128885
 10
315.91992179602
 20
598.4462889128885
 10
321.8105467945473
 20
598.4462889128885
 10
321.8105467945473
 20
598.4462889128885
 10
321.8105467945473
 20
598.4462889128885
 10
323.7148436690713
 20
593.7290037578177
 10
323.7148436690713
 20
593.7290037578177
 10
323.7148436690713
 20
593.7290037578177
 10
358.3339842854165
 20
593.7514646953122
 10
358.3339842854165
 20
593.7514646953122
 10
358.3339842854165
 20
593.7514646953122
 10
362.4921874093769
 20
593.7734373515566
 10
362.4921874093769
 20
593.7734373515566
 10
362.4921874093769
 20
593.7734373515566
 10
363.2285155341929
 20
592.8989256330252
 10
363.2285155341929
 20
592.8989256330252
 10
363.2285155341929
 20
592.8989256330252
 10
370.8574217822857
 20
592.8989256330252
 10
370.8574217822857
 20
592.8989256330252
 10
370.8574217822857
 20
592.8989256330252
 10
370.8574217822857
 20
601.4692381308827
 10
370.8574217822857
 20
601.4692381308827
 10
370.8574217822857
 20
601.4692381308827
 10
361.6728514720818
 20
601.4692381308827
 10
361.6728514720818
 20
601.4692381308827
 10
361.6728514720818
 20
601.4692381308827
 10
361.6728514720818
 20
596.9570311007607
 10
361.6728514720818
 20
596.9570311007607
 10
361.6728514720818
 20
596.9570311007607
 10
358.3232420979192
 20
596.939941257015
 10
358.3232420979192
 20
596.939941257015
 10
358.3232420979192
 20
596.939941257015
 10
325.8632811685342
 20
596.9233396945192
 10
325.8632811685342
 20
596.9233396945192
 10
325.8632811685342
 20
596.9233396945192
 10
324.4902342938774
 20
600.3227537561693
 10
324.4902342938774
 20
600.3227537561693
 10
324.4902342938774
 20
600.3227537561693
 10
324.4902342938774
 20
601.2807615684299
 10
324.4902342938774
 20
601.2807615684299
 10
324.4902342938774
 20
601.2807615684299
 10
324.5126952313718
 20
601.2807615684299
 10
324.5126952313718
 20
601.2807615684299
 10
324.5126952313718
 20
601.2807615684299
 10
324.5126952313718
 20
602.9970701617507
 10
324.5126952313718
 20
602.9970701617507
 10
324.511718668872
 20
625.9614256247596
 10
343.076171789231
 20
644.5312498388672
 10
366.0410155334897
 20
644.5312498388672
 10
389.0048827152488
 20
644.5312498388672
 10
407.5693358356077
 20
625.9614256247596
 10
407.5693358356077
 20
602.9970701617507
 10
407.5693358356077
 20
580.0332029799916
 10
389.0048827152488
 20
561.4741209533814
 10
366.0410155334897
 20
561.4741209533814
 10
355.7236327235691
 20
561.4741209533814
 10
346.3154296009212
 20
565.2226561086943
 10
339.0566405402358
 20
571.43994126339
 10
338.1591796029602
 20
572.2075193881981
 10
337.671874915582
 20
572.6967772005758
 10
337.2675780406831
 20
573.3388670441652
 10
337.2675780406831
 20
573.3388670441652
 10
338.204101477949
 20
573.8754881377811
 10
338.204101477949
 20
573.8754881377811
 10
338.204101477949
 20
573.8754881377811
 10
334.4501952288874
 20
580.3808592299048
 10
334.4501952288874
 20
580.3808592299048
 10
334.4501952288874
 20
580.3808592299048
 10
325.0820311687295
 20
574.972167825007
 10
325.0820311687295
 20
574.972167825007
 10
325.0820311687295
 20
574.972167825007
 10
325.0771483562307
 20
574.9497068875125
 10
325.0771483562307
 20
574.9497068875125
 10
324.7587889813103
 20
572.972167825507
 10
325.6933592935766
 20
571.3544920446614
 10
326.704101480824
 20
570.2329100136917
 10
327.715820230571
 20
569.1113279827222
 10
328.8085936677978
 20
568.4775389203807
 10
328.8085936677978
 20
568.4775389203807
 10
328.8085936677978
 20
568.4775389203807
 10
328.8310546052923
 20
568.4667967328833
 10
328.8310546052923
 20
568.4667967328833
 10
328.8310546052923
 20
568.4667967328833
 10
333.0390624167403
 20
570.8969725135257
 10
333.0390624167403
 20
570.8969725135257
 10
334.9287108537678
 20
568.9541014202615
 10
336.9892577282527
 20
567.1806639207048
 10
339.1953124152012
 20
565.5932615773517
 10
339.1953124152012
 20
565.5932615773517
 10
337.9658202280085
 20
563.456054546636
 10
337.9658202280085
 20
563.456054546636
 10
337.9658202280085
 20
563.456054546636
 10
338.3925780404019
 20
561.0810545472298
 10
338.3925780404019
 20
561.0810545472298
 10
338.3925780404019
 20
561.0810545472298
 10
345.0029296012493
 20
557.2666014231834
 10
345.0029296012493
 20
557.2666014231834
 10
345.0029296012493
 20
557.2666014231834
 10
347.156249913211
 20
560.9926756410018
 10
347.156249913211
 20
560.9926756410018
 10
352.923828036769
 20
558.3901365791525
 10
359.3115233476721
 20
556.9233397045192
 10
366.0410155334897
 20
556.9233397045192
 10
372.8212889692946
 20
556.9233397045192
 10
379.2587889676853
 20
558.4101561103975
 10
385.0585936537353
 20
561.0478514222381
 10
385.0585936537353
 20
561.0478514222381
 10
386.3261717784184
 20
558.8608397040348
 10
386.3261717784184
 20
558.8608397040348
 10
386.3261717784184
 20
558.8608397040348
 10
388.5908202153523
 20
558.0473631417382
 10
388.5908202153523
 20
558.0473631417382
 10
388.5908202153523
 20
558.0473631417382
 10
395.2011717761997
 20
561.8618162657846
 10
395.2011717761997
 20
561.8618162657846
 10
395.2011717761997
 20
561.8618162657846
 10
393.003906151749
 20
565.676269389831
 10
393.003906151749
 20
565.676269389831
 10
403.4111327116472
 20
573.2138670441965
 10
410.5576170848606
 20
584.9765623537559
 10
411.8828123970293
 20
598.4462889128885
 10
411.8828123970293
 20
598.4462889128885
 10
414.4843748963789
 20
598.4462889128885
 10
414.4843748963789
 20
598.4462889128885
 10
414.4843748963789
 20
598.4462889128885
 10
416.3232420834192
 20
600.0019529749995
 10
416.3232420834192
 20
600.0019529749995
 10
416.3232420834192
 20
600.0019529749995
 10
416.3232420834192
 20
607.6313475043421
 10
416.3232420834192
 20
607.6313475043421
 10
416.3232420834192
 20
607.6313475043421
 10
411.8769530220308
 20
607.6313475043421
 10
411.8769530220308
 20
607.6313475043421
 10
410.5302733348674
 20
621.0844725009789
 10
403.3779295866555
 20
632.8295896855426
 10
392.9707030267573
 20
640.3515623399121
 97
        0
 75
     2
 76
     1
 98
        0
  0
SPLINE
  5
4D
330
3C
100
AcDbEntity
  8
svg5872
370
     0
100
AcDbSpline
210
0.0
220
0.0
230
1.0
 70
    11
 71
     3
 72
   197
 73
   193
 74
     0
 42
0.0000000001
 43
0.0000000001
 40
0.0
 40
0.0
 40
0.0
 40
0.0
 40
1.0
 40
1.0
 40
1.0
 40
2.0
 40
2.0
 40
2.0
 40
3.0
 40
3.0
 40
3.0
 40
4.0
 40
4.0
 40
4.0
 40
5.0
 40
5.0
 40
5.0
 40
6.0
 40
6.0
 40
6.0
 40
7.0
 40
7.0
 40
7.0
 40
8.0
 40
8.0
 40
8.0
 40
9.0
 40
9.0
 40
9.0
 40
10.0
 40
10.0
 40
10.0
 40
11.0
 40
11.0
 40
11.0
 40
12.0
 40
12.0
 40
12.0
 40
13.0
 40
13.0
 40
13.0
 40
14.0
 40
14.0
 40
14.0
 40
15.0
 40
15.0
 40
15.0
 40
16.0
 40
16.0
 40
16.0
 40
17.0
 40
17.0
 40
17.0
 40
18.0
 40
18.0
 40
18.0
 40
19.0
 40
19.0
 40
19.0
 40
20.0
 40
20.0
 40
20.0
 40
21.0
 40
21.0
 40
21.0
 40
22.0
 40
22.0
 40
22.0
 40
23.0
 40
23.0
 40
23.0
 40
24.0
 40
24.0
 40
24.0
 40
25.0
 40
25.0
 40
25.0
 40
26.0
 40
26.0
 40
26.0
 40
27.0
 40
27.0
 40
27.0
 40
28.0
 40
28.0
 40
28.0
 40
29.0
 40
29.0
 40
29.0
 40
30.0
 40
30.0
 40
30.0
 40
31.0
 40
31.0
 40
31.0
 40
32.0
 40
32.0
 40
32.0
 40
33.0
 40
33.0
 40
33.0
 40
34.0
 40
34.0
 40
34.0
 40
35.0
 40
35.0
 40
35.0
 40
36.0
 40
36.0
 40
36.0
 40
37.0
 40
37.0
 40
37.0
 40
38.0
 40
38.0
 40
38.0
 40
39.0
 40
39.0
 40
39.0
 40
40.0
 40
40.0
 40
40.0
 40
41.0
 40
41.0
 40
41.0
 40
42.0
 40
42.0
 40
42.0
 40
43.0
 40
43.0
 40
43.0
 40
44.0
 40
44.0
 40
44.0
 40
45.0
 40
45.0
 40
45.0
 40
46.0
 40
46.0
 40
46.0
 40
47.0
 40
47.0
 40
47.0
 40
48.0
 40
48.0
 40
48.0
 40
49.0
 40
49.0
 40
49.0
 40
50.0
 40
50.0
 40
50.0
 40
51.0
 40
51.0
 40
51.0
 40
52.0
 40
52.0
 40
52.0
 40
53.0
 40
53.0
 40
53.0
 40
54.0
 40
54.0
 40
54.0
 40
55.0
 40
55.0
 40
55.0
 40
56.0
 40
56.0
 40
56.0
 40
57.0
 40
57.0
 40
57.0
 40
58.0
 40
58.0
 40
58.0
 40
59.0
 40
59.0
 40
59.0
 40
60.0
 40
60.0
 40
60.0
 40
61.0
 40
61.0
 40
61.0
 40
62.0
 40
62.0
 40
62.0
 40
63.0
 40
63.0
 40
63.0
 40
64.0
 40
64.0
 40
64.0
 40
64.0
 10
293.4306639891423
 20
583.9409178227647
 30
0.0
 10
293.4306639891423
 20
583.9409178227647
 30
0.0
 10
293.4135741453966
 20
583.9467771977633
 30
0.0
 10
293.4135741453966
 20
583.9467771977633
 30
0.0
 10
293.4135741453966
 20
583.9467771977633
 30
0.0
 10
285.0571288349857
 20
588.3930662591517
 30
0.0
 10
278.3100585241725
 20
591.6035154770991
 30
0.0
 10
277.3857421181536
 20
592.0434568832392
 30
0.0
 10
276.5351561808662
 20
592.0043943832488
 30
0.0
 10
275.7856444623036
 20
591.6977537583256
 30
0.0
 10
275.1127928999718
 20
591.699706883325
 30
0.0
 10
274.684081962579
 20
591.4453123521387
 30
0.0
 10
274.4072264938982
 20
591.2543943834364
 30
0.0
 10
273.7939452440515
 20
590.8325193835418
 30
0.0
 10
273.4902343066274
 20
590.4155271961461
 30
0.0
 10
273.0615233692346
 20
589.8095701650476
 30
0.0
 10
273.0615233692346
 20
589.8095701650476
 30
0.0
 10
272.9785155567554
 20
589.6821287588294
 30
0.0
 10
272.9785155567554
 20
589.6821287588294
 30
0.0
 10
272.9785155567554
 20
589.6821287588294
 30
0.0
 10
272.9008788380248
 20
589.5493162588626
 30
0.0
 10
272.9008788380248
 20
589.5493162588626
 30
0.0
 10
269.0375975889906
 20
581.8481443857879
 30
0.0
 10
261.8554686845361
 20
575.9194334497702
 30
0.0
 10
252.7539061868115
 20
574.0034178252491
 30
0.0
 10
236.8935546282766
 20
570.6640623573339
 30
0.0
 10
221.4018554133995
 20
580.764160011059
 30
0.0
 10
218.0629882267343
 20
596.6249998508438
 30
0.0
 10
214.7236327588191
 20
612.4858396906285
 30
0.0
 10
224.8237304125441
 20
627.9824217180044
 30
0.0
 10
240.6845702523289
 20
631.3217771859196
 30
0.0
 10
256.5454100921136
 20
634.6606443725848
 30
0.0
 10
272.0424804007394
 20
624.5546873438614
 30
0.0
 10
275.3813475874047
 20
608.6943357853264
 30
0.0
 10
275.3813475874047
 20
608.6958006290761
 30
0.0
 10
275.3886718061528
 20
608.6640623478339
 30
0.0
 10
275.3925780561519
 20
608.6166990665959
 30
0.0
 10
275.395996024901
 20
608.5693357853577
 30
0.0
 10
275.3984374311504
 20
608.503906097874
 30
0.0
 10
275.4033202436491
 20
608.4233396916442
 30
0.0
 10
275.4140624311465
 20
608.2617185979345
 30
0.0
 10
275.4301757123924
 20
608.0346678167414
 30
0.0
 10
275.4423827436394
 20
607.7753904730562
 30
0.0
 10
275.4667968061333
 20
607.2568357856858
 30
0.0
 10
275.4853514936287
 20
606.5937498483515
 30
0.0
 10
275.4863280561284
 20
605.9648435985088
 30
0.0
 10
275.4868163373783
 20
605.7963865673009
 30
0.0
 10
275.4873046186282
 20
605.6401365673399
 30
0.0
 10
275.4863280561284
 20
605.4775389111306
 30
0.0
 10
275.4863280561284
 20
605.4775389111306
 30
0.0
 10
259.0766600914808
 20
605.4887693798778
 30
0.0
 10
259.0766600914808
 20
605.4887693798778
 30
0.0
 10
259.0766600914808
 20
605.4887693798778
 30
0.0
 10
250.5727538436068
 20
610.4272459411432
 30
0.0
 10
250.5727538436068
 20
610.4272459411432
 30
0.0
 10
250.5727538436068
 20
610.4272459411432
 30
0.0
 10
250.5727538436068
 20
613.1787107842054
 30
0.0
 10
250.5727538436068
 20
613.1787107842054
 30
0.0
 10
250.5727538436068
 20
613.1787107842054
 30
0.0
 10
241.3823241584044
 20
613.1787107842054
 30
0.0
 10
241.3823241584044
 20
613.1787107842054
 30
0.0
 10
241.3823241584044
 20
613.1787107842054
 30
0.0
 10
241.3823241584044
 20
605.0346678174914
 30
0.0
 10
241.3823241584044
 20
605.0346678174914
 30
0.0
 10
241.3823241584044
 20
605.0346678174914
 30
0.0
 10
250.0966796249758
 20
605.0346678174914
 30
0.0
 10
250.0966796249758
 20
605.0346678174914
 30
0.0
 10
250.0966796249758
 20
605.0346678174914
 30
0.0
 10
257.7534179043116
 20
600.6000975060999
 30
0.0
 10
257.7534179043116
 20
600.6000975060999
 30
0.0
 10
257.7534179043116
 20
600.6000975060999
 30
0.0
 10
276.0458983684885
 20
600.5834959436041
 30
0.0
 10
276.0458983684885
 20
600.5834959436041
 30
0.0
 10
276.0458983684885
 20
600.5834959436041
 30
0.0
 10
276.0458983684885
 20
598.4462889128885
 30
0.0
 10
276.0458983684885
 20
598.4462889128885
 30
0.0
 10
276.0458983684885
 20
598.4462889128885
 30
0.0
 10
284.1899413352025
 20
598.4462889128885
 30
0.0
 10
284.1899413352025
 20
598.4462889128885
 30
0.0
 10
284.1899413352025
 20
598.4462889128885
 30
0.0
 10
284.1899413352025
 20
607.6367185980909
 30
0.0
 10
284.1899413352025
 20
607.6367185980909
 30
0.0
 10
284.1899413352025
 20
607.6367185980909
 30
0.0
 10
280.6684569610829
 20
607.6367185980909
 30
0.0
 10
280.6684569610829
 20
607.6367185980909
 30
0.0
 10
280.6684569610829
 20
607.6367185980909
 30
0.0
 10
280.6630858673342
 20
607.7084959418229
 30
0.0
 10
280.6630858673342
 20
607.7084959418229
 30
0.0
 10
280.6147460235963
 20
608.1582029729605
 30
0.0
 10
280.627929617343
 20
608.1025389104743
 30
0.0
 10
280.6298827423425
 20
608.3950193791512
 30
0.0
 10
280.631835867342
 20
608.6914060978271
 30
0.0
 10
280.5922850861019
 20
609.1528318789618
 30
0.0
 10
280.463867117384
 20
609.7626951600594
 30
0.0
 10
278.6552733678362
 20
618.3535154704116
 30
0.0
 10
273.7641600878089
 20
625.5185545311203
 30
0.0
 10
267.204101495699
 20
630.363769373659
 30
0.0
 10
267.204101495699
 20
630.363769373659
 30
0.0
 10
269.1362304014659
 20
633.7133787478216
 30
0.0
 10
269.1362304014659
 20
633.7133787478216
 30
0.0
 10
269.1362304014659
 20
633.7133787478216
 30
0.0
 10
261.1801757159549
 20
638.3085935904228
 30
0.0
 10
261.1801757159549
 20
638.3085935904228
 30
0.0
 10
261.1801757159549
 20
638.3085935904228
 30
0.0
 10
259.1538085289615
 20
634.804199060049
 30
0.0
 10
259.1538085289615
 20
634.804199060049
 30
0.0
 10
257.2651366544337
 20
635.5380857786155
 30
0.0
 10
255.3061522799235
 20
636.1157224972211
 30
0.0
 10
253.2963866554259
 20
636.5092771846226
 30
0.0
 10
248.9008788440248
 20
637.3691404656577
 30
0.0
 10
244.2675780639331
 20
637.3833006219041
 30
0.0
 10
239.6162108775959
 20
636.403808434649
 30
0.0
 10
239.2949218151763
 20
636.3364256221658
 30
0.0
 10
238.983886659004
 20
636.2524412471869
 30
0.0
 10
238.6694335340826
 20
636.1772459347056
 30
0.0
 10
238.6694335340826
 20
636.1772459347056
 30
0.0
 10
238.6416015028396
 20
636.1938474972015
 30
0.0
 10
238.6416015028396
 20
636.1938474972015
 30
0.0
 10
238.6416015028396
 20
636.1938474972015
 30
0.0
 10
237.8886718155278
 20
635.9946287472513
 30
0.0
 10
237.8886718155278
 20
635.9946287472513
 30
0.0
 10
236.3071288471732
 20
635.5766599973558
 30
0.0
 10
234.779785097555
 20
635.0468748412383
 30
0.0
 10
233.3100585354225
 20
634.4277342163931
 30
0.0
 10
233.3100585354225
 20
634.4277342163931
 30
0.0
 10
231.0683593172329
 20
638.3085935904228
 30
0.0
 10
231.0683593172329
 20
638.3085935904228
 30
0.0
 10
231.0683593172329
 20
638.3085935904228
 30
0.0
 10
231.0244140047439
 20
638.2807615591798
 30
0.0
 10
231.0244140047439
 20
638.2807615591798
 30
0.0
 10
231.0244140047439
 20
638.2807615591798
 30
0.0
 10
223.1069335379732
 20
633.7133787478216
 30
0.0
 10
223.1069335379732
 20
633.7133787478216
 30
0.0
 10
223.1069335379732
 20
633.7133787478216
 30
0.0
 10
225.4047850998988
 20
629.7436521863141
 30
0.0
 10
225.4047850998988
 20
629.7436521863141
 30
0.0
 10
218.5209960391198
 20
624.3095701564226
 30
0.0
 10
213.8886718215278
 20
616.3876951584031
 30
0.0
 10
212.6044921343489
 20
607.6367185980909
 30
0.0
 10
212.6044921343489
 20
607.6367185980909
 30
0.0
 10
208.0537108854866
 20
607.6367185980909
 30
0.0
 10
208.0537108854866
 20
607.6367185980909
 30
0.0
 10
208.0537108854866
 20
607.6367185980909
 30
0.0
 10
208.0537108854866
 20
598.4462889128885
 30
0.0
 10
208.0537108854866
 20
598.4462889128885
 30
0.0
 10
208.0537108854866
 20
598.4462889128885
 30
0.0
 10
212.5048827593738
 20
598.4462889128885
 30
0.0
 10
212.5048827593738
 20
598.4462889128885
 30
0.0
 10
212.6235351030941
 20
597.4843748506289
 30
0.0
 10
212.771972603057
 20
596.5219725071195
 30
0.0
 10
212.9755858842561
 20
595.5561521948609
 30
0.0
 10
214.6787108838303
 20
587.4648436031338
 30
0.0
 10
219.1152343202212
 20
580.64013657359
 30
0.0
 10
225.1059569749735
 20
575.8247068872938
 30
0.0
 10
225.1059569749735
 20
575.8247068872938
 30
0.0
 10
223.1069335379732
 20
572.3696287631576
 30
0.0
 10
223.1069335379732
 20
572.3696287631576
 30
0.0
 10
223.1069335379732
 20
572.3696287631576
 30
0.0
 10
231.0683593172329
 20
567.779785014305
 30
0.0
 10
231.0683593172329
 20
567.779785014305
 30
0.0
 10
231.0683593172329
 20
567.779785014305
 30
0.0
 10
232.9672850980082
 20
571.0688475134828
 30
0.0
 10
232.9672850980082
 20
571.0688475134828
 30
0.0
 10
239.3144530651714
 20
568.2954100141761
 30
0.0
 10
246.5434569696141
 20
567.3881834519029
 30
0.0
 10
253.8232421240442
 20
568.9204100140199
 30
0.0
 10
255.8022460297994
 20
569.3374022014157
 30
0.0
 10
257.7021483730745
 20
569.9223631387694
 30
0.0
 10
259.52001946637
 20
570.647949076088
 30
0.0
 10
259.52001946637
 20
570.647949076088
 30
0.0
 10
261.1752929034562
 20
567.779785014305
 30
0.0
 10
261.1752929034562
 20
567.779785014305
 30
0.0
 10
261.1752929034562
 20
567.779785014305
 30
0.0
 10
269.1367186827158
 20
572.3696287631576
 30
0.0
 10
269.1367186827158
 20
572.3696287631576
 30
0.0
 10
269.1367186827158
 20
572.3696287631576
 30
0.0
 10
267.5146483706213
 20
575.1767576687058
 30
0.0
 10
267.5146483706213
 20
575.1767576687058
 30
0.0
 10
271.0205077447449
 20
577.8354490742911
 30
0.0
 10
273.9584960252604
 20
581.1269529797182
 30
0.0
 10
276.2070311809483
 20
584.8486326662878
 30
0.0
 10
276.2070311809483
 20
584.8486326662878
 30
0.0
 10
290.1806639899548
 20
577.5571287618607
 30
0.0
 10
290.1806639899548
 20
577.5571287618607
 30
0.0
 10
290.1806639899548
 20
577.5571287618607
 30
0.0
 10
290.2031249274492
 20
577.5683592306079
 30
0.0
 10
290.2031249274492
 20
577.5683592306079
 30
0.0
 10
290.2031249274492
 20
577.5683592306079
 30
0.0
 10
294.0708007077323
 20
579.9614256362596
 30
0.0
 10
293.436035082891
 20
583.9130857915217
 30
0.0
 10
293.436035082891
 20
583.9130857915217
 30
0.0
 10
293.4306639891423
 20
583.9409178227647
 30
0.0
 10
293.4306639891423
 20
583.9409178227647
 30
0.0
  0
HATCH
  5
4E
330
3C
100
AcDbEntity
  8
svg5872
 62
     7
100
AcDbHatch
 10
0.0
 20
0.0
 30
0.0
210
0.0
220
0.0
230
1.0
  2
SOLID
 70
     1
 71
     0
 91
        1
 92
        1
 93
        1
 72
     4
 94
        3
 73
     0
 74
     1
 95
      197
 96
      193
 40
0.0
 40
0.0
 40
0.0
 40
0.0
 40
1.0
 40
1.0
 40
1.0
 40
2.0
 40
2.0
 40
2.0
 40
3.0
 40
3.0
 40
3.0
 40
4.0
 40
4.0
 40
4.0
 40
5.0
 40
5.0
 40
5.0
 40
6.0
 40
6.0
 40
6.0
 40
7.0
 40
7.0
 40
7.0
 40
8.0
 40
8.0
 40
8.0
 40
9.0
 40
9.0
 40
9.0
 40
10.0
 40
10.0
 40
10.0
 40
11.0
 40
11.0
 40
11.0
 40
12.0
 40
12.0
 40
12.0
 40
13.0
 40
13.0
 40
13.0
 40
14.0
 40
14.0
 40
14.0
 40
15.0
 40
15.0
 40
15.0
 40
16.0
 40
16.0
 40
16.0
 40
17.0
 40
17.0
 40
17.0
 40
18.0
 40
18.0
 40
18.0
 40
19.0
 40
19.0
 40
19.0
 40
20.0
 40
20.0
 40
20.0
 40
21.0
 40
21.0
 40
21.0
 40
22.0
 40
22.0
 40
22.0
 40
23.0
 40
23.0
 40
23.0
 40
24.0
 40
24.0
 40
24.0
 40
25.0
 40
25.0
 40
25.0
 40
26.0
 40
26.0
 40
26.0
 40
27.0
 40
27.0
 40
27.0
 40
28.0
 40
28.0
 40
28.0
 40
29.0
 40
29.0
 40
29.0
 40
30.0
 40
30.0
 40
30.0
 40
31.0
 40
31.0
 40
31.0
 40
32.0
 40
32.0
 40
32.0
 40
33.0
 40
33.0
 40
33.0
 40
34.0
 40
34.0
 40
34.0
 40
35.0
 40
35.0
 40
35.0
 40
36.0
 40
36.0
 40
36.0
 40
37.0
 40
37.0
 40
37.0
 40
38.0
 40
38.0
 40
38.0
 40
39.0
 40
39.0
 40
39.0
 40
40.0
 40
40.0
 40
40.0
 40
41.0
 40
41.0
 40
41.0
 40
42.0
 40
42.0
 40
42.0
 40
43.0
 40
43.0
 40
43.0
 40
44.0
 40
44.0
 40
44.0
 40
45.0
 40
45.0
 40
45.0
 40
46.0
 40
46.0
 40
46.0
 40
47.0
 40
47.0
 40
47.0
 40
48.0
 40
48.0
 40
48.0
 40
49.0
 40
49.0
 40
49.0
 40
50.0
 40
50.0
 40
50.0
 40
51.0
 40
51.0
 40
51.0
 40
52.0
 40
52.0
 40
52.0
 40
53.0
 40
53.0
 40
53.0
 40
54.0
 40
54.0
 40
54.0
 40
55.0
 40
55.0
 40
55.0
 40
56.0
 40
56.0
 40
56.0
 40
57.0
 40
57.0
 40
57.0
 40
58.0
 40
58.0
 40
58.0
 40
59.0
 40
59.0
 40
59.0
 40
60.0
 40
60.0
 40
60.0
 40
61.0
 40
61.0
 40
61.0
 40
62.0
 40
62.0
 40
62.0
 40
63.0
 40
63.0
 40
63.0
 40
64.0
 40
64.0
 40
64.0
 40
64.0
 10
293.4306639891423
 20
583.9409178227647
 10
293.4306639891423
 20
583.9409178227647
 10
293.4135741453966
 20
583.9467771977633
 10
293.4135741453966
 20
583.9467771977633
 10
293.4135741453966
 20
583.9467771977633
 10
285.0571288349857
 20
588.3930662591517
 10
278.3100585241725
 20
591.6035154770991
 10
277.3857421181536
 20
592.0434568832392
 10
276.5351561808662
 20
592.0043943832488
 10
275.7856444623036
 20
591.6977537583256
 10
275.1127928999718
 20
591.699706883325
 10
274.684081962579
 20
591.4453123521387
 10
274.4072264938982
 20
591.2543943834364
 10
273.7939452440515
 20
590.8325193835418
 10
273.4902343066274
 20
590.4155271961461
 10
273.0615233692346
 20
589.8095701650476
 10
273.0615233692346
 20
589.8095701650476
 10
272.9785155567554
 20
589.6821287588294
 10
272.9785155567554
 20
589.6821287588294
 10
272.9785155567554
 20
589.6821287588294
 10
272.9008788380248
 20
589.5493162588626
 10
272.9008788380248
 20
589.5493162588626
 10
269.0375975889906
 20
581.8481443857879
 10
261.8554686845361
 20
575.9194334497702
 10
252.7539061868115
 20
574.0034178252491
 10
236.8935546282766
 20
570.6640623573339
 10
221.4018554133995
 20
580.764160011059
 10
218.0629882267343
 20
596.6249998508438
 10
214.7236327588191
 20
612.4858396906285
 10
224.8237304125441
 20
627.9824217180044
 10
240.6845702523289
 20
631.3217771859196
 10
256.5454100921136
 20
634.6606443725848
 10
272.0424804007394
 20
624.5546873438614
 10
275.3813475874047
 20
608.6943357853264
 10
275.3813475874047
 20
608.6958006290761
 10
275.3886718061528
 20
608.6640623478339
 10
275.3925780561519
 20
608.6166990665959
 10
275.395996024901
 20
608.5693357853577
 10
275.3984374311504
 20
608.503906097874
 10
275.4033202436491
 20
608.4233396916442
 10
275.4140624311465
 20
608.2617185979345
 10
275.4301757123924
 20
608.0346678167414
 10
275.4423827436394
 20
607.7753904730562
 10
275.4667968061333
 20
607.2568357856858
 10
275.4853514936287
 20
606.5937498483515
 10
275.4863280561284
 20
605.9648435985088
 10
275.4868163373783
 20
605.7963865673009
 10
275.4873046186282
 20
605.6401365673399
 10
275.4863280561284
 20
605.4775389111306
 10
275.4863280561284
 20
605.4775389111306
 10
259.0766600914808
 20
605.4887693798778
 10
259.0766600914808
 20
605.4887693798778
 10
259.0766600914808
 20
605.4887693798778
 10
250.5727538436068
 20
610.4272459411432
 10
250.5727538436068
 20
610.4272459411432
 10
250.5727538436068
 20
610.4272459411432
 10
250.5727538436068
 20
613.1787107842054
 10
250.5727538436068
 20
613.1787107842054
 10
250.5727538436068
 20
613.1787107842054
 10
241.3823241584044
 20
613.1787107842054
 10
241.3823241584044
 20
613.1787107842054
 10
241.3823241584044
 20
613.1787107842054
 10
241.3823241584044
 20
605.0346678174914
 10
241.3823241584044
 20
605.0346678174914
 10
241.3823241584044
 20
605.0346678174914
 10
250.0966796249758
 20
605.0346678174914
 10
250.0966796249758
 20
605.0346678174914
 10
250.0966796249758
 20
605.0346678174914
 10
257.7534179043116
 20
600.6000975060999
 10
257.7534179043116
 20
600.6000975060999
 10
257.7534179043116
 20
600.6000975060999
 10
276.0458983684885
 20
600.5834959436041
 10
276.0458983684885
 20
600.5834959436041
 10
276.0458983684885
 20
600.5834959436041
 10
276.0458983684885
 20
598.4462889128885
 10
276.0458983684885
 20
598.4462889128885
 10
276.0458983684885
 20
598.4462889128885
 10
284.1899413352025
 20
598.4462889128885
 10
284.1899413352025
 20
598.4462889128885
 10
284.1899413352025
 20
598.4462889128885
 10
284.1899413352025
 20
607.6367185980909
 10
284.1899413352025
 20
607.6367185980909
 10
284.1899413352025
 20
607.6367185980909
 10
280.6684569610829
 20
607.6367185980909
 10
280.6684569610829
 20
607.6367185980909
 10
280.6684569610829
 20
607.6367185980909
 10
280.6630858673342
 20
607.7084959418229
 10
280.6630858673342
 20
607.7084959418229
 10
280.6147460235963
 20
608.1582029729605
 10
280.627929617343
 20
608.1025389104743
 10
280.6298827423425
 20
608.3950193791512
 10
280.631835867342
 20
608.6914060978271
 10
280.5922850861019
 20
609.1528318789618
 10
280.463867117384
 20
609.7626951600594
 10
278.6552733678362
 20
618.3535154704116
 10
273.7641600878089
 20
625.5185545311203
 10
267.204101495699
 20
630.363769373659
 10
267.204101495699
 20
630.363769373659
 10
269.1362304014659
 20
633.7133787478216
 10
269.1362304014659
 20
633.7133787478216
 10
269.1362304014659
 20
633.7133787478216
 10
261.1801757159549
 20
638.3085935904228
 10
261.1801757159549
 20
638.3085935904228
 10
261.1801757159549
 20
638.3085935904228
 10
259.1538085289615
 20
634.804199060049
 10
259.1538085289615
 20
634.804199060049
 10
257.2651366544337
 20
635.5380857786155
 10
255.3061522799235
 20
636.1157224972211
 10
253.2963866554259
 20
636.5092771846226
 10
248.9008788440248
 20
637.3691404656577
 10
244.2675780639331
 20
637.3833006219041
 10
239.6162108775959
 20
636.403808434649
 10
239.2949218151763
 20
636.3364256221658
 10
238.983886659004
 20
636.2524412471869
 10
238.6694335340826
 20
636.1772459347056
 10
238.6694335340826
 20
636.1772459347056
 10
238.6416015028396
 20
636.1938474972015
 10
238.6416015028396
 20
636.1938474972015
 10
238.6416015028396
 20
636.1938474972015
 10
237.8886718155278
 20
635.9946287472513
 10
237.8886718155278
 20
635.9946287472513
 10
236.3071288471732
 20
635.5766599973558
 10
234.779785097555
 20
635.0468748412383
 10
233.3100585354225
 20
634.4277342163931
 10
233.3100585354225
 20
634.4277342163931
 10
231.0683593172329
 20
638.3085935904228
 10
231.0683593172329
 20
638.3085935904228
 10
231.0683593172329
 20
638.3085935904228
 10
231.0244140047439
 20
638.2807615591798
 10
231.0244140047439
 20
638.2807615591798
 10
231.0244140047439
 20
638.2807615591798
 10
223.1069335379732
 20
633.7133787478216
 10
223.1069335379732
 20
633.7133787478216
 10
223.1069335379732
 20
633.7133787478216
 10
225.4047850998988
 20
629.7436521863141
 10
225.4047850998988
 20
629.7436521863141
 10
218.5209960391198
 20
624.3095701564226
 10
213.8886718215278
 20
616.3876951584031
 10
212.6044921343489
 20
607.6367185980909
 10
212.6044921343489
 20
607.6367185980909
 10
208.0537108854866
 20
607.6367185980909
 10
208.0537108854866
 20
607.6367185980909
 10
208.0537108854866
 20
607.6367185980909
 10
208.0537108854866
 20
598.4462889128885
 10
208.0537108854866
 20
598.4462889128885
 10
208.0537108854866
 20
598.4462889128885
 10
212.5048827593738
 20
598.4462889128885
 10
212.5048827593738
 20
598.4462889128885
 10
212.6235351030941
 20
597.4843748506289
 10
212.771972603057
 20
596.5219725071195
 10
212.9755858842561
 20
595.5561521948609
 10
214.6787108838303
 20
587.4648436031338
 10
219.1152343202212
 20
580.64013657359
 10
225.1059569749735
 20
575.8247068872938
 10
225.1059569749735
 20
575.8247068872938
 10
223.1069335379732
 20
572.3696287631576
 10
223.1069335379732
 20
572.3696287631576
 10
223.1069335379732
 20
572.3696287631576
 10
231.0683593172329
 20
567.779785014305
 10
231.0683593172329
 20
567.779785014305
 10
231.0683593172329
 20
567.779785014305
 10
232.9672850980082
 20
571.0688475134828
 10
232.9672850980082
 20
571.0688475134828
 10
239.3144530651714
 20
568.2954100141761
 10
246.5434569696141
 20
567.3881834519029
 10
253.8232421240442
 20
568.9204100140199
 10
255.8022460297994
 20
569.3374022014157
 10
257.7021483730745
 20
569.9223631387694
 10
259.52001946637
 20
570.647949076088
 10
259.52001946637
 20
570.647949076088
 10
261.1752929034562
 20
567.779785014305
 10
261.1752929034562
 20
567.779785014305
 10
261.1752929034562
 20
567.779785014305
 10
269.1367186827158
 20
572.3696287631576
 10
269.1367186827158
 20
572.3696287631576
 10
269.1367186827158
 20
572.3696287631576
 10
267.5146483706213
 20
575.1767576687058
 10
267.5146483706213
 20
575.1767576687058
 10
271.0205077447449
 20
577.8354490742911
 10
273.9584960252604
 20
581.1269529797182
 10
276.2070311809483
 20
584.8486326662878
 10
276.2070311809483
 20
584.8486326662878
 10
290.1806639899548
 20
577.5571287618607
 10
290.1806639899548
 20
577.5571287618607
 10
290.1806639899548
 20
577.5571287618607
 10
290.2031249274492
 20
577.5683592306079
 10
290.2031249274492
 20
577.5683592306079
 10
290.2031249274492
 20
577.5683592306079
 10
294.0708007077323
 20
579.9614256362596
 10
293.436035082891
 20
583.9130857915217
 10
293.436035082891
 20
583.9130857915217
 10
293.4306639891423
 20
583.9409178227647
 10
293.4306639891423
 20
583.9409178227647
 97
        0
 75
     2
 76
     1
 98
        0
  0
SPLINE
  5
4F
330
3C
100
AcDbEntity
  8
svg5872
370
     0
100
AcDbSpline
210
0.0
220
0.0
230
1.0
 70
    11
 71
     3
 72
   191
 73
   187
 74
     0
 42
0.0000000001
 43
0.0000000001
 40
0.0
 40
0.0
 40
0.0
 40
0.0
 40
1.0
 40
1.0
 40
1.0
 40
2.0
 40
2.0
 40
2.0
 40
3.0
 40
3.0
 40
3.0
 40
4.0
 40
4.0
 40
4.0
 40
5.0
 40
5.0
 40
5.0
 40
6.0
 40
6.0
 40
6.0
 40
7.0
 40
7.0
 40
7.0
 40
8.0
 40
8.0
 40
8.0
 40
9.0
 40
9.0
 40
9.0
 40
10.0
 40
10.0
 40
10.0
 40
11.0
 40
11.0
 40
11.0
 40
12.0
 40
12.0
 40
12.0
 40
13.0
 40
13.0
 40
13.0
 40
14.0
 40
14.0
 40
14.0
 40
15.0
 40
15.0
 40
15.0
 40
16.0
 40
16.0
 40
16.0
 40
17.0
 40
17.0
 40
17.0
 40
18.0
 40
18.0
 40
18.0
 40
19.0
 40
19.0
 40
19.0
 40
20.0
 40
20.0
 40
20.0
 40
21.0
 40
21.0
 40
21.0
 40
22.0
 40
22.0
 40
22.0
 40
23.0
 40
23.0
 40
23.0
 40
24.0
 40
24.0
 40
24.0
 40
25.0
 40
25.0
 40
25.0
 40
26.0
 40
26.0
 40
26.0
 40
27.0
 40
27.0
 40
27.0
 40
28.0
 40
28.0
 40
28.0
 40
29.0
 40
29.0
 40
29.0
 40
30.0
 40
30.0
 40
30.0
 40
31.0
 40
31.0
 40
31.0
 40
32.0
 40
32.0
 40
32.0
 40
33.0
 40
33.0
 40
33.0
 40
34.0
 40
34.0
 40
34.0
 40
35.0
 40
35.0
 40
35.0
 40
36.0
 40
36.0
 40
36.0
 40
37.0
 40
37.0
 40
37.0
 40
38.0
 40
38.0
 40
38.0
 40
39.0
 40
39.0
 40
39.0
 40
40.0
 40
40.0
 40
40.0
 40
41.0
 40
41.0
 40
41.0
 40
42.0
 40
42.0
 40
42.0
 40
43.0
 40
43.0
 40
43.0
 40
44.0
 40
44.0
 40
44.0
 40
45.0
 40
45.0
 40
45.0
 40
46.0
 40
46.0
 40
46.0
 40
47.0
 40
47.0
 40
47.0
 40
48.0
 40
48.0
 40
48.0
 40
49.0
 40
49.0
 40
49.0
 40
50.0
 40
50.0
 40
50.0
 40
51.0
 40
51.0
 40
51.0
 40
52.0
 40
52.0
 40
52.0
 40
53.0
 40
53.0
 40
53.0
 40
54.0
 40
54.0
 40
54.0
 40
55.0
 40
55.0
 40
55.0
 40
56.0
 40
56.0
 40
56.0
 40
57.0
 40
57.0
 40
57.0
 40
58.0
 40
58.0
 40
58.0
 40
59.0
 40
59.0
 40
59.0
 40
60.0
 40
60.0
 40
60.0
 40
61.0
 40
61.0
 40
61.0
 40
62.0
 40
62.0
 40
62.0
 40
62.0
 10
273.0180663379955
 20
640.43994124614
 30
0.0
 10
273.0180663379955
 20
640.43994124614
 30
0.0
 10
274.28027336893
 20
642.6269529643432
 30
0.0
 10
274.28027336893
 20
642.6269529643432
 30
0.0
 10
274.28027336893
 20
642.6269529643432
 30
0.0
 10
273.8540038377865
 20
645.0019529637495
 30
0.0
 10
273.8540038377865
 20
645.0019529637495
 30
0.0
 10
273.8540038377865
 20
645.0019529637495
 30
0.0
 10
267.2436522769391
 20
648.8168943690457
 30
0.0
 10
267.2436522769391
 20
648.8168943690457
 30
0.0
 10
267.2436522769391
 20
648.8168943690457
 30
0.0
 10
265.0566405587358
 20
645.023925619994
 30
0.0
 10
265.0566405587358
 20
645.023925619994
 30
0.0
 10
259.2968749351758
 20
647.6171873380957
 30
0.0
 10
252.9184569680204
 20
649.0766599939808
 30
0.0
 10
246.1997069697001
 20
649.0766599939808
 30
0.0
 10
246.1997069697001
 20
649.0766599939808
 30
0.0
 10
246.1220702509695
 20
649.0766599939808
 30
0.0
 10
246.1220702509695
 20
649.0766599939808
 30
0.0
 10
246.1220702509695
 20
649.0766599939808
 30
0.0
 10
246.1274413447181
 20
649.0712889002322
 30
0.0
 10
246.1274413447181
 20
649.0712889002322
 30
0.0
 10
239.3867186901533
 20
649.0605467127349
 30
0.0
 10
232.992187441752
 20
647.5825193693544
 30
0.0
 10
227.2207030681948
 20
644.9633787450091
 30
0.0
 10
227.2207030681948
 20
644.9633787450091
 30
0.0
 10
225.9194335372701
 20
647.2221678069444
 30
0.0
 10
225.9194335372701
 20
647.2221678069444
 30
0.0
 10
225.9194335372701
 20
647.2221678069444
 30
0.0
 10
223.6499022878375
 20
648.0361326504909
 30
0.0
 10
223.6499022878375
 20
648.0361326504909
 30
0.0
 10
223.6499022878375
 20
648.0361326504909
 30
0.0
 10
217.0449218207388
 20
644.2211912451947
 30
0.0
 10
217.0449218207388
 20
644.2211912451947
 30
0.0
 10
217.0449218207388
 20
644.2211912451947
 30
0.0
 10
219.2705077576824
 20
640.3569334336607
 30
0.0
 10
219.2705077576824
 20
640.3569334336607
 30
0.0
 10
208.8657226040336
 20
632.8364256230409
 30
0.0
 10
201.7231444808192
 20
621.0864256259783
 30
0.0
 10
200.3745116686564
 20
607.6367185980909
 30
0.0
 10
200.3745116686564
 20
607.6367185980909
 30
0.0
 10
197.7612304193097
 20
607.6367185980909
 30
0.0
 10
197.7612304193097
 20
607.6367185980909
 30
0.0
 10
197.7612304193097
 20
607.6367185980909
 30
0.0
 10
195.9233397947692
 20
606.075683442231
 30
0.0
 10
195.9233397947692
 20
606.075683442231
 30
0.0
 10
195.9233397947692
 20
606.075683442231
 30
0.0
 10
195.9233397947692
 20
598.4462889128885
 30
0.0
 10
195.9233397947692
 20
598.4462889128885
 30
0.0
 10
195.9233397947692
 20
598.4462889128885
 30
0.0
 10
200.3691405749077
 20
598.4462889128885
 30
0.0
 10
200.3691405749077
 20
598.4462889128885
 30
0.0
 10
201.6962890120759
 20
584.9785154787554
 30
0.0
 10
208.8305663540424
 20
573.2070311066982
 30
0.0
 10
219.2373046326907
 20
565.6708982960822
 30
0.0
 10
219.2373046326907
 20
565.6708982960822
 30
0.0
 10
217.963867133009
 20
563.456054546636
 30
0.0
 10
217.963867133009
 20
563.456054546636
 30
0.0
 10
217.963867133009
 20
563.456054546636
 30
0.0
 10
218.3901366641525
 20
561.0864256409784
 30
0.0
 10
218.3901366641525
 20
561.0864256409784
 30
0.0
 10
218.3901366641525
 20
561.0864256409784
 30
0.0
 10
225.0004882249999
 20
557.2666014231834
 30
0.0
 10
225.0004882249999
 20
557.2666014231834
 30
0.0
 10
225.0004882249999
 20
557.2666014231834
 30
0.0
 10
227.1821288494545
 20
561.0532225159867
 30
0.0
 10
227.1821288494545
 20
561.0532225159867
 30
0.0
 10
232.983886660504
 20
558.4135740791465
 30
0.0
 10
239.4169921276458
 20
556.9287107982678
 30
0.0
 10
246.1997069697001
 20
556.9287107982678
 30
0.0
 10
252.9326171242668
 20
556.9287107982678
 30
0.0
 10
259.3261718101684
 20
558.3935545479015
 30
0.0
 10
265.0952147774762
 20
560.9980467347505
 30
0.0
 10
265.0952147774762
 20
560.9980467347505
 30
0.0
 10
266.324218683419
 20
558.8666990790333
 30
0.0
 10
266.324218683419
 20
558.8666990790333
 30
0.0
 10
266.324218683419
 20
558.8666990790333
 30
0.0
 10
268.5942382141014
 20
558.0473631417382
 30
0.0
 10
268.5942382141014
 20
558.0473631417382
 30
0.0
 10
268.5942382141014
 20
558.0473631417382
 30
0.0
 10
275.1992186812002
 20
561.8618162657846
 30
0.0
 10
275.1992186812002
 20
561.8618162657846
 30
0.0
 10
275.1992186812002
 20
561.8618162657846
 30
0.0
 10
273.0454100879886
 20
565.5932615773517
 30
0.0
 10
273.0454100879886
 20
565.5932615773517
 30
0.0
 10
275.251953056187
 20
567.1806639207048
 30
0.0
 10
277.3173827431706
 20
568.9541014202615
 30
0.0
 10
279.2075194614481
 20
570.8969725135257
 30
0.0
 10
279.2075194614481
 20
570.8969725135257
 30
0.0
 10
283.4155272728961
 20
568.4667967328833
 30
0.0
 10
283.4155272728961
 20
568.4667967328833
 30
0.0
 10
283.4155272728961
 20
568.4667967328833
 30
0.0
 10
283.4374999291406
 20
568.4833982953792
 30
0.0
 10
283.4374999291406
 20
568.4833982953792
 30
0.0
 10
283.4374999291406
 20
568.4833982953792
 30
0.0
 10
284.5244139913689
 20
569.1113279827222
 30
0.0
 10
285.5356444598661
 20
570.2329100136917
 30
0.0
 10
286.5468749283633
 20
571.3544920446614
 30
0.0
 10
287.4868163343783
 20
572.972167825507
 30
0.0
 10
287.1689452407078
 20
574.9497068875125
 30
0.0
 10
287.1689452407078
 20
574.9497068875125
 30
0.0
 10
287.1630858657092
 20
574.972167825007
 30
0.0
 10
287.1630858657092
 20
574.972167825007
 30
0.0
 10
287.1630858657092
 20
574.972167825007
 30
0.0
 10
277.795898368051
 20
580.3808592299048
 30
0.0
 10
277.795898368051
 20
580.3808592299048
 30
0.0
 10
277.795898368051
 20
580.3808592299048
 30
0.0
 10
274.0366210252408
 20
573.8813475127796
 30
0.0
 10
274.0366210252408
 20
573.8813475127796
 30
0.0
 10
274.0366210252408
 20
573.8813475127796
 30
0.0
 10
274.9775389937556
 20
573.3388670441652
 30
0.0
 10
274.9775389937556
 20
573.3388670441652
 30
0.0
 10
274.5732421188567
 20
572.6967772005758
 30
0.0
 10
274.0864257127284
 20
572.208007669448
 30
0.0
 10
273.1894530567026
 20
571.43994126339
 30
0.0
 10
265.9306639960173
 20
565.2231443899442
 30
0.0
 10
256.5166014983708
 20
561.4741209533814
 30
0.0
 10
246.1992186884502
 20
561.4741209533814
 30
0.0
 10
223.2353515066912
 20
561.4741209533814
 30
0.0
 10
204.6708983863323
 20
580.0385740737404
 30
0.0
 10
204.6708983863323
 20
603.0029295367492
 30
0.0
 10
204.6708983863323
 20
603.7207029740698
 30
0.0
 10
204.6889647925778
 20
604.4311521926422
 30
0.0
 10
204.7260741675685
 20
605.140136567465
 30
0.0
 10
205.8364257297909
 20
627.1069334369732
 30
0.0
 10
223.9526366627618
 20
644.5371092138657
 30
0.0
 10
246.1992186884502
 20
644.5371092138657
 30
0.0
 10
269.1635741514591
 20
644.5371092138657
 30
0.0
 10
287.7333983655666
 20
625.9667967185082
 30
0.0
 10
287.7333983655666
 20
603.0029295367492
 30
0.0
 10
287.7333983655666
 20
603.0029295367492
 30
0.0
 10
287.7333983655666
 20
601.2866209434284
 30
0.0
 10
287.7333983655666
 20
601.2866209434284
 30
0.0
 10
287.7333983655666
 20
601.2866209434284
 30
0.0
 10
287.755859303061
 20
601.2866209434284
 30
0.0
 10
287.755859303061
 20
601.2866209434284
 30
0.0
 10
287.755859303061
 20
601.2866209434284
 30
0.0
 10
287.755859303061
 20
600.3286131311678
 30
0.0
 10
287.755859303061
 20
600.3286131311678
 30
0.0
 10
287.755859303061
 20
600.3286131311678
 30
0.0
 10
286.3828124284043
 20
596.9238279757691
 30
0.0
 10
286.3828124284043
 20
596.9238279757691
 30
0.0
 10
286.3828124284043
 20
596.9238279757691
 30
0.0
 10
253.9169921240207
 20
596.9404295382649
 30
0.0
 10
253.9169921240207
 20
596.9404295382649
 30
0.0
 10
253.9169921240207
 20
596.9404295382649
 30
0.0
 10
250.5732421248567
 20
596.9624021945094
 30
0.0
 10
250.5732421248567
 20
596.9624021945094
 30
0.0
 10
250.5732421248567
 20
596.9624021945094
 30
0.0
 10
250.5732421248567
 20
601.4692381308827
 30
0.0
 10
250.5732421248567
 20
601.4692381308827
 30
0.0
 10
250.5732421248567
 20
601.4692381308827
 30
0.0
 10
241.3828124396543
 20
601.4692381308827
 30
0.0
 10
241.3828124396543
 20
601.4692381308827
 30
0.0
 10
241.3828124396543
 20
601.4692381308827
 30
0.0
 10
241.3828124396543
 20
592.904296726774
 30
0.0
 10
241.3828124396543
 20
592.904296726774
 30
0.0
 10
241.3828124396543
 20
592.904296726774
 30
0.0
 10
249.0117186877471
 20
592.904296726774
 30
0.0
 10
249.0117186877471
 20
592.904296726774
 30
0.0
 10
249.0117186877471
 20
592.904296726774
 30
0.0
 10
249.748046812563
 20
593.7739256328065
 30
0.0
 10
249.748046812563
 20
593.7739256328065
 30
0.0
 10
249.748046812563
 20
593.7739256328065
 30
0.0
 10
253.9057616552736
 20
593.7514646953122
 30
0.0
 10
253.9057616552736
 20
593.7514646953122
 30
0.0
 10
253.9057616552736
 20
593.7514646953122
 30
0.0
 10
288.5307616466173
 20
593.7348631328163
 30
0.0
 10
288.5307616466173
 20
593.7348631328163
 30
0.0
 10
288.5307616466173
 20
593.7348631328163
 30
0.0
 10
290.4350585211412
 20
598.4462889128885
 30
0.0
 10
290.4350585211412
 20
598.4462889128885
 30
0.0
 10
290.4350585211412
 20
598.4462889128885
 30
0.0
 10
294.4824218013794
 20
598.4462889128885
 30
0.0
 10
294.4824218013794
 20
598.4462889128885
 30
0.0
 10
294.4824218013794
 20
598.4462889128885
 30
0.0
 10
296.3203124259199
 20
600.0078123499981
 30
0.0
 10
296.3203124259199
 20
600.0078123499981
 30
0.0
 10
296.3203124259199
 20
600.0078123499981
 30
0.0
 10
296.3203124259199
 20
607.6367185980909
 30
0.0
 10
296.3203124259199
 20
607.6367185980909
 30
0.0
 10
296.3203124259199
 20
607.6367185980909
 30
0.0
 10
292.0410155519897
 20
607.6367185980909
 30
0.0
 10
292.0410155519897
 20
607.6367185980909
 30
0.0
 10
290.6889647710777
 20
621.1376951572156
 30
0.0
 10
283.4868163353783
 20
632.9213865605196
 30
0.0
 10
273.0180663379955
 20
640.43994124614
 30
0.0
  0
HATCH
  5
50
330
3C
100
AcDbEntity
  8
svg5872
 62
     7
100
AcDbHatch
 10
0.0
 20
0.0
 30
0.0
210
0.0
220
0.0
230
1.0
  2
SOLID
 70
     1
 71
     0
 91
        1
 92
        1
 93
        1
 72
     4
 94
        3
 73
     0
 74
     1
 95
      191
 96
      187
 40
0.0
 40
0.0
 40
0.0
 40
0.0
 40
1.0
 40
1.0
 40
1.0
 40
2.0
 40
2.0
 40
2.0
 40
3.0
 40
3.0
 40
3.0
 40
4.0
 40
4.0
 40
4.0
 40
5.0
 40
5.0
 40
5.0
 40
6.0
 40
6.0
 40
6.0
 40
7.0
 40
7.0
 40
7.0
 40
8.0
 40
8.0
 40
8.0
 40
9.0
 40
9.0
 40
9.0
 40
10.0
 40
10.0
 40
10.0
 40
11.0
 40
11.0
 40
11.0
 40
12.0
 40
12.0
 40
12.0
 40
13.0
 40
13.0
 40
13.0
 40
14.0
 40
14.0
 40
14.0
 40
15.0
 40
15.0
 40
15.0
 40
16.0
 40
16.0
 40
16.0
 40
17.0
 40
17.0
 40
17.0
 40
18.0
 40
18.0
 40
18.0
 40
19.0
 40
19.0
 40
19.0
 40
20.0
 40
20.0
 40
20.0
 40
21.0
 40
21.0
 40
21.0
 40
22.0
 40
22.0
 40
22.0
 40
23.0
 40
23.0
 40
23.0
 40
24.0
 40
24.0
 40
24.0
 40
25.0
 40
25.0
 40
25.0
 40
26.0
 40
26.0
 40
26.0
 40
27.0
 40
27.0
 40
27.0
 40
28.0
 40
28.0
 40
28.0
 40
29.0
 40
29.0
 40
29.0
 40
30.0
 40
30.0
 40
30.0
 40
31.0
 40
31.0
 40
31.0
 40
32.0
 40
32.0
 40
32.0
 40
33.0
 40
33.0
 40
33.0
 40
34.0
 40
34.0
 40
34.0
 40
35.0
 40
35.0
 40
35.0
 40
36.0
 40
36.0
 40
36.0
 40
37.0
 40
37.0
 40
37.0
 40
38.0
 40
38.0
 40
38.0
 40
39.0
 40
39.0
 40
39.0
 40
40.0
 40
40.0
 40
40.0
 40
41.0
 40
41.0
 40
41.0
 40
42.0
 40
42.0
 40
42.0
 40
43.0
 40
43.0
 40
43.0
 40
44.0
 40
44.0
 40
44.0
 40
45.0
 40
45.0
 40
45.0
 40
46.0
 40
46.0
 40
46.0
 40
47.0
 40
47.0
 40
47.0
 40
48.0
 40
48.0
 40
48.0
 40
49.0
 40
49.0
 40
49.0
 40
50.0
 40
50.0
 40
50.0
 40
51.0
 40
51.0
 40
51.0
 40
52.0
 40
52.0
 40
52.0
 40
53.0
 40
53.0
 40
53.0
 40
54.0
 40
54.0
 40
54.0
 40
55.0
 40
55.0
 40
55.0
 40
56.0
 40
56.0
 40
56.0
 40
57.0
 40
57.0
 40
57.0
 40
58.0
 40
58.0
 40
58.0
 40
59.0
 40
59.0
 40
59.0
 40
60.0
 40
60.0
 40
60.0
 40
61.0
 40
61.0
 40
61.0
 40
62.0
 40
62.0
 40
62.0
 40
62.0
 10
273.0180663379955
 20
640.43994124614
 10
273.0180663379955
 20
640.43994124614
 10
274.28027336893
 20
642.6269529643432
 10
274.28027336893
 20
642.6269529643432
 10
274.28027336893
 20
642.6269529643432
 10
273.8540038377865
 20
645.0019529637495
 10
273.8540038377865
 20
645.0019529637495
 10
273.8540038377865
 20
645.0019529637495
 10
267.2436522769391
 20
648.8168943690457
 10
267.2436522769391
 20
648.8168943690457
 10
267.2436522769391
 20
648.8168943690457
 10
265.0566405587358
 20
645.023925619994
 10
265.0566405587358
 20
645.023925619994
 10
259.2968749351758
 20
647.6171873380957
 10
252.9184569680204
 20
649.0766599939808
 10
246.1997069697001
 20
649.0766599939808
 10
246.1997069697001
 20
649.0766599939808
 10
246.1220702509695
 20
649.0766599939808
 10
246.1220702509695
 20
649.0766599939808
 10
246.1220702509695
 20
649.0766599939808
 10
246.1274413447181
 20
649.0712889002322
 10
246.1274413447181
 20
649.0712889002322
 10
239.3867186901533
 20
649.0605467127349
 10
232.992187441752
 20
647.5825193693544
 10
227.2207030681948
 20
644.9633787450091
 10
227.2207030681948
 20
644.9633787450091
 10
225.9194335372701
 20
647.2221678069444
 10
225.9194335372701
 20
647.2221678069444
 10
225.9194335372701
 20
647.2221678069444
 10
223.6499022878375
 20
648.0361326504909
 10
223.6499022878375
 20
648.0361326504909
 10
223.6499022878375
 20
648.0361326504909
 10
217.0449218207388
 20
644.2211912451947
 10
217.0449218207388
 20
644.2211912451947
 10
217.0449218207388
 20
644.2211912451947
 10
219.2705077576824
 20
640.3569334336607
 10
219.2705077576824
 20
640.3569334336607
 10
208.8657226040336
 20
632.8364256230409
 10
201.7231444808192
 20
621.0864256259783
 10
200.3745116686564
 20
607.6367185980909
 10
200.3745116686564
 20
607.6367185980909
 10
197.7612304193097
 20
607.6367185980909
 10
197.7612304193097
 20
607.6367185980909
 10
197.7612304193097
 20
607.6367185980909
 10
195.9233397947692
 20
606.075683442231
 10
195.9233397947692
 20
606.075683442231
 10
195.9233397947692
 20
606.075683442231
 10
195.9233397947692
 20
598.4462889128885
 10
195.9233397947692
 20
598.4462889128885
 10
195.9233397947692
 20
598.4462889128885
 10
200.3691405749077
 20
598.4462889128885
 10
200.3691405749077
 20
598.4462889128885
 10
201.6962890120759
 20
584.9785154787554
 10
208.8305663540424
 20
573.2070311066982
 10
219.2373046326907
 20
565.6708982960822
 10
219.2373046326907
 20
565.6708982960822
 10
217.963867133009
 20
563.456054546636
 10
217.963867133009
 20
563.456054546636
 10
217.963867133009
 20
563.456054546636
 10
218.3901366641525
 20
561.0864256409784
 10
218.3901366641525
 20
561.0864256409784
 10
218.3901366641525
 20
561.0864256409784
 10
225.0004882249999
 20
557.2666014231834
 10
225.0004882249999
 20
557.2666014231834
 10
225.0004882249999
 20
557.2666014231834
 10
227.1821288494545
 20
561.0532225159867
 10
227.1821288494545
 20
561.0532225159867
 10
232.983886660504
 20
558.4135740791465
 10
239.4169921276458
 20
556.9287107982678
 10
246.1997069697001
 20
556.9287107982678
 10
252.9326171242668
 20
556.9287107982678
 10
259.3261718101684
 20
558.3935545479015
 10
265.0952147774762
 20
560.9980467347505
 10
265.0952147774762
 20
560.9980467347505
 10
266.324218683419
 20
558.8666990790333
 10
266.324218683419
 20
558.8666990790333
 10
266.324218683419
 20
558.8666990790333
 10
268.5942382141014
 20
558.0473631417382
 10
268.5942382141014
 20
558.0473631417382
 10
268.5942382141014
 20
558.0473631417382
 10
275.1992186812002
 20
561.8618162657846
 10
275.1992186812002
 20
561.8618162657846
 10
275.1992186812002
 20
561.8618162657846
 10
273.0454100879886
 20
565.5932615773517
 10
273.0454100879886
 20
565.5932615773517
 10
275.251953056187
 20
567.1806639207048
 10
277.3173827431706
 20
568.9541014202615
 10
279.2075194614481
 20
570.8969725135257
 10
279.2075194614481
 20
570.8969725135257
 10
283.4155272728961
 20
568.4667967328833
 10
283.4155272728961
 20
568.4667967328833
 10
283.4155272728961
 20
568.4667967328833
 10
283.4374999291406
 20
568.4833982953792
 10
283.4374999291406
 20
568.4833982953792
 10
283.4374999291406
 20
568.4833982953792
 10
284.5244139913689
 20
569.1113279827222
 10
285.5356444598661
 20
570.2329100136917
 10
286.5468749283633
 20
571.3544920446614
 10
287.4868163343783
 20
572.972167825507
 10
287.1689452407078
 20
574.9497068875125
 10
287.1689452407078
 20
574.9497068875125
 10
287.1630858657092
 20
574.972167825007
 10
287.1630858657092
 20
574.972167825007
 10
287.1630858657092
 20
574.972167825007
 10
277.795898368051
 20
580.3808592299048
 10
277.795898368051
 20
580.3808592299048
 10
277.795898368051
 20
580.3808592299048
 10
274.0366210252408
 20
573.8813475127796
 10
274.0366210252408
 20
573.8813475127796
 10
274.0366210252408
 20
573.8813475127796
 10
274.9775389937556
 20
573.3388670441652
 10
274.9775389937556
 20
573.3388670441652
 10
274.5732421188567
 20
572.6967772005758
 10
274.0864257127284
 20
572.208007669448
 10
273.1894530567026
 20
571.43994126339
 10
265.9306639960173
 20
565.2231443899442
 10
256.5166014983708
 20
561.4741209533814
 10
246.1992186884502
 20
561.4741209533814
 10
223.2353515066912
 20
561.4741209533814
 10
204.6708983863323
 20
580.0385740737404
 10
204.6708983863323
 20
603.0029295367492
 10
204.6708983863323
 20
603.7207029740698
 10
204.6889647925778
 20
604.4311521926422
 10
204.7260741675685
 20
605.140136567465
 10
205.8364257297909
 20
627.1069334369732
 10
223.9526366627618
 20
644.5371092138657
 10
246.1992186884502
 20
644.5371092138657
 10
269.1635741514591
 20
644.5371092138657
 10
287.7333983655666
 20
625.9667967185082
 10
287.7333983655666
 20
603.0029295367492
 10
287.7333983655666
 20
603.0029295367492
 10
287.7333983655666
 20
601.2866209434284
 10
287.7333983655666
 20
601.2866209434284
 10
287.7333983655666
 20
601.2866209434284
 10
287.755859303061
 20
601.2866209434284
 10
287.755859303061
 20
601.2866209434284
 10
287.755859303061
 20
601.2866209434284
 10
287.755859303061
 20
600.3286131311678
 10
287.755859303061
 20
600.3286131311678
 10
287.755859303061
 20
600.3286131311678
 10
286.3828124284043
 20
596.9238279757691
 10
286.3828124284043
 20
596.9238279757691
 10
286.3828124284043
 20
596.9238279757691
 10
253.9169921240207
 20
596.9404295382649
 10
253.9169921240207
 20
596.9404295382649
 10
253.9169921240207
 20
596.9404295382649
 10
250.5732421248567
 20
596.9624021945094
 10
250.5732421248567
 20
596.9624021945094
 10
250.5732421248567
 20
596.9624021945094
 10
250.5732421248567
 20
601.4692381308827
 10
250.5732421248567
 20
601.4692381308827
 10
250.5732421248567
 20
601.4692381308827
 10
241.3828124396543
 20
601.4692381308827
 10
241.3828124396543
 20
601.4692381308827
 10
241.3828124396543
 20
601.4692381308827
 10
241.3828124396543
 20
592.904296726774
 10
241.3828124396543
 20
592.904296726774
 10
241.3828124396543
 20
592.904296726774
 10
249.0117186877471
 20
592.904296726774
 10
249.0117186877471
 20
592.904296726774
 10
249.0117186877471
 20
592.904296726774
 10
249.748046812563
 20
593.7739256328065
 10
249.748046812563
 20
593.7739256328065
 10
249.748046812563
 20
593.7739256328065
 10
253.9057616552736
 20
593.7514646953122
 10
253.9057616552736
 20
593.7514646953122
 10
253.9057616552736
 20
593.7514646953122
 10
288.5307616466173
 20
593.7348631328163
 10
288.5307616466173
 20
593.7348631328163
 10
288.5307616466173
 20
593.7348631328163
 10
290.4350585211412
 20
598.4462889128885
 10
290.4350585211412
 20
598.4462889128885
 10
290.4350585211412
 20
598.4462889128885
 10
294.4824218013794
 20
598.4462889128885
 10
294.4824218013794
 20
598.4462889128885
 10
294.4824218013794
 20
598.4462889128885
 10
296.3203124259199
 20
600.0078123499981
 10
296.3203124259199
 20
600.0078123499981
 10
296.3203124259199
 20
600.0078123499981
 10
296.3203124259199
 20
607.6367185980909
 10
296.3203124259199
 20
607.6367185980909
 10
296.3203124259199
 20
607.6367185980909
 10
292.0410155519897
 20
607.6367185980909
 10
292.0410155519897
 20
607.6367185980909
 10
290.6889647710777
 20
621.1376951572156
 10
283.4868163353783
 20
632.9213865605196
 10
273.0180663379955
 20
640.43994124614
 97
        0
 75
     2
 76
     1
 98
        0
  0
ENDBLK
  5
3F
330
3C
100
AcDbEntity
  8
0
100
AcDbBlockEnd
  0
ENDSEC
  0
SECTION
  2
ENTITIES
  0
INSERT
  5
3D
330
1F
100
AcDbEntity
  8
svg5872
100
AcDbBlockReference
  2
block 2
 10
0.0
 20
0.0
 30
0.0
  0
ENDSEC
  0
SECTION
  2
OBJECTS
  0
DICTIONARY
  5
C
330
0
100
AcDbDictionary
281
     1
  3
ACAD_GROUP
350
D
  3
ACAD_LAYOUT
350
1A
  3
ACAD_MLINESTYLE
350
17
  3
ACAD_PLOTSETTINGS
350
19
  3
ACAD_PLOTSTYLENAME
350
E
  3
ACAD_TABLESTYLE
350
51
  3
ACAD_VISUALSTYLE
350
2A
  0
DICTIONARY
  5
D
102
{ACAD_REACTORS
330
C
102
}
330
C
100
AcDbDictionary
281
     1
  0
DICTIONARY
  5
1A
102
{ACAD_REACTORS
330
C
102
}
330
C
100
AcDbDictionary
281
     1
  3
Layout1
350
1E
  3
Layout2
350
26
  3
Model
350
22
  0
DICTIONARY
  5
17
102
{ACAD_REACTORS
330
C
102
}
330
C
100
AcDbDictionary
281
     1
  3
Standard
350
18
  0
DICTIONARY
  5
19
102
{ACAD_REACTORS
330
C
102
}
330
C
100
AcDbDictionary
281
     1
  0
ACDBDICTIONARYWDFLT
  5
E
102
{ACAD_REACTORS
330
C
102
}
330
C
100
AcDbDictionary
281
     1
  3
Normal
350
F
100
AcDbDictionaryWithDefault
340
F
  0
DICTIONARY
  5
51
102
{ACAD_REACTORS
330
C
102
}
330
C
100
AcDbDictionary
281
     1
  0
DICTIONARY
  5
2A
102
{ACAD_REACTORS
330
C
102
}
330
C
100
AcDbDictionary
281
     1
  3
2dWireframe
350
2F
  3
3D Hidden
350
31
  3
3dWireframe
350
30
  3
Basic
350
32
  3
Brighten
350
36
  3
ColorChange
350
3A
  3
Conceptual
350
34
  3
Dim
350
35
  3
Facepattern
350
39
  3
Flat
350
2B
  3
FlatWithEdges
350
2C
  3
Gouraud
350
2D
  3
GouraudWithEdges
350
2E
  3
Linepattern
350
38
  3
Realistic
350
33
  3
Thicken
350
37
  0
LAYOUT
  5
1E
102
{ACAD_REACTORS
330
1A
102
}
330
1A
100
AcDbPlotSettings
  1

  2
none_device
  4

  6

 40
0.0
 41
0.0
 42
0.0
 43
0.0
 44
0.0
 45
0.0
 46
0.0
 47
0.0
 48
0.0
 49
0.0
140
0.0
141
0.0
142
1.0
143
1.0
 70
   688
 72
     0
 73
     0
 74
     5
  7

 75
    16
 76
     0
 77
     2
 78
   300
147
1.0
148
0.0
149
0.0
100
AcDbLayout
  1
Layout1
 70
     1
 71
     1
 10
0.0
 20
0.0
 11
12.0
 21
9.0
 12
0.0
 22
0.0
 32
0.0
 14
1.000000000000000E+20
 24
1.000000000000000E+20
 34
1.000000000000000E+20
 15
-1.000000000000000E+20
 25
-1.000000000000000E+20
 35
-1.000000000000000E+20
146
0.0
 13
0.0
 23
0.0
 33
0.0
 16
1.0
 26
0.0
 36
0.0
 17
0.0
 27
1.0
 37
0.0
 76
     0
330
1B
  0
LAYOUT
  5
26
102
{ACAD_REACTORS
330
1A
102
}
330
1A
100
AcDbPlotSettings
  1

  2
none_device
  4

  6

 40
0.0
 41
0.0
 42
0.0
 43
0.0
 44
0.0
 45
0.0
 46
0.0
 47
0.0
 48
0.0
 49
0.0
140
0.0
141
0.0
142
1.0
143
1.0
 70
   688
 72
     0
 73
     0
 74
     5
  7

 75
    16
 76
     0
 77
     2
 78
   300
147
1.0
148
0.0
149
0.0
100
AcDbLayout
  1
Layout2
 70
     1
 71
     2
 10
0.0
 20
0.0
 11
0.0
 21
0.0
 12
0.0
 22
0.0
 32
0.0
 14
0.0
 24
0.0
 34
0.0
 15
0.0
 25
0.0
 35
0.0
146
0.0
 13
0.0
 23
0.0
 33
0.0
 16
1.0
 26
0.0
 36
0.0
 17
0.0
 27
1.0
 37
0.0
 76
     0
330
23
  0
LAYOUT
  5
22
102
{ACAD_REACTORS
330
1A
102
}
330
1A
100
AcDbPlotSettings
  1

  2
none_device
  4

  6

 40
0.0
 41
0.0
 42
0.0
 43
0.0
 44
0.0
 45
0.0
 46
0.0
 47
0.0
 48
0.0
 49
0.0
140
0.0
141
0.0
142
1.0
143
1.0
 70
  1712
 72
     0
 73
     0
 74
     0
  7

 75
     0
 76
     0
 77
     2
 78
   300
147
1.0
148
0.0
149
0.0
100
AcDbLayout
  1
Model
 70
     1
 71
     0
 10
0.0
 20
0.0
 11
12.0
 21
9.0
 12
0.0
 22
0.0
 32
0.0
 14
1.000000000000000E+20
 24
1.000000000000000E+20
 34
1.000000000000000E+20
 15
-1.000000000000000E+20
 25
-1.000000000000000E+20
 35
-1.000000000000000E+20
146
0.0
 13
0.0
 23
0.0
 33
0.0
 16
1.0
 26
0.0
 36
0.0
 17
0.0
 27
1.0
 37
0.0
 76
     0
330
1F
331
29
  0
MLINESTYLE
  5
18
102
{ACAD_REACTORS
330
17
102
}
330
17
100
AcDbMlineStyle
  2
Standard
 70
     0
  3

 62
   256
 51
90.0
 52
90.0
 71
     2
 49
0.5
 62
   256
  6
BYLAYER
 49
-0.5
 62
   256
  6
BYLAYER
  0
ACDBPLACEHOLDER
  5
F
102
{ACAD_REACTORS
330
E
102
}
330
E
  0
VISUALSTYLE
  5
2F
102
{ACAD_REACTORS
330
2A
102
}
330
2A
100
AcDbVisualStyle
  2
2dWireframe
 70
     4
 71
     0
 72
     2
 73
     0
 90
        0
 40
-0.6
 41
-30.0
 62
     5
 63
     7
421
 16777215
 74
     1
 91
        4
 64
     7
 65
   257
 75
     1
175
     1
 42
1.0
 92
        0
 66
   257
 43
1.0
 76
     1
 77
     6
 78
     2
 67
     7
 79
     5
170
     0
171
     0
290
     0
174
     0
 93
        1
 44
0.0
173
     0
291
     0
 45
0.0
1001
ACAD
1000
AcDbSavedByObjectVersion
1070
     0
  0
VISUALSTYLE
  5
31
102
{ACAD_REACTORS
330
2A
102
}
330
2A
100
AcDbVisualStyle
  2
3D Hidden
 70
     6
 71
     1
 72
     2
 73
     2
 90
        0
 40
-0.6
 41
-30.0
 62
     5
 63
     7
421
 16777215
 74
     2
 91
        2
 64
     7
 65
   257
 75
     2
175
     1
 42
40.0
 92
        0
 66
   257
 43
1.0
 76
     1
 77
     6
 78
     2
 67
     7
 79
     3
170
     0
171
     0
290
     0
174
     0
 93
        1
 44
0.0
173
     0
291
     0
 45
0.0
1001
ACAD
1000
AcDbSavedByObjectVersion
1070
     0
  0
VISUALSTYLE
  5
30
102
{ACAD_REACTORS
330
2A
102
}
330
2A
100
AcDbVisualStyle
  2
3dWireframe
 70
     5
 71
     0
 72
     2
 73
     0
 90
        0
 40
-0.6
 41
-30.0
 62
     5
 63
     7
421
 16777215
 74
     1
 91
        4
 64
     7
 65
   257
 75
     1
175
     1
 42
1.0
 92
        0
 66
   257
 43
1.0
 76
     1
 77
     6
 78
     2
 67
     7
 79
     5
170
     0
171
     0
290
     0
174
     0
 93
        1
 44
0.0
173
     0
291
     0
 45
0.0
1001
ACAD
1000
AcDbSavedByObjectVersion
1070
     0
  0
VISUALSTYLE
  5
32
102
{ACAD_REACTORS
330
2A
102
}
330
2A
100
AcDbVisualStyle
  2
Basic
 70
     7
 71
     1
 72
     0
 73
     1
 90
        0
 40
-0.6
 41
-30.0
 62
     5
 63
     7
421
 16777215
 74
     0
 91
        4
 64
     7
 65
   257
 75
     1
175
     1
 42
1.0
 92
        8
 66
     7
 43
1.0
 76
     1
 77
     6
 78
     2
 67
     7
 79
     5
170
     0
171
     0
290
     0
174
     0
 93
        1
 44
0.0
173
     0
291
     1
 45
0.0
1001
ACAD
1000
AcDbSavedByObjectVersion
1070
     0
  0
VISUALSTYLE
  5
36
102
{ACAD_REACTORS
330
2A
102
}
330
2A
100
AcDbVisualStyle
  2
Brighten
 70
    12
 71
     2
 72
     2
 73
     0
 90
        0
 40
-0.6
 41
-30.0
 62
     5
 63
     7
421
 16777215
 74
     1
 91
        4
 64
     7
 65
   257
 75
     1
175
     1
 42
1.0
 92
        8
 66
     7
 43
1.0
 76
     1
 77
     6
 78
     2
 67
     7
 79
     5
170
     0
171
     0
290
     0
174
     0
 93
        1
 44
50.0
173
     0
291
     1
 45
0.0
1001
ACAD
1000
AcDbSavedByObjectVersion
1070
     0
  0
VISUALSTYLE
  5
3A
102
{ACAD_REACTORS
330
2A
102
}
330
2A
100
AcDbVisualStyle
  2
ColorChange
 70
    16
 71
     2
 72
     2
 73
     3
 90
        0
 40
-0.6
 41
-30.0
 62
     5
 63
     8
421
  8421504
 74
     1
 91
        4
 64
     7
 65
   257
 75
     1
175
     1
 42
1.0
 92
        8
 66
     8
424
  8421504
 43
1.0
 76
     1
 77
     6
 78
     2
 67
     7
 79
     5
170
     0
171
     0
290
     0
174
     0
 93
        1
 44
0.0
173
     0
291
     1
 45
0.0
1001
ACAD
1000
AcDbSavedByObjectVersion
1070
     0
  0
VISUALSTYLE
  5
34
102
{ACAD_REACTORS
330
2A
102
}
330
2A
100
AcDbVisualStyle
  2
Conceptual
 70
     9
 71
     3
 72
     2
 73
     0
 90
        0
 40
-0.6
 41
-30.0
 62
     5
 63
     7
421
 16777215
 74
     2
 91
        2
 64
     7
 65
   257
 75
     1
175
     1
 42
40.0
 92
        8
 66
     7
 43
1.0
 76
     1
 77
     6
 78
     2
 67
     7
 79
     3
170
     0
171
     0
290
     0
174
     0
 93
        1
 44
0.0
173
     0
291
     0
 45
0.0
1001
ACAD
1000
AcDbSavedByObjectVersion
1070
     0
  0
VISUALSTYLE
  5
35
102
{ACAD_REACTORS
330
2A
102
}
330
2A
100
AcDbVisualStyle
  2
Dim
 70
    11
 71
     2
 72
     2
 73
     0
 90
        0
 40
-0.6
 41
-30.0
 62
     5
 63
     7
421
 16777215
 74
     1
 91
        4
 64
     7
 65
   257
 75
     1
175
     1
 42
1.0
 92
        8
 66
     7
 43
1.0
 76
     1
 77
     6
 78
     2
 67
     7
 79
     5
170
     0
171
     0
290
     0
174
     0
 93
        1
 44
-50.0
173
     0
291
     1
 45
0.0
1001
ACAD
1000
AcDbSavedByObjectVersion
1070
     0
  0
VISUALSTYLE
  5
39
102
{ACAD_REACTORS
330
2A
102
}
330
2A
100
AcDbVisualStyle
  2
Facepattern
 70
    15
 71
     2
 72
     2
 73
     0
 90
        0
 40
-0.6
 41
-30.0
 62
     5
 63
     7
421
 16777215
 74
     1
 91
        4
 64
     7
 65
   257
 75
     1
175
     1
 42
1.0
 92
        8
 66
     7
 43
1.0
 76
     1
 77
     6
 78
     2
 67
     7
 79
     5
170
     0
171
     0
290
     0
174
     0
 93
        1
 44
0.0
173
     0
291
     1
 45
0.0
1001
ACAD
1000
AcDbSavedByObjectVersion
1070
     0
  0
VISUALSTYLE
  5
2B
102
{ACAD_REACTORS
330
2A
102
}
330
2A
100
AcDbVisualStyle
  2
Flat
 70
     0
 71
     2
 72
     1
 73
     1
 90
        2
 40
-0.6
 41
30.0
 62
     5
 63
     7
421
 16777215
 74
     0
 91
        4
 64
     7
 65
   257
 75
     1
175
     1
 42
1.0
 92
        8
 66
     7
 43
1.0
 76
     1
 77
     6
 78
     2
 67
     7
 79
     5
170
     0
171
     0
290
     0
174
     0
 93
       13
 44
0.0
173
     0
291
     1
 45
0.0
1001
ACAD
1000
AcDbSavedByObjectVersion
1070
     0
  0
VISUALSTYLE
  5
2C
102
{ACAD_REACTORS
330
2A
102
}
330
2A
100
AcDbVisualStyle
  2
FlatWithEdges
 70
     1
 71
     2
 72
     1
 73
     1
 90
        2
 40
-0.6
 41
30.0
 62
     5
 63
     7
421
 16777215
 74
     1
 91
        4
 64
     7
 65
   257
 75
     1
175
     1
 42
1.0
 92
        0
 66
   257
 43
1.0
 76
     1
 77
     6
 78
     2
 67
     7
 79
     5
170
     0
171
     0
290
     0
174
     0
 93
       13
 44
0.0
173
     0
291
     1
 45
0.0
1001
ACAD
1000
AcDbSavedByObjectVersion
1070
     0
  0
VISUALSTYLE
  5
2D
102
{ACAD_REACTORS
330
2A
102
}
330
2A
100
AcDbVisualStyle
  2
Gouraud
 70
     2
 71
     2
 72
     2
 73
     1
 90
        2
 40
-0.6
 41
30.0
 62
     5
 63
     7
421
 16777215
 74
     0
 91
        4
 64
     7
 65
   257
 75
     1
175
     1
 42
1.0
 92
        0
 66
     7
 43
1.0
 76
     1
 77
     6
 78
     2
 67
     7
 79
     5
170
     0
171
     0
290
     0
174
     0
 93
       13
 44
0.0
173
     0
291
     1
 45
0.0
1001
ACAD
1000
AcDbSavedByObjectVersion
1070
     0
  0
VISUALSTYLE
  5
2E
102
{ACAD_REACTORS
330
2A
102
}
330
2A
100
AcDbVisualStyle
  2
GouraudWithEdges
 70
     3
 71
     2
 72
     2
 73
     1
 90
        2
 40
-0.6
 41
30.0
 62
     5
 63
     7
421
 16777215
 74
     1
 91
        4
 64
     7
 65
   257
 75
     1
175
     1
 42
1.0
 92
        0
 66
   257
 43
1.0
 76
     1
 77
     6
 78
     2
 67
     7
 79
     5
170
     0
171
     0
290
     0
174
     0
 93
       13
 44
0.0
173
     0
291
     1
 45
0.0
1001
ACAD
1000
AcDbSavedByObjectVersion
1070
     0
  0
VISUALSTYLE
  5
38
102
{ACAD_REACTORS
330
2A
102
}
330
2A
100
AcDbVisualStyle
  2
Linepattern
 70
    14
 71
     2
 72
     2
 73
     0
 90
        0
 40
-0.6
 41
-30.0
 62
     5
 63
     7
421
 16777215
 74
     1
 91
        4
 64
     7
 65
   257
 75
     7
175
     7
 42
1.0
 92
        8
 66
     7
 43
1.0
 76
     1
 77
     6
 78
     2
 67
     7
 79
     5
170
     0
171
     0
290
     0
174
     0
 93
        1
 44
0.0
173
     0
291
     1
 45
0.0
1001
ACAD
1000
AcDbSavedByObjectVersion
1070
     0
  0
VISUALSTYLE
  5
33
102
{ACAD_REACTORS
330
2A
102
}
330
2A
100
AcDbVisualStyle
  2
Realistic
 70
     8
 71
     2
 72
     2
 73
     0
 90
        0
 40
-0.6
 41
-30.0
 62
     5
 63
     7
421
 16777215
 74
     1
 91
        0
 64
     7
 65
   257
 75
     1
175
     1
 42
1.0
 92
        8
 66
     8
424
  7895160
 43
1.0
 76
     1
 77
     6
 78
     2
 67
     7
 79
     5
170
     0
171
     0
290
     0
174
     0
 93
       13
 44
0.0
173
     0
291
     0
 45
0.0
1001
ACAD
1000
AcDbSavedByObjectVersion
1070
     0
  0
VISUALSTYLE
  5
37
102
{ACAD_REACTORS
330
2A
102
}
330
2A
100
AcDbVisualStyle
  2
Thicken
 70
    13
 71
     2
 72
     2
 73
     0
 90
        0
 40
-0.6
 41
-30.0
 62
     5
 63
     7
421
 16777215
 74
     1
 91
        4
 64
     7
 65
   257
 75
     1
175
     1
 42
1.0
 92
       12
 66
     7
 43
1.0
 76
     1
 77
     6
 78
     2
 67
     7
 79
     5
170
     0
171
     0
290
     0
174
     0
 93
        1
 44
0.0
173
     0
291
     1
 45
0.0
1001
ACAD
1000
AcDbSavedByObjectVersion
1070
     0
  0
ENDSEC
  0
EOF
